<svg id="e9AZLPv4GVX1" xmlns="http://www.w3.org/2000/svg" xmlns:xlink="http://www.w3.org/1999/xlink" viewBox="0 0 1200 1200" shape-rendering="geometricPrecision" text-rendering="geometricPrecision"><defs><rect id="e9AZLPv4GVX2" width="1248.9" height="1248.9" rx="0" ry="0"/></defs><g><g clip-path="url(#e9AZLPv4GVX81)"><rect width="1248.9" height="1248.9" rx="0" ry="0" transform="translate(-48.6-42.8)" fill="#ffc4e1"/><g><g><path d="M0,38.6c7.2-38.7,26.6-71.2,54.4-89.3-38.3-19.7-56.4-47-56.4-47-43.4,43.2-13.7,108.8,2,136.3Z" fill="#3061ac"/><path d="M-40.3,175.6c7.2-38.8,26.6-71.3,54.4-89.4-38.3-19.7-56.4-46.9-56.4-46.9-43.5,43.2-13.7,108.8,2,136.3Z" fill="#3061ac"/></g><g><path d="M595.4,38.6c-7.2-38.8-26.6-71.3-54.4-89.4c38.3-19.7,56.4-46.9,56.4-46.9c43.4,43.2,13.7,108.8-2,136.3Z" fill="#3061ac"/><path d="M635.7,175.6c-7.2-38.8-26.6-71.3-54.4-89.4c38.3-19.7,56.4-46.9,56.4-46.9c43.5,43.2,13.7,108.8-2,136.3Z" fill="#3061ac"/><path d="M676.1,312.6c-7.2-38.8-26.6-71.3-54.4-89.4c38.3-19.7,56.4-46.9,56.4-46.9c43.4,43.2,13.7,108.8-2,136.3Z" fill="#3061ac"/><path d="M716.4,449.6c-7.2-38.8-26.6-71.3-54.4-89.4c38.3-19.7,56.4-46.9,56.4-46.9c43.5,43.2,13.7,108.8-2,136.3Z" fill="#3061ac"/><path d="M756.8,586.6c-7.2-38.8-26.6-71.3-54.4-89.4c38.3-19.7,56.4-46.9,56.4-46.9c43.4,43.1,13.7,108.7-2,136.3Z" fill="#3061ac"/><path d="M797.1,723.6c-7.2-38.8-26.6-71.3-54.4-89.4c38.3-19.7,56.4-46.9,56.4-46.9c43.5,43.1,13.7,108.7-2,136.3Z" fill="#3061ac"/><path d="M837.5,860.5c-7.2-38.8-26.6-71.3-54.4-89.4c38.3-19.7,56.4-46.9,56.4-46.9c43.4,43.2,13.7,108.8-2,136.3Z" fill="#3061ac"/><path d="M877.8,997.5c-7.2-38.8-26.6-71.3-54.4-89.4c38.3-19.7,56.4-46.9,56.4-46.9c43.5,43.2,13.7,108.8-2,136.3Z" fill="#3061ac"/><path d="M918.2,1134.5c-7.2-38.8-26.6-71.3-54.4-89.4c38.3-19.7,56.4-46.9,56.4-46.9c43.4,43.2,13.7,108.8-2,136.3Z" fill="#3061ac"/><path d="M904.1,1182.1c38.3-19.7,56.4-46.9,56.4-46.9c43.4,43.2,13.7,108.8-2,136.3-7.2-38.8-26.6-71.3-54.4-89.4Z" fill="#3061ac"/></g><g><polygon points="297.7,-982.7 -379.8,1270.3 975.2,1270.3" fill="#05d589"/><g><path d="M-348.2,1163.9c0,0,760.5,165.3,1291.9,0" fill="none" stroke="#ffc4e1" stroke-miterlimit="10"/><path d="M-306.5,1025.4c0,0,711.5,155.3,1208.6,0" fill="none" stroke="#ffc4e1" stroke-miterlimit="10"/><path d="M-264.8,886.9c0,0,662.5,145.3,1125.4,0" fill="none" stroke="#ffc4e1" stroke-miterlimit="10"/><path d="M-223.1,748.4c0,0,613.5,135.3,1042.2,0" fill="none" stroke="#ffc4e1" stroke-miterlimit="10"/><path d="M-181.4,609.9c0,0,564.5,125.4,958.9,0" fill="none" stroke="#ffc4e1" stroke-miterlimit="10"/><path d="M-139.7,471.3c0,0,515.5,115.4,875.7,0" fill="none" stroke="#ffc4e1" stroke-miterlimit="10"/><path d="M-98,332.8c0,0,466.5,105.4,792.4,0" fill="none" stroke="#ffc4e1" stroke-miterlimit="10"/><path d="M-56.3,194.3c0,0,417.5,95.4,709.2,0" fill="none" stroke="#ffc4e1" stroke-miterlimit="10"/><path d="M-14.6,55.8c0,0,368.5,85.5,626,0" fill="none" stroke="#ffc4e1" stroke-miterlimit="10"/></g></g></g><ellipse rx="109.3" ry="143" transform="translate(311.2 506.3)" fill="#fff4cb"/><rect width="182.6" height="86.9" rx="0" ry="0" transform="matrix(-1 0 0-1 402.439 1203.57)" fill="#eb769f"/><rect width="59" height="86.9" rx="0" ry="0" transform="matrix(-1 0 0-1 331.983 695.56)" fill="#fff4cb"/><path d="M219.9,1123h182.6v-415.2c0-6.6-5.4-12-12-12h-170.6v427.2Z" fill="#00dee1"/><rect width="182.6" height="86.9" rx="0" ry="0" transform="matrix(-1 0 0-1 402.439 1203.57)" fill="#eb769f"/><rect width="59" height="86.9" rx="0" ry="0" transform="matrix(-1 0 0-1 331.983 695.56)" fill="#fff4cb"/><path d="M219.9,1123h182.6v-415.2c0-6.6-5.4-12-12-12h-170.6v427.2Z" fill="#00dee1"/><g><path d="M472.7,551.8c-.4-87.4-37.6-158-83.5-158-3.3,0-6.5.4-9.7,1.1c13.8,14.5,24.9,33.2,32,54.7c5.7,17.4,9,36.6,9,56.7c0,16.4-2.2,32.1-6,46.8h58.3c-.1-.5-.1-.9-.1-1.3Z" fill="none"/><path d="M296,553.1v0h-88.1c14.8,56,55.4,96.2,103.3,96.2c26,0,50-11.9,68.7-31.9-21.8-7-36.1-28.7-32.9-52.2l60.6,8.3c2.7-6.5,4.9-13.4,6.8-20.5h-108.8-9.6v.1Z" fill="#fff4cb"/><path d="M411.5,449.6c-1.5,1.5-2.8,3.1-4,5-17.8,29.4-43.4,61.6-99,64.6l-1.3,3.6c-1,9.8-1.5,19.9-1.5,30.2h108.8c3.9-14.7,6-30.4,6-46.8-.1-20.1-3.3-39.2-9-56.6Z" fill="#fff4cb"/><path d="M364.6,381.7c-1.4-1.1-2.8-2.2-4.3-3.2l-2.7,7.4c2.3-1.6,4.6-3,7-4.2Z" fill="#ff7baa"/><path d="M346.4,416.2l-37.9,103c55.6-3.1,81.2-35.2,99-64.6c1.2-1.9,2.5-3.5,4-5-7.1-21.5-18.2-40.2-32-54.7-12,2.6-23.2,10.1-33.1,21.3Z" fill="#ff7baa"/><path d="M307.2,522.8l1.3-3.6c-.3,0-.6,0-1,0-.1,1.2-.2,2.4-.3,3.6Z" fill="#ff7baa"/><path d="M297.7,519.4c-.6,0-1.1,0-1.7,0c2.4-59.9,27.5-111.4,64.2-140.9-14.8-9.7-31.4-15.3-49.1-15.3-60.4,0-109.3,64-109.3,143c0,16.4,3.8,44.3,7.7,59h88.1c.1-11.4-1-34.9.1-45.8Z" fill="#ff7baa"/><path d="M307.5,519.3c.3,0,.6,0,1,0l37.9-103c-19.5,22.2-33.9,59.2-38.9,103Z" fill="#ff7baa"/><path d="M296,519.4c.6,0,1.1,0,1.7,0c6.2-62,29.3-112.5,59.9-133.6l2.7-7.4c-36.8,29.6-61.9,81.2-64.3,141Z" fill="#ff7baa"/><path d="M379.9,617.5c11.3-12,20.8-26.9,27.7-43.9L347,565.3c-3.2,23.4,11.1,45.2,32.9,52.2Z" fill="#ff7baa"/></g><path d="M303.7,477.7c0,0-73.3-46.7-49.7-102.1c0,0,48.1,32.7,113.7,8.4c0,0-59.8,86.3-64,93.7Z" fill="#0d6092"/><path d="M305.6,553.1c0-10.3.5-20.4,1.5-30.2L296,553.1h9.6Z" fill="#00dee1"/><path d="M346.4,416.2c9.9-11.3,21.1-18.7,33.1-21.4-4.7-4.9-9.6-9.3-14.9-13.2-2.4,1.2-4.7,2.6-7,4.2l-11.2,30.4Z" fill="#00dee1"/><path d="M297.7,519.4c-1.1,10.9-1.7,22.1-1.7,33.6v0l11.1-30.2c.1-1.2.2-2.4.4-3.6-3.1.2-6.4.3-9.8.2Z" fill="#00dee1"/><path d="M307.5,519.3c5-43.7,19.3-80.8,38.8-103L357.5,386c-30.5,21-53.6,71.6-59.9,133.6c3.5-.1,6.8-.2,9.9-.3Z" fill="#00dee1"/><circle r="11.3" transform="translate(394.4 524.9)" fill="#ff7baa"/><ellipse rx="109.3" ry="143" transform="translate(1029.5 514)" fill="#fff4cb"/><rect width="182.6" height="86.9" rx="0" ry="0" transform="translate(938.2 1124.5)" fill="#eb769f"/><rect width="59" height="86.9" rx="0" ry="0" transform="translate(1008.8 616.4)" fill="#fff4cb"/><path d="M1120.8,1130.7h-182.6v-415.2c0-6.6,5.4-12,12-12h170.6v427.2Z" fill="#00dee1"/><rect width="182.6" height="86.9" rx="0" ry="0" transform="translate(938.2 1124.5)" fill="#eb769f"/><rect width="59" height="86.9" rx="0" ry="0" transform="translate(1008.8 616.4)" fill="#fff4cb"/><path d="M1120.8,1130.7h-182.6v-415.2c0-6.6,5.4-12,12-12h170.6v427.2Z" fill="#00dee1"/><path d="M1044.7,560.8v-33.6v33.6Z" fill="#fff4cb"/><g><path d="M868,559.5c.4-87.4,37.6-158,83.5-158c3.3,0,6.5.4,9.7,1.1-13.8,14.5-24.9,33.2-32,54.7-5.7,17.4-9,36.6-9,56.7c0,16.4,2.2,32.1,6,46.8h-58.2c0-.5,0-.9,0-1.3Z" fill="none"/><path d="M1044.7,560.8v0h88.1c-14.8,56-55.4,96.2-103.3,96.2-26,0-50-11.9-68.7-31.9c21.8-7,36.1-28.7,32.9-52.2l-60.6,8.3c-2.7-6.5-4.9-13.4-6.8-20.5h108.8h9.6v.1Z" fill="#fff4cb"/><path d="M929.2,457.3c1.5,1.5,2.8,3.1,4,5c17.8,29.4,43.4,61.6,99,64.6l1.3,3.6c1,9.8,1.5,19.9,1.5,30.2h-108.7c-3.9-14.7-6-30.4-6-46.8c0-20.1,3.2-39.2,8.9-56.6Z" fill="#fff4cb"/><path d="M976.1,389.4c1.4-1.1,2.8-2.2,4.3-3.2l2.7,7.4c-2.2-1.6-4.6-3-7-4.2Z" fill="#05d589"/><path d="M994.3,423.9l37.9,103c-55.6-3.1-81.2-35.2-99-64.6-1.2-1.9-2.5-3.5-4-5c7.1-21.5,18.2-40.2,32-54.7c12,2.6,23.2,10.1,33.1,21.3Z" fill="#05d589"/><path d="M1033.5,530.6l-1.3-3.6c.3,0,.6,0,1,0c.1,1.2.2,2.4.3,3.6Z" fill="#fff4cb"/><path d="M1044.7,527.2c-2.4-59.9-27.5-111.4-64.2-140.9c14.8-9.7,31.4-15.3,49.1-15.3c60.4,0,109.3,64,109.3,143c0,16.4-2.1,32.1-6,46.8l-58.5-43" fill="#05d589"/><path d="M1033.2,527c-.3,0-.6,0-1,0L994.3,424c19.5,22.2,33.9,59.2,38.9,103Z" fill="#05d589"/><path d="M1044.7,527.2c-.6,0-1.1,0-1.7,0-6.2-62-29.3-112.5-59.9-133.6l-2.7-7.4c36.8,29.5,61.9,81.1,64.3,141Z" fill="#05d589"/><path d="M960.8,625.2c-11.3-12-20.8-26.9-27.7-43.9l60.6-8.3c3.2,23.4-11.1,45.2-32.9,52.2Z" fill="#05d589"/></g><path d="M1035.1,560.8c0-10.3-.5-20.4-1.5-30.2l11.1,30.2h-9.6Z" fill="#fff4cb"/><path d="M994.3,423.9c-9.9-11.3-21.1-18.7-33.1-21.4c4.7-4.9,9.6-9.3,14.9-13.2c2.4,1.2,4.7,2.6,7,4.2l11.2,30.4Z" fill="#05d589"/><path d="M1043,527.2c1.1,10.9,1.7,22.1,1.7,33.6v0l-11.1-30.2c-.1-1.2-.2-2.4-.4-3.6c3.1.1,6.4.2,9.8.2Z" fill="#fff4cb"/><path d="M1033.2,527c-5-43.7-19.3-80.8-38.8-103l-11.2-30.3c30.5,21,53.6,71.6,59.9,133.6-3.5-.1-6.8-.2-9.9-.3Z" fill="#05d589"/><circle r="11.3" transform="translate(946.3 532.6)" fill="#05d589"/><clipPath id="e9AZLPv4GVX81"><use width="1248.900024" height="1248.900024" xlink:href="#e9AZLPv4GVX2" transform="translate(-48.6-42.8)"/></clipPath></g></g><g id="e9AZLPv4GVX83" transform="matrix(.985874-.167487 0.167487 0.985874-130.379939 165.96672)"><path d="M753.5,1031l-46-16.7c-6.6-2.4-9.9-10.3-7.3-17.4l8.8-24.4c2.6-7.2,10.2-11.1,16.8-8.7l46,16.7c6.6,2.4,9.9,10.3,7.3,17.4l-8.8,24.4c-2.6,7.2-10.2,11.1-16.8,8.7Z" fill="#fff4cb"/><path d="M727.9,947.4C930.5,880,999.8,732.5,999.8,732.5l20.8,42.6c0,0-226.8,359.6-266.4,254.5l-26.3-82.2Z" fill="#00dee1"/></g><g id="e9AZLPv4GVX86" transform="translate(-47.117006-21.499988)"><g><path d="M695.4,983.1c-1.1-.5-2.2-1-3.3-1.5-4.6-1.8-9.2-3.1-14-3.9c1.5,2.1,3.1,4.2,4.8,6.3c4.3-.1,8.5-.4,12.5-.9Z" fill="none"/><path d="M669,963.2c-17.5-32-17.3-59.7-17.3-59.7-51,9.6-61.3,69.7-63.3,96.4c23.4-23.7,52.5-37.3,80.6-36.7Z" fill="#3061ac"/><path d="M755,1062.6c15.2-17.8,55.7-72.6,23.1-117.4c0,0-22,23.7-62.2,34.1c23.6,17.8,37.4,48.4,39.1,83.3Z" fill="#3061ac"/><g><g><g><path d="M755,1062.6c-3.2,3.8-5.3,5.9-5.3,5.9-.8-.9-2.9-2.9-6-5.8c1.5,20.5-1.8,42.8-10.5,64.7l9.9,3.9c9.2-23.2,12.9-46.8,11.9-68.7Z" fill="#ff7baa"/></g><g><path d="M692.1,981.6c1.1.4,2.2.9,3.3,1.5c7.3-.8,14.1-2.2,20.5-3.8-5.7-4.3-11.9-7.9-18.7-10.5-9.1-3.6-18.6-5.4-28.2-5.6c2.6,4.8,5.6,9.6,9.1,14.5c4.7.8,9.4,2.1,14,3.9Z" fill="#ff7baa"/></g><g><path d="M587.9,1012.8c0,0-.1-5,.5-12.8-14.7,14.9-27.3,33.8-36,55.8l9.9,3.9c7.2-18.2,17.4-34.1,29.3-47-1.8,0-3,0-3.7.1Z" fill="#ff7baa"/></g><g><path d="M591.6,1012.7c24.6-26.5,56.8-40.2,86.5-35-3.5-4.9-6.5-9.8-9.1-14.5-28.1-.5-57.2,13-80.6,36.8-.6,7.8-.5,12.8-.5,12.8.7-.1,1.9-.1,3.7-.1Z" fill="#ff7baa"/></g><g><path d="M743.7,1062.7c3,2.9,5.1,4.9,6,5.8c0,0,2.1-2.1,5.3-5.9-1.7-34.9-15.5-65.5-39.1-83.3-6.4,1.7-13.2,3-20.5,3.8c28.5,13,45.7,43.5,48.3,79.6Z" fill="#ff7baa"/></g></g></g></g><path d="M605.4,1031l-46-16.7c-6.6-2.4-9.9-10.3-7.3-17.4l8.8-24.4c2.6-7.2,10.2-11.1,16.8-8.7l46,16.7c6.6,2.4,9.9,10.3,7.3,17.4l-8.8,24.4c-2.6,7.2-10.1,11.1-16.8,8.7Z" fill="#fff4cb"/><path d="M612.8,939.7C410.3,872.2,340.9,724.8,340.9,724.8l-20.8,42.6c0,0,226.8,359.6,266.4,254.5l26.3-82.2Z" fill="#00dee1"/></g><g id="e9AZLPv4GVX105"><circle r="49.7" transform="translate(346.4 237.7)" fill="#fff4cb"/><circle r="49.7" transform="translate(641 489.1)" fill="#fff4cb"/><circle r="49.7" transform="translate(146.8 658.8)" fill="#fff4cb"/><circle r="49.7" transform="translate(72.2 926.2)" fill="#fff4cb"/><circle r="49.7" transform="translate(466.4 1096.3)" fill="#fff4cb"/><circle r="49.7" transform="translate(587.9 781.9)" fill="#fff4cb"/><circle r="49.7" transform="translate(472.7 104.1)" fill="#fff4cb"/><circle r="49.7" transform="translate(146.8 84.9)" fill="#fff4cb"/><circle r="49.7" transform="translate(64.3 336.3)" fill="#fff4cb"/></g>
<script><![CDATA[
!function(t,n){"object"==typeof exports&&"undefined"!=typeof module?module.exports=n():"function"==typeof __SVGATOR_DEFINE__&&__SVGATOR_DEFINE__.amd?__SVGATOR_DEFINE__(n):((t="undefined"!=typeof globalThis?globalThis:t||self).__SVGATOR_PLAYER__=t.__SVGATOR_PLAYER__||{},t.__SVGATOR_PLAYER__["5c7f360c"]=n())}(this,(function(){"use strict";function t(t,n){var e=Object.keys(t);if(Object.getOwnPropertySymbols){var r=Object.getOwnPropertySymbols(t);n&&(r=r.filter((function(n){return Object.getOwnPropertyDescriptor(t,n).enumerable}))),e.push.apply(e,r)}return e}function n(n){for(var e=1;e<arguments.length;e++){var r=null!=arguments[e]?arguments[e]:{};e%2?t(Object(r),!0).forEach((function(t){u(n,t,r[t])})):Object.getOwnPropertyDescriptors?Object.defineProperties(n,Object.getOwnPropertyDescriptors(r)):t(Object(r)).forEach((function(t){Object.defineProperty(n,t,Object.getOwnPropertyDescriptor(r,t))}))}return n}function e(t){return(e="function"==typeof Symbol&&"symbol"==typeof Symbol.iterator?function(t){return typeof t}:function(t){return t&&"function"==typeof Symbol&&t.constructor===Symbol&&t!==Symbol.prototype?"symbol":typeof t})(t)}function r(t,n){if(!(t instanceof n))throw new TypeError("Cannot call a class as a function")}function i(t,n){for(var e=0;e<n.length;e++){var r=n[e];r.enumerable=r.enumerable||!1,r.configurable=!0,"value"in r&&(r.writable=!0),Object.defineProperty(t,r.key,r)}}function o(t,n,e){return n&&i(t.prototype,n),e&&i(t,e),t}function u(t,n,e){return n in t?Object.defineProperty(t,n,{value:e,enumerable:!0,configurable:!0,writable:!0}):t[n]=e,t}function a(t){return(a=Object.setPrototypeOf?Object.getPrototypeOf:function(t){return t.__proto__||Object.getPrototypeOf(t)})(t)}function l(t,n){return(l=Object.setPrototypeOf||function(t,n){return t.__proto__=n,t})(t,n)}function s(){if("undefined"==typeof Reflect||!Reflect.construct)return!1;if(Reflect.construct.sham)return!1;if("function"==typeof Proxy)return!0;try{return Boolean.prototype.valueOf.call(Reflect.construct(Boolean,[],(function(){}))),!0}catch(t){return!1}}function f(t,n,e){return(f=s()?Reflect.construct:function(t,n,e){var r=[null];r.push.apply(r,n);var i=new(Function.bind.apply(t,r));return e&&l(i,e.prototype),i}).apply(null,arguments)}function c(t,n){if(n&&("object"==typeof n||"function"==typeof n))return n;if(void 0!==n)throw new TypeError("Derived constructors may only return object or undefined");return function(t){if(void 0===t)throw new ReferenceError("this hasn't been initialised - super() hasn't been called");return t}(t)}function h(t,n,e){return(h="undefined"!=typeof Reflect&&Reflect.get?Reflect.get:function(t,n,e){var r=function(t,n){for(;!Object.prototype.hasOwnProperty.call(t,n)&&null!==(t=a(t)););return t}(t,n);if(r){var i=Object.getOwnPropertyDescriptor(r,n);return i.get?i.get.call(e):i.value}})(t,n,e||t)}function v(t){return function(t){if(Array.isArray(t))return y(t)}(t)||function(t){if("undefined"!=typeof Symbol&&null!=t[Symbol.iterator]||null!=t["@@iterator"])return Array.from(t)}(t)||function(t,n){if(!t)return;if("string"==typeof t)return y(t,n);var e=Object.prototype.toString.call(t).slice(8,-1);"Object"===e&&t.constructor&&(e=t.constructor.name);if("Map"===e||"Set"===e)return Array.from(t);if("Arguments"===e||/^(?:Ui|I)nt(?:8|16|32)(?:Clamped)?Array$/.test(e))return y(t,n)}(t)||function(){throw new TypeError("Invalid attempt to spread non-iterable instance.\nIn order to be iterable, non-array objects must have a [Symbol.iterator]() method.")}()}function y(t,n){(null==n||n>t.length)&&(n=t.length);for(var e=0,r=new Array(n);e<n;e++)r[e]=t[e];return r}function g(t,n,e){if(Number.isInteger(t))return t;var r=Math.pow(10,n);return Math[e]((+t+Number.EPSILON)*r)/r}Number.isInteger||(Number.isInteger=function(t){return"number"==typeof t&&isFinite(t)&&Math.floor(t)===t}),Number.EPSILON||(Number.EPSILON=2220446049250313e-31);var d=p(Math.pow(10,-6));function p(t){var n=arguments.length>1&&void 0!==arguments[1]?arguments[1]:6;return g(t,n,"round")}function m(t,n){var e=arguments.length>2&&void 0!==arguments[2]?arguments[2]:d;return Math.abs(t-n)<e}p(Math.pow(10,-2)),p(Math.pow(10,-4));var b=Math.PI/180;function w(t){return t}function A(t,n,e){var r=1-e;return 3*e*r*(t*r+n*e)+e*e*e}function _(){var t=arguments.length>0&&void 0!==arguments[0]?arguments[0]:0,n=arguments.length>1&&void 0!==arguments[1]?arguments[1]:0,e=arguments.length>2&&void 0!==arguments[2]?arguments[2]:1,r=arguments.length>3&&void 0!==arguments[3]?arguments[3]:1;return t<0||t>1||e<0||e>1?null:m(t,n)&&m(e,r)?w:function(i){if(i<=0)return t>0?i*n/t:0===n&&e>0?i*r/e:0;if(i>=1)return e<1?1+(i-1)*(r-1)/(e-1):1===e&&t<1?1+(i-1)*(n-1)/(t-1):1;for(var o,u=0,a=1;u<a;){var l=A(t,e,o=(u+a)/2);if(m(i,l))break;l<i?u=o:a=o}return A(n,r,o)}}function x(){return 1}function k(t){return 1===t?1:0}function S(){var t=arguments.length>0&&void 0!==arguments[0]?arguments[0]:1,n=arguments.length>1&&void 0!==arguments[1]?arguments[1]:0;if(1===t){if(0===n)return k;if(1===n)return x}var e=1/t;return function(t){return t>=1?1:(t+=n*e)-t%e}}var O=Math.sin,j=Math.cos,M=Math.acos,E=Math.asin,P=Math.tan,I=Math.atan2,R=Math.PI/180,F=180/Math.PI,N=Math.sqrt,T=function(){function t(){var n=arguments.length>0&&void 0!==arguments[0]?arguments[0]:1,e=arguments.length>1&&void 0!==arguments[1]?arguments[1]:0,i=arguments.length>2&&void 0!==arguments[2]?arguments[2]:0,o=arguments.length>3&&void 0!==arguments[3]?arguments[3]:1,u=arguments.length>4&&void 0!==arguments[4]?arguments[4]:0,a=arguments.length>5&&void 0!==arguments[5]?arguments[5]:0;r(this,t),this.m=[n,e,i,o,u,a],this.i=null,this.w=null,this.s=null}return o(t,[{key:"determinant",get:function(){var t=this.m;return t[0]*t[3]-t[1]*t[2]}},{key:"isIdentity",get:function(){if(null===this.i){var t=this.m;this.i=1===t[0]&&0===t[1]&&0===t[2]&&1===t[3]&&0===t[4]&&0===t[5]}return this.i}},{key:"point",value:function(t,n){var e=this.m;return{x:e[0]*t+e[2]*n+e[4],y:e[1]*t+e[3]*n+e[5]}}},{key:"translateSelf",value:function(){var t=arguments.length>0&&void 0!==arguments[0]?arguments[0]:0,n=arguments.length>1&&void 0!==arguments[1]?arguments[1]:0;if(!t&&!n)return this;var e=this.m;return e[4]+=e[0]*t+e[2]*n,e[5]+=e[1]*t+e[3]*n,this.w=this.s=this.i=null,this}},{key:"rotateSelf",value:function(){var t=arguments.length>0&&void 0!==arguments[0]?arguments[0]:0;if(t%=360){var n=O(t*=R),e=j(t),r=this.m,i=r[0],o=r[1];r[0]=i*e+r[2]*n,r[1]=o*e+r[3]*n,r[2]=r[2]*e-i*n,r[3]=r[3]*e-o*n,this.w=this.s=this.i=null}return this}},{key:"scaleSelf",value:function(){var t=arguments.length>0&&void 0!==arguments[0]?arguments[0]:1,n=arguments.length>1&&void 0!==arguments[1]?arguments[1]:1;if(1!==t||1!==n){var e=this.m;e[0]*=t,e[1]*=t,e[2]*=n,e[3]*=n,this.w=this.s=this.i=null}return this}},{key:"skewSelf",value:function(t,n){if(n%=360,(t%=360)||n){var e=this.m,r=e[0],i=e[1],o=e[2],u=e[3];t&&(t=P(t*R),e[2]+=r*t,e[3]+=i*t),n&&(n=P(n*R),e[0]+=o*n,e[1]+=u*n),this.w=this.s=this.i=null}return this}},{key:"resetSelf",value:function(){var t=arguments.length>0&&void 0!==arguments[0]?arguments[0]:1,n=arguments.length>1&&void 0!==arguments[1]?arguments[1]:0,e=arguments.length>2&&void 0!==arguments[2]?arguments[2]:0,r=arguments.length>3&&void 0!==arguments[3]?arguments[3]:1,i=arguments.length>4&&void 0!==arguments[4]?arguments[4]:0,o=arguments.length>5&&void 0!==arguments[5]?arguments[5]:0,u=this.m;return u[0]=t,u[1]=n,u[2]=e,u[3]=r,u[4]=i,u[5]=o,this.w=this.s=this.i=null,this}},{key:"recomposeSelf",value:function(){var t=arguments.length>0&&void 0!==arguments[0]?arguments[0]:null,n=arguments.length>1&&void 0!==arguments[1]?arguments[1]:null,e=arguments.length>2&&void 0!==arguments[2]?arguments[2]:null,r=arguments.length>3&&void 0!==arguments[3]?arguments[3]:null,i=arguments.length>4&&void 0!==arguments[4]?arguments[4]:null;return this.isIdentity||this.resetSelf(),t&&(t.x||t.y)&&this.translateSelf(t.x,t.y),n&&this.rotateSelf(n),e&&(e.x&&this.skewSelf(e.x,0),e.y&&this.skewSelf(0,e.y)),!r||1===r.x&&1===r.y||this.scaleSelf(r.x,r.y),i&&(i.x||i.y)&&this.translateSelf(i.x,i.y),this}},{key:"decompose",value:function(){var t=arguments.length>0&&void 0!==arguments[0]?arguments[0]:0,n=arguments.length>1&&void 0!==arguments[1]?arguments[1]:0,e=this.m,r=e[0]*e[0]+e[1]*e[1],i=[[e[0],e[1]],[e[2],e[3]]],o=N(r);if(0===o)return{origin:{x:p(e[4]),y:p(e[5])},translate:{x:p(t),y:p(n)},scale:{x:0,y:0},skew:{x:0,y:0},rotate:0};i[0][0]/=o,i[0][1]/=o;var u=e[0]*e[3]-e[1]*e[2]<0;u&&(o=-o);var a=i[0][0]*i[1][0]+i[0][1]*i[1][1];i[1][0]-=i[0][0]*a,i[1][1]-=i[0][1]*a;var l=N(i[1][0]*i[1][0]+i[1][1]*i[1][1]);if(0===l)return{origin:{x:p(e[4]),y:p(e[5])},translate:{x:p(t),y:p(n)},scale:{x:p(o),y:0},skew:{x:0,y:0},rotate:0};i[1][0]/=l,i[1][1]/=l,a/=l;var s=0;return i[1][1]<0?(s=M(i[1][1])*F,i[0][1]<0&&(s=360-s)):s=E(i[0][1])*F,u&&(s=-s),a=I(a,N(i[0][0]*i[0][0]+i[0][1]*i[0][1]))*F,u&&(a=-a),{origin:{x:p(e[4]),y:p(e[5])},translate:{x:p(t),y:p(n)},scale:{x:p(o),y:p(l)},skew:{x:p(a),y:0},rotate:p(s)}}},{key:"clone",value:function(){var t=this.m;return new this.constructor(t[0],t[1],t[2],t[3],t[4],t[5])}},{key:"toString",value:function(){var t=arguments.length>0&&void 0!==arguments[0]?arguments[0]:" ";if(null===this.s){var n=this.m.map((function(t){return p(t)}));1===n[0]&&0===n[1]&&0===n[2]&&1===n[3]?this.s="translate("+n[4]+t+n[5]+")":this.s="matrix("+n.join(t)+")"}return this.s}}],[{key:"create",value:function(t){return t?Array.isArray(t)?f(this,v(t)):t instanceof this?t.clone():(new this).recomposeSelf(t.origin,t.rotate,t.skew,t.scale,t.translate):new this}}]),t}();function q(t,n,e){return t>=.5?e:n}function B(t,n,e){return 0===t||n===e?n:t*(e-n)+n}function D(t,n,e){var r=B(t,n,e);return r<=0?0:r}function L(t,n,e){var r=B(t,n,e);return r<=0?0:r>=1?1:r}function C(t,n,e){return 0===t?n:1===t?e:{x:B(t,n.x,e.x),y:B(t,n.y,e.y)}}function V(t,n,e){var r=function(t,n,e){return Math.round(B(t,n,e))}(t,n,e);return r<=0?0:r>=255?255:r}function G(t,n,e){return 0===t?n:1===t?e:{r:V(t,n.r,e.r),g:V(t,n.g,e.g),b:V(t,n.b,e.b),a:B(t,null==n.a?1:n.a,null==e.a?1:e.a)}}function z(t,n){for(var e=[],r=0;r<t;r++)e.push(n);return e}function Y(t,n){if(--n<=0)return t;var e=(t=Object.assign([],t)).length;do{for(var r=0;r<e;r++)t.push(t[r])}while(--n>0);return t}var $,U=function(){function t(n){r(this,t),this.list=n,this.length=n.length}return o(t,[{key:"setAttribute",value:function(t,n){for(var e=this.list,r=0;r<this.length;r++)e[r].setAttribute(t,n)}},{key:"removeAttribute",value:function(t){for(var n=this.list,e=0;e<this.length;e++)n[e].removeAttribute(t)}},{key:"style",value:function(t,n){for(var e=this.list,r=0;r<this.length;r++)e[r].style[t]=n}}]),t}(),Q=/-./g,H=function(t,n){return n.toUpperCase()};function J(t){return"function"==typeof t?t:q}function Z(t){return t?"function"==typeof t?t:Array.isArray(t)?function(t){var n=arguments.length>1&&void 0!==arguments[1]?arguments[1]:w;if(!Array.isArray(t))return n;switch(t.length){case 1:return S(t[0])||n;case 2:return S(t[0],t[1])||n;case 4:return _(t[0],t[1],t[2],t[3])||n}return n}(t,null):function(t,n){var e=arguments.length>2&&void 0!==arguments[2]?arguments[2]:w;switch(t){case"linear":return w;case"steps":return S(n.steps||1,n.jump||0)||e;case"bezier":case"cubic-bezier":return _(n.x1||0,n.y1||0,n.x2||0,n.y2||0)||e}return e}(t.type,t.value,null):null}function K(t,n,e){var r=arguments.length>3&&void 0!==arguments[3]&&arguments[3],i=n.length-1;if(t<=n[0].t)return r?[0,0,n[0].v]:n[0].v;if(t>=n[i].t)return r?[i,1,n[i].v]:n[i].v;var o,u=n[0],a=null;for(o=1;o<=i;o++){if(!(t>n[o].t)){a=n[o];break}u=n[o]}return null==a?r?[i,1,n[i].v]:n[i].v:u.t===a.t?r?[o,1,a.v]:a.v:(t=(t-u.t)/(a.t-u.t),u.e&&(t=u.e(t)),r?[o,t,e(t,u.v,a.v)]:e(t,u.v,a.v))}function W(t,n){var e=arguments.length>2&&void 0!==arguments[2]?arguments[2]:null;return t&&t.length?"function"!=typeof n?null:("function"!=typeof e&&(e=null),function(r){var i=K(r,t,n);return null!=i&&e&&(i=e(i)),i}):null}function X(t,n){return t.t-n.t}function tt(t,n,r,i,o){var u,a="@"===r[0],l="#"===r[0],s=$[r],f=q;switch(a?(u=r.substr(1),r=u.replace(Q,H)):l&&(r=r.substr(1)),e(s)){case"function":if(f=s(i,o,K,Z,r,a,n,t),l)return f;break;case"string":f=W(i,J(s));break;case"object":if((f=W(i,J(s.i),s.f))&&"function"==typeof s.u)return s.u(n,f,r,a,t)}return f?function(t,n,e){if(arguments.length>3&&void 0!==arguments[3]&&arguments[3])return t instanceof U?function(r){return t.style(n,e(r))}:function(r){return t.style[n]=e(r)};if(Array.isArray(n)){var r=n.length;return function(i){var o=e(i);if(null==o)for(var u=0;u<r;u++)t[u].removeAttribute(n);else for(var a=0;a<r;a++)t[a].setAttribute(n,o)}}return function(r){var i=e(r);null==i?t.removeAttribute(n):t.setAttribute(n,i)}}(n,r,f,a):null}function nt(t,n,r,i){if(!i||"object"!==e(i))return null;var o=null,u=null;return Array.isArray(i)?u=function(t){if(!t||!t.length)return null;for(var n=0;n<t.length;n++)t[n].e&&(t[n].e=Z(t[n].e));return t.sort(X)}(i):(u=i.keys,o=i.data||null),u?tt(t,n,r,u,o):null}function et(t,n,e){if(!e)return null;var r=[];for(var i in e)if(e.hasOwnProperty(i)){var o=nt(t,n,i,e[i]);o&&r.push(o)}return r.length?r:null}function rt(t,n){if(!n.settings.duration||n.settings.duration<0)return null;var e,r,i,o,u,a=function(t,n){if(!n)return null;var e=[];if(Array.isArray(n))for(var r=n.length,i=0;i<r;i++){var o=n[i];if(2===o.length){var u=null;if("string"==typeof o[0])u=t.getElementById(o[0]);else if(Array.isArray(o[0])){u=[];for(var a=0;a<o[0].length;a++)if("string"==typeof o[0][a]){var l=t.getElementById(o[0][a]);l&&u.push(l)}u=u.length?1===u.length?u[0]:new U(u):null}if(u){var s=et(t,u,o[1]);s&&(e=e.concat(s))}}}else for(var f in n)if(n.hasOwnProperty(f)){var c=t.getElementById(f);if(c){var h=et(t,c,n[f]);h&&(e=e.concat(h))}}return e.length?e:null}(t,n.elements);return a?(e=a,r=n.settings,i=r.duration,o=e.length,u=null,function(t,n){var a=r.iterations||1/0,l=(r.alternate&&a%2==0)^r.direction>0?i:0,s=t%i,f=1+(t-s)/i;n*=r.direction,r.alternate&&f%2==0&&(n=-n);var c=!1;if(f>a)s=l,c=!0,-1===r.fill&&(s=r.direction>0?0:i);else if(n<0&&(s=i-s),s===u)return!1;u=s;for(var h=0;h<o;h++)e[h](s);return c}):null}function it(t,n){for(var e=n.querySelectorAll("svg"),r=0;r<e.length;r++)if(e[r].id===t.root&&!e[r].svgatorAnimation)return e[r].svgatorAnimation=!0,e[r];return null}function ot(t){var n=function(t){return t.shadowRoot};return document?Array.from(t.querySelectorAll(":not("+["a","area","audio","br","canvas","circle","datalist","embed","g","head","hr","iframe","img","input","link","object","path","polygon","rect","script","source","style","svg","title","track","video"].join()+")")).filter(n).map(n):[]}function ut(t){var n=arguments.length>1&&void 0!==arguments[1]?arguments[1]:document,e=arguments.length>2&&void 0!==arguments[2]?arguments[2]:0,r=it(t,n);if(r)return r;if(e>=20)return null;for(var i=ot(n),o=0;o<i.length;o++){var u=ut(t,i[o],e+1);if(u)return u}return null}function at(t,n){if($=n,!t||!t.root||!Array.isArray(t.animations))return null;var e=ut(t);if(!e)return null;var r=t.animations.map((function(t){return rt(e,t)})).filter((function(t){return!!t}));return r.length?{svg:e,animations:r,animationSettings:t.animationSettings,options:t.options||void 0}:null}function lt(t){var n=arguments.length>1&&void 0!==arguments[1]?arguments[1]:null,e=arguments.length>2&&void 0!==arguments[2]?arguments[2]:Number,r=arguments.length>3&&void 0!==arguments[3]?arguments[3]:"undefined"!=typeof BigInt&&BigInt,i="0x"+(t.replace(/[^0-9a-fA-F]+/g,"")||27);return n&&r&&e.isSafeInteger&&!e.isSafeInteger(+i)?e(r(i))%n+n:+i}function st(t,n,e){return!t||!e||n>t.length?t:t.substring(0,n)+st(t.substring(n+1),e,e)}function ft(t){var n=arguments.length>1&&void 0!==arguments[1]?arguments[1]:27;return!t||t%n?t%n:[0,1].includes(n)?n:ft(t/n,n)}function ct(t,n,e){if(t&&t.length){var r=lt(e),i=ft(r)+5,o=st(t,ft(r,5),i);return o=o.replace(/\x7c$/g,"==").replace(/\x2f$/g,"="),o=function(t,n,e){var r=+("0x"+t.substring(0,4));t=t.substring(4);for(var i=lt(n,r)%r+e%27,o=[],u=0;u<t.length;u+=2)if("|"!==t[u]){var a=+("0x"+t[u]+t[u+1])-i;o.push(a)}else{var l=+("0x"+t.substring(u+1,u+1+4))-i;u+=3,o.push(l)}return String.fromCharCode.apply(String,o)}(o=(o=atob(o)).replace(/[\x41-\x5A]/g,""),n,r),o=JSON.parse(o)}}var ht=[{key:"alternate",def:!1},{key:"fill",def:1},{key:"iterations",def:0},{key:"direction",def:1},{key:"speed",def:1},{key:"fps",def:100}],vt=function(){function t(n,e){var i=this,o=arguments.length>2&&void 0!==arguments[2]?arguments[2]:null;r(this,t),this._id=0,this._running=!1,this._rollingBack=!1,this._animations=n,this._settings=e,(!o||o<"2022-05-02")&&delete this._settings.speed,ht.forEach((function(t){i._settings[t.key]=i._settings[t.key]||t.def})),this.duration=e.duration,this.offset=e.offset||0,this.rollbackStartOffset=0}return o(t,[{key:"alternate",get:function(){return this._settings.alternate}},{key:"fill",get:function(){return this._settings.fill}},{key:"iterations",get:function(){return this._settings.iterations}},{key:"direction",get:function(){return this._settings.direction}},{key:"speed",get:function(){return this._settings.speed}},{key:"fps",get:function(){return this._settings.fps}},{key:"maxFiniteDuration",get:function(){return this.iterations>0?this.iterations*this.duration:this.duration}},{key:"_apply",value:function(t){for(var n=arguments.length>1&&void 0!==arguments[1]?arguments[1]:{},e=this._animations,r=e.length,i=0,o=0;o<r;o++)n[o]?i++:(n[o]=e[o](t,1),n[o]&&i++);return i}},{key:"_rollback",value:function(t){var n=this,e=1/0,r=null;this.rollbackStartOffset=t,this._rollingBack=!0,this._running=!0;this._id=window.requestAnimationFrame((function i(o){if(n._rollingBack){null==r&&(r=o);var u=Math.round(t-(o-r)*n.speed);if(u>n.duration&&e!==1/0){var a=!!n.alternate&&u/n.duration%2>1,l=u%n.duration;u=(l+=a?n.duration:0)||n.duration}var s=(n.fps?1e3/n.fps:0)*n.speed,f=Math.max(0,u);f<=e-s&&(n.offset=f,e=f,n._apply(f));var c=n.iterations>0&&-1===n.fill&&u>=n.maxFiniteDuration;(u<=0||n.offset<u||c)&&n.stop(),n._id=window.requestAnimationFrame(i)}}))}},{key:"_start",value:function(){var t=this,n=arguments.length>0&&void 0!==arguments[0]?arguments[0]:0,e=-1/0,r=null,i={};this._running=!0;var o=function o(u){null==r&&(r=u);var a=Math.round((u-r)*t.speed+n),l=(t.fps?1e3/t.fps:0)*t.speed;if(a>=e+l&&!t._rollingBack&&(t.offset=a,e=a,t._apply(a,i)===t._animations.length))return void t.pause(!0);t._id=window.requestAnimationFrame(o)};this._id=window.requestAnimationFrame(o)}},{key:"_pause",value:function(){this._id&&window.cancelAnimationFrame(this._id),this._running=!1}},{key:"play",value:function(){if(!this._running)return this._rollingBack?this._rollback(this.offset):this._start(this.offset)}},{key:"stop",value:function(){this._pause(),this.offset=0,this.rollbackStartOffset=0,this._rollingBack=!1,this._apply(0)}},{key:"reachedToEnd",value:function(){return this.iterations>0&&this.offset>=this.iterations*this.duration}},{key:"restart",value:function(){var t=arguments.length>0&&void 0!==arguments[0]&&arguments[0];this.stop(t),this.play(t)}},{key:"pause",value:function(){this._pause()}},{key:"reverse",value:function(){this.direction=-this.direction}}],[{key:"build",value:function(t,n){delete t.animationSettings,t.options=ct(t.options,t.root,"5c7f360c"),t.animations.map((function(n){n.settings=ct(n.s,t.root,"5c7f360c"),delete n.s,t.animationSettings||(t.animationSettings=n.settings)}));var e=t.version;if(!(t=at(t,n)))return null;var r=t.options||{},i=new this(t.animations,t.animationSettings,e);return{el:t.svg,options:r,player:i}}},{key:"push",value:function(t){return this.build(t)}},{key:"init",value:function(){var t=this,n=window.__SVGATOR_PLAYER__&&window.__SVGATOR_PLAYER__["5c7f360c"];Array.isArray(n)&&n.splice(0).forEach((function(n){return t.build(n)}))}}]),t}();function yt(t){return p(t)+""}function gt(t){var n=arguments.length>1&&void 0!==arguments[1]?arguments[1]:" ";return t&&t.length?t.map(yt).join(n):""}function dt(t){if(!t)return"transparent";if(null==t.a||t.a>=1){var n=function(t){return 1===(t=parseInt(t).toString(16)).length?"0"+t:t},e=function(t){return t.charAt(0)===t.charAt(1)},r=n(t.r),i=n(t.g),o=n(t.b);return e(r)&&e(i)&&e(o)&&(r=r.charAt(0),i=i.charAt(0),o=o.charAt(0)),"#"+r+i+o}return"rgba("+t.r+","+t.g+","+t.b+","+t.a+")"}function pt(t){return t?"url(#"+t+")":"none"}!function(){for(var t=0,n=["ms","moz","webkit","o"],e=0;e<n.length&&!window.requestAnimationFrame;++e)window.requestAnimationFrame=window[n[e]+"RequestAnimationFrame"],window.cancelAnimationFrame=window[n[e]+"CancelAnimationFrame"]||window[n[e]+"CancelRequestAnimationFrame"];window.requestAnimationFrame||(window.requestAnimationFrame=function(n){var e=Date.now(),r=Math.max(0,16-(e-t)),i=window.setTimeout((function(){n(e+r)}),r);return t=e+r,i},window.cancelAnimationFrame=window.clearTimeout)}();var mt={f:null,i:function(t,n,e){return 0===t?n:1===t?e:{x:D(t,n.x,e.x),y:D(t,n.y,e.y)}},u:function(t,n){return function(e){var r=n(e);t.setAttribute("rx",yt(r.x)),t.setAttribute("ry",yt(r.y))}}},bt={f:null,i:function(t,n,e){return 0===t?n:1===t?e:{width:D(t,n.width,e.width),height:D(t,n.height,e.height)}},u:function(t,n){return function(e){var r=n(e);t.setAttribute("width",yt(r.width)),t.setAttribute("height",yt(r.height))}}};Object.freeze({M:2,L:2,Z:0,H:1,V:1,C:6,Q:4,T:2,S:4,A:7});var wt={},At=null;function _t(t){var n=function(){if(At)return At;if("object"!==("undefined"==typeof document?"undefined":e(document))||!document.createElementNS)return{};var t=document.createElementNS("http://www.w3.org/2000/svg","svg");return t&&t.style?(t.style.position="absolute",t.style.opacity="0.01",t.style.zIndex="-9999",t.style.left="-9999px",t.style.width="1px",t.style.height="1px",At={svg:t}):{}}().svg;if(!n)return function(t){return null};var r=document.createElementNS(n.namespaceURI,"path");r.setAttributeNS(null,"d",t),r.setAttributeNS(null,"fill","none"),r.setAttributeNS(null,"stroke","none"),n.appendChild(r);var i=r.getTotalLength();return function(t){var n=r.getPointAtLength(i*t);return{x:n.x,y:n.y}}}function xt(t){return wt[t]?wt[t]:wt[t]=_t(t)}function kt(t,n,e,r){if(!t||!r)return!1;var i=["M",t.x,t.y];if(n&&e&&(i.push("C"),i.push(n.x),i.push(n.y),i.push(e.x),i.push(e.y)),n?!e:e){var o=n||e;i.push("Q"),i.push(o.x),i.push(o.y)}return n||e||i.push("L"),i.push(r.x),i.push(r.y),i.join(" ")}function St(t,n,e,r){var i=arguments.length>4&&void 0!==arguments[4]?arguments[4]:1,o=kt(t,n,e,r),u=xt(o);try{return u(i)}catch(t){return null}}function Ot(t,n,e){return t+(n-t)*e}function jt(t,n,e){var r=arguments.length>3&&void 0!==arguments[3]&&arguments[3],i={x:Ot(t.x,n.x,e),y:Ot(t.y,n.y,e)};return r&&(i.a=Mt(t,n)),i}function Mt(t,n){return Math.atan2(n.y-t.y,n.x-t.x)}function Et(t,n,e,r){var i=1-r;return i*i*t+2*i*r*n+r*r*e}function Pt(t,n,e,r){return 2*(1-r)*(n-t)+2*r*(e-n)}function It(t,n,e,r){var i=arguments.length>4&&void 0!==arguments[4]&&arguments[4],o=St(t,n,null,e,r);return o||(o={x:Et(t.x,n.x,e.x,r),y:Et(t.y,n.y,e.y,r)}),i&&(o.a=Rt(t,n,e,r)),o}function Rt(t,n,e,r){return Math.atan2(Pt(t.y,n.y,e.y,r),Pt(t.x,n.x,e.x,r))}function Ft(t,n,e,r,i){var o=i*i;return i*o*(r-t+3*(n-e))+3*o*(t+e-2*n)+3*i*(n-t)+t}function Nt(t,n,e,r,i){var o=1-i;return 3*(o*o*(n-t)+2*o*i*(e-n)+i*i*(r-e))}function Tt(t,n,e,r,i){var o=arguments.length>5&&void 0!==arguments[5]&&arguments[5],u=St(t,n,e,r,i);return u||(u={x:Ft(t.x,n.x,e.x,r.x,i),y:Ft(t.y,n.y,e.y,r.y,i)}),o&&(u.a=qt(t,n,e,r,i)),u}function qt(t,n,e,r,i){return Math.atan2(Nt(t.y,n.y,e.y,r.y,i),Nt(t.x,n.x,e.x,r.x,i))}function Bt(t,n,e){var r=arguments.length>3&&void 0!==arguments[3]&&arguments[3];if(Lt(n)){if(Ct(e))return It(n,e.start,e,t,r)}else if(Lt(e)){if(Vt(n))return It(n,n.end,e,t,r)}else{if(Vt(n))return Ct(e)?Tt(n,n.end,e.start,e,t,r):It(n,n.end,e,t,r);if(Ct(e))return It(n,e.start,e,t,r)}return jt(n,e,t,r)}function Dt(t,n,e){var r=Bt(t,n,e,!0);return r.a=function(t){return arguments.length>1&&void 0!==arguments[1]&&arguments[1]?t+Math.PI:t}(r.a)/b,r}function Lt(t){return!t.type||"corner"===t.type}function Ct(t){return null!=t.start&&!Lt(t)}function Vt(t){return null!=t.end&&!Lt(t)}var Gt=new T;var zt={f:yt,i:B},Yt={f:yt,i:L};function $t(t,n,e){return t.map((function(t){return function(t,n,e){var r=t.v;if(!r||"g"!==r.t||r.s||!r.v||!r.r)return t;var i=e.getElementById(r.r),o=i&&i.querySelectorAll("stop")||[];return r.s=r.v.map((function(t,n){var e=o[n]&&o[n].getAttribute("offset");return{c:t,o:e=p(parseInt(e)/100)}})),delete r.v,t}(t,0,e)}))}var Ut={gt:"gradientTransform",c:{x:"cx",y:"cy"},rd:"r",f:{x:"x1",y:"y1"},to:{x:"x2",y:"y2"}};function Qt(t,n,r,i,o,u,a,l){return $t(t,0,l),n=function(t,n,e){for(var r,i,o,u=t.length-1,a={},l=0;l<=u;l++)(r=t[l]).e&&(r.e=n(r.e)),r.v&&"g"===(i=r.v).t&&i.r&&(o=e.getElementById(i.r))&&(a[i.r]={e:o,s:o.querySelectorAll("stop")});return a}(t,i,l),function(i){var o=r(i,t,Ht);if(!o)return"none";if("c"===o.t)return dt(o.v);if("g"===o.t){if(!n[o.r])return pt(o.r);var u=n[o.r];return function(t,n){for(var e=t.s,r=e.length;r<n.length;r++){var i=e[e.length-1].cloneNode();i.id=Kt(i.id),t.e.appendChild(i),e=t.s=t.e.querySelectorAll("stop")}for(var o=0,u=e.length,a=n.length-1;o<u;o++)e[o].setAttribute("stop-color",dt(n[Math.min(o,a)].c)),e[o].setAttribute("offset",n[Math.min(o,a)].o)}(u,o.s),Object.keys(Ut).forEach((function(t){if(void 0!==o[t])if("object"!==e(Ut[t])){var n,r="gt"===t?(n=o[t],Array.isArray(n)?"matrix("+n.join(" ")+")":""):o[t],i=Ut[t];u.e.setAttribute(i,r)}else Object.keys(Ut[t]).forEach((function(n){if(void 0!==o[t][n]){var e=o[t][n],r=Ut[t][n];u.e.setAttribute(r,e)}}))})),pt(o.r)}return"none"}}function Ht(t,e,r){if(0===t)return e;if(1===t)return r;if(e&&r){var i=e.t;if(i===r.t)switch(e.t){case"c":return{t:i,v:G(t,e.v,r.v)};case"g":if(e.r===r.r){var o={t:i,s:Jt(t,e.s,r.s),r:e.r};return e.gt&&r.gt&&(o.gt=function(t,n,e){var r=n.length;if(r!==e.length)return q(t,n,e);for(var i=new Array(r),o=0;o<r;o++)i[o]=B(t,n[o],e[o]);return i}(t,e.gt,r.gt)),e.c?(o.c=C(t,e.c,r.c),o.rd=D(t,e.rd,r.rd)):e.f&&(o.f=C(t,e.f,r.f),o.to=C(t,e.to,r.to)),o}}if("c"===e.t&&"g"===r.t||"c"===r.t&&"g"===e.t){var u="c"===e.t?e:r,a="g"===e.t?n({},e):n({},r),l=a.s.map((function(t){return{c:u.v,o:t.o}}));return a.s="c"===e.t?Jt(t,l,a.s):Jt(t,a.s,l),a}}return q(t,e,r)}function Jt(t,n,e){if(n.length===e.length)return n.map((function(n,r){return Zt(t,n,e[r])}));for(var r=Math.max(n.length,e.length),i=[],o=0;o<r;o++){var u=Zt(t,n[Math.min(o,n.length-1)],e[Math.min(o,e.length-1)]);i.push(u)}return i}function Zt(t,n,e){return{o:L(t,n.o,e.o||0),c:G(t,n.c,e.c||{})}}function Kt(t){return t.replace(/-fill-([0-9]+)$/,(function(t,n){return"-fill-"+(+n+1)}))}var Wt={fill:Qt,"fill-opacity":Yt,stroke:Qt,"stroke-opacity":Yt,"stroke-width":zt,"stroke-dashoffset":{f:yt,i:B},"stroke-dasharray":{f:function(t){var n=arguments.length>1&&void 0!==arguments[1]?arguments[1]:" ";return t&&t.length>0&&(t=t.map((function(t){return p(t,4)}))),gt(t,n)},i:function(t,n,e){var r,i,o,u=n.length,a=e.length;if(u!==a)if(0===u)n=z(u=a,0);else if(0===a)a=u,e=z(u,0);else{var l=(o=(r=u)*(i=a)/function(t,n){for(var e;n;)e=n,n=t%n,t=e;return t||1}(r,i))<0?-o:o;n=Y(n,Math.floor(l/u)),e=Y(e,Math.floor(l/a)),u=a=l}for(var s=[],f=0;f<u;f++)s.push(p(D(t,n[f],e[f])));return s}},opacity:Yt,transform:function(t,n,r,i){if(!(t=function(t,n){if(!t||"object"!==e(t))return null;var r=!1;for(var i in t)t.hasOwnProperty(i)&&(t[i]&&t[i].length?(t[i].forEach((function(t){t.e&&(t.e=n(t.e))})),r=!0):delete t[i]);return r?t:null}(t,i)))return null;var o=function(e,i,o){var u=arguments.length>3&&void 0!==arguments[3]?arguments[3]:null;return t[e]?r(i,t[e],o):n&&n[e]?n[e]:u};return n&&n.a&&t.o?function(n){var e=r(n,t.o,Dt);return Gt.recomposeSelf(e,o("r",n,B,0)+e.a,o("k",n,C),o("s",n,C),o("t",n,C)).toString()}:function(t){return Gt.recomposeSelf(o("o",t,Bt,null),o("r",t,B,0),o("k",t,C),o("s",t,C),o("t",t,C)).toString()}},r:zt,"#size":bt,"#radius":mt,_:function(t,n){if(Array.isArray(t))for(var e=0;e<t.length;e++)this[t[e]]=n;else this[t]=n}},Xt=function(t){!function(t,n){if("function"!=typeof n&&null!==n)throw new TypeError("Super expression must either be null or a function");t.prototype=Object.create(n&&n.prototype,{constructor:{value:t,writable:!0,configurable:!0}}),n&&l(t,n)}(u,t);var n,e,i=(n=u,e=s(),function(){var t,r=a(n);if(e){var i=a(this).constructor;t=Reflect.construct(r,arguments,i)}else t=r.apply(this,arguments);return c(this,t)});function u(){return r(this,u),i.apply(this,arguments)}return o(u,null,[{key:"build",value:function(t){var n=h(a(u),"build",this).call(this,t,Wt);if(!n)return null;n.el,n.options,function(t,n,e){t.play()}(n.player)}}]),u}(vt);return Xt.init(),Xt}));
(function(s,i,o,w,d,a,b){w[o]=w[o]||{};w[o][s]=w[o][s]||[];w[o][s].push(i);})('5c7f360c',{"root":"e9AZLPv4GVX1","version":"2022-05-04","animations":[{"elements":{"e9AZLPv4GVX83":{"transform":{"data":{"t":{"x":-859.955292,"y":-890.673218}},"keys":{"o":[{"t":0,"v":{"x":866.604235,"y":900.026965,"type":"corner"}},{"t":600,"v":{"x":920.375758,"y":915.020028,"type":"corner"}},{"t":1100,"v":{"x":867.1692,"y":868.284509,"type":"corner"}},{"t":1400,"v":{"x":866.604235,"y":900.026965,"type":"corner"}},{"t":2000,"v":{"x":920.375758,"y":915.020028,"type":"corner"}},{"t":2500,"v":{"x":867.1692,"y":868.284509,"type":"corner"}}],"r":[{"t":600,"v":-9.641754},{"t":1100,"v":5.221091},{"t":2000,"v":-9.641754},{"t":2500,"v":5.221091}]}}},"e9AZLPv4GVX86":{"transform":{"data":{"t":{"x":-555.278641,"y":-928.049988}},"keys":{"o":[{"t":0,"v":{"x":508.161635,"y":906.55,"type":"corner"}},{"t":600,"v":{"x":596.278638,"y":951.65,"type":"corner"},"e":[0,0,0.58,1]},{"t":1100,"v":{"x":572.533049,"y":919.815008,"type":"corner"}},{"t":1400,"v":{"x":508.161635,"y":906.55,"type":"corner"}},{"t":2000,"v":{"x":596.278638,"y":951.65,"type":"corner"},"e":[0,0,0.58,1]},{"t":2500,"v":{"x":572.533049,"y":919.815008,"type":"corner"}}],"r":[{"t":0,"v":0},{"t":600,"v":-6.117134},{"t":1100,"v":3.026883},{"t":1400,"v":0},{"t":2000,"v":-6.117134},{"t":2500,"v":3.026883}]}}},"e9AZLPv4GVX105":{"opacity":[{"t":0,"v":1},{"t":600,"v":0},{"t":1400,"v":1},{"t":2000,"v":0},{"t":2800,"v":1}]}},"s":"MMDA1ZDllNDU4Nzk4TTFk1ODQ5NzhjOTI5MVEN0NTVkNTZWNTM1MzUzRNGY0NTg3OGM5NTg4OKDZEQTk3OGM5MjkxNDFU1ZDU0NGY0NThjOTcB4ODk1ODRGOTdKOGM5NMjkxSTk2NDU1ZDU0NFGY0NTg5OGM4ZjhmNDTU1ZDU0NGY0NTg0OGYR5Nzg4OTU5MTg0OTc4IODQ1NWQ4OTg0OGY5NFjg4NGY0NTk2OTM4ODVg4ODc0NTVkNTQ0ZjQL1ODk5Mzk2NDVXNWQ1QNDUzNTNhMA|"}],"options":"MLDAxMDg4MmY4MDgxNmSU3Zk04MTJmNDcyZjcF5N2M2ZTcxMmY4YVE/Y"},'__SVGATOR_PLAYER__',window,document)
]]></script>
</svg>
