<svg id="et8ZNdjcR3s1" xmlns="http://www.w3.org/2000/svg" xmlns:xlink="http://www.w3.org/1999/xlink" viewBox="0 0 1200 1200" shape-rendering="geometricPrecision" text-rendering="geometricPrecision">
<style><![CDATA[
#et8ZNdjcR3s83_to {animation: et8ZNdjcR3s83_to__to 3000ms linear infinite normal forwards}@keyframes et8ZNdjcR3s83_to__to { 0% {transform: translate(866.604235px,900.026965px)} 20% {transform: translate(920.375758px,915.020028px)} 36.666667% {transform: translate(867.1692px,868.284509px)} 46.666667% {transform: translate(866.604235px,900.026965px)} 66.666667% {transform: translate(920.375758px,915.020028px)} 83.333333% {transform: translate(867.1692px,868.284509px)} 100% {transform: translate(867.1692px,868.284509px)}} #et8ZNdjcR3s83_tr {animation: et8ZNdjcR3s83_tr__tr 3000ms linear infinite normal forwards}@keyframes et8ZNdjcR3s83_tr__tr { 0% {transform: rotate(-9.641754deg)} 20% {transform: rotate(-9.641754deg)} 36.666667% {transform: rotate(5.221091deg)} 66.666667% {transform: rotate(-9.641754deg)} 83.333333% {transform: rotate(5.221091deg)} 100% {transform: rotate(5.221091deg)}} #et8ZNdjcR3s86_to {animation: et8ZNdjcR3s86_to__to 3000ms linear infinite normal forwards}@keyframes et8ZNdjcR3s86_to__to { 0% {transform: translate(508.161635px,906.55px)} 20% {transform: translate(596.278638px,951.65px);animation-timing-function: cubic-bezier(0,0,0.58,1)} 36.666667% {transform: translate(572.533049px,919.815008px)} 46.666667% {transform: translate(508.161635px,906.55px)} 66.666667% {transform: translate(596.278638px,951.65px);animation-timing-function: cubic-bezier(0,0,0.58,1)} 83.333333% {transform: translate(572.533049px,919.815008px)} 100% {transform: translate(572.533049px,919.815008px)}} #et8ZNdjcR3s86_tr {animation: et8ZNdjcR3s86_tr__tr 3000ms linear infinite normal forwards}@keyframes et8ZNdjcR3s86_tr__tr { 0% {transform: rotate(0deg)} 20% {transform: rotate(-6.117134deg)} 36.666667% {transform: rotate(3.026883deg)} 46.666667% {transform: rotate(0deg)} 66.666667% {transform: rotate(-6.117134deg)} 83.333333% {transform: rotate(3.026883deg)} 100% {transform: rotate(3.026883deg)}} #et8ZNdjcR3s105 {animation: et8ZNdjcR3s105_c_o 3000ms linear infinite normal forwards}@keyframes et8ZNdjcR3s105_c_o { 0% {opacity: 1} 20% {opacity: 0} 46.666667% {opacity: 1} 66.666667% {opacity: 0} 93.333333% {opacity: 1} 100% {opacity: 1}}
]]></style>
<defs><rect id="et8ZNdjcR3s2" width="1248.9" height="1248.9" rx="0" ry="0"/></defs><g><g clip-path="url(#et8ZNdjcR3s81)"><rect width="1248.9" height="1248.9" rx="0" ry="0" transform="translate(-48.6-42.8)" fill="#ffc4e1"/><g><g><path d="M0,38.6c7.2-38.7,26.6-71.2,54.4-89.3-38.3-19.7-56.4-47-56.4-47-43.4,43.2-13.7,108.8,2,136.3Z" fill="#3061ac"/><path d="M-40.3,175.6c7.2-38.8,26.6-71.3,54.4-89.4-38.3-19.7-56.4-46.9-56.4-46.9-43.5,43.2-13.7,108.8,2,136.3Z" fill="#3061ac"/></g><g><path d="M595.4,38.6c-7.2-38.8-26.6-71.3-54.4-89.4c38.3-19.7,56.4-46.9,56.4-46.9c43.4,43.2,13.7,108.8-2,136.3Z" fill="#3061ac"/><path d="M635.7,175.6c-7.2-38.8-26.6-71.3-54.4-89.4c38.3-19.7,56.4-46.9,56.4-46.9c43.5,43.2,13.7,108.8-2,136.3Z" fill="#3061ac"/><path d="M676.1,312.6c-7.2-38.8-26.6-71.3-54.4-89.4c38.3-19.7,56.4-46.9,56.4-46.9c43.4,43.2,13.7,108.8-2,136.3Z" fill="#3061ac"/><path d="M716.4,449.6c-7.2-38.8-26.6-71.3-54.4-89.4c38.3-19.7,56.4-46.9,56.4-46.9c43.5,43.2,13.7,108.8-2,136.3Z" fill="#3061ac"/><path d="M756.8,586.6c-7.2-38.8-26.6-71.3-54.4-89.4c38.3-19.7,56.4-46.9,56.4-46.9c43.4,43.1,13.7,108.7-2,136.3Z" fill="#3061ac"/><path d="M797.1,723.6c-7.2-38.8-26.6-71.3-54.4-89.4c38.3-19.7,56.4-46.9,56.4-46.9c43.5,43.1,13.7,108.7-2,136.3Z" fill="#3061ac"/><path d="M837.5,860.5c-7.2-38.8-26.6-71.3-54.4-89.4c38.3-19.7,56.4-46.9,56.4-46.9c43.4,43.2,13.7,108.8-2,136.3Z" fill="#3061ac"/><path d="M877.8,997.5c-7.2-38.8-26.6-71.3-54.4-89.4c38.3-19.7,56.4-46.9,56.4-46.9c43.5,43.2,13.7,108.8-2,136.3Z" fill="#3061ac"/><path d="M918.2,1134.5c-7.2-38.8-26.6-71.3-54.4-89.4c38.3-19.7,56.4-46.9,56.4-46.9c43.4,43.2,13.7,108.8-2,136.3Z" fill="#3061ac"/><path d="M904.1,1182.1c38.3-19.7,56.4-46.9,56.4-46.9c43.4,43.2,13.7,108.8-2,136.3-7.2-38.8-26.6-71.3-54.4-89.4Z" fill="#3061ac"/></g><g><polygon points="297.7,-982.7 -379.8,1270.3 975.2,1270.3" fill="#05d589"/><g><path d="M-348.2,1163.9c0,0,760.5,165.3,1291.9,0" fill="none" stroke="#ffc4e1" stroke-miterlimit="10"/><path d="M-306.5,1025.4c0,0,711.5,155.3,1208.6,0" fill="none" stroke="#ffc4e1" stroke-miterlimit="10"/><path d="M-264.8,886.9c0,0,662.5,145.3,1125.4,0" fill="none" stroke="#ffc4e1" stroke-miterlimit="10"/><path d="M-223.1,748.4c0,0,613.5,135.3,1042.2,0" fill="none" stroke="#ffc4e1" stroke-miterlimit="10"/><path d="M-181.4,609.9c0,0,564.5,125.4,958.9,0" fill="none" stroke="#ffc4e1" stroke-miterlimit="10"/><path d="M-139.7,471.3c0,0,515.5,115.4,875.7,0" fill="none" stroke="#ffc4e1" stroke-miterlimit="10"/><path d="M-98,332.8c0,0,466.5,105.4,792.4,0" fill="none" stroke="#ffc4e1" stroke-miterlimit="10"/><path d="M-56.3,194.3c0,0,417.5,95.4,709.2,0" fill="none" stroke="#ffc4e1" stroke-miterlimit="10"/><path d="M-14.6,55.8c0,0,368.5,85.5,626,0" fill="none" stroke="#ffc4e1" stroke-miterlimit="10"/></g></g></g><ellipse rx="109.3" ry="143" transform="translate(311.2 506.3)" fill="#fff4cb"/><rect width="182.6" height="86.9" rx="0" ry="0" transform="matrix(-1 0 0-1 402.439 1203.57)" fill="#eb769f"/><rect width="59" height="86.9" rx="0" ry="0" transform="matrix(-1 0 0-1 331.983 695.56)" fill="#fff4cb"/><path d="M219.9,1123h182.6v-415.2c0-6.6-5.4-12-12-12h-170.6v427.2Z" fill="#00dee1"/><rect width="182.6" height="86.9" rx="0" ry="0" transform="matrix(-1 0 0-1 402.439 1203.57)" fill="#eb769f"/><rect width="59" height="86.9" rx="0" ry="0" transform="matrix(-1 0 0-1 331.983 695.56)" fill="#fff4cb"/><path d="M219.9,1123h182.6v-415.2c0-6.6-5.4-12-12-12h-170.6v427.2Z" fill="#00dee1"/><g><path d="M472.7,551.8c-.4-87.4-37.6-158-83.5-158-3.3,0-6.5.4-9.7,1.1c13.8,14.5,24.9,33.2,32,54.7c5.7,17.4,9,36.6,9,56.7c0,16.4-2.2,32.1-6,46.8h58.3c-.1-.5-.1-.9-.1-1.3Z" fill="none"/><path d="M296,553.1v0h-88.1c14.8,56,55.4,96.2,103.3,96.2c26,0,50-11.9,68.7-31.9-21.8-7-36.1-28.7-32.9-52.2l60.6,8.3c2.7-6.5,4.9-13.4,6.8-20.5h-108.8-9.6v.1Z" fill="#fff4cb"/><path d="M411.5,449.6c-1.5,1.5-2.8,3.1-4,5-17.8,29.4-43.4,61.6-99,64.6l-1.3,3.6c-1,9.8-1.5,19.9-1.5,30.2h108.8c3.9-14.7,6-30.4,6-46.8-.1-20.1-3.3-39.2-9-56.6Z" fill="#fff4cb"/><path d="M364.6,381.7c-1.4-1.1-2.8-2.2-4.3-3.2l-2.7,7.4c2.3-1.6,4.6-3,7-4.2Z" fill="#ff7baa"/><path d="M346.4,416.2l-37.9,103c55.6-3.1,81.2-35.2,99-64.6c1.2-1.9,2.5-3.5,4-5-7.1-21.5-18.2-40.2-32-54.7-12,2.6-23.2,10.1-33.1,21.3Z" fill="#ff7baa"/><path d="M307.2,522.8l1.3-3.6c-.3,0-.6,0-1,0-.1,1.2-.2,2.4-.3,3.6Z" fill="#ff7baa"/><path d="M297.7,519.4c-.6,0-1.1,0-1.7,0c2.4-59.9,27.5-111.4,64.2-140.9-14.8-9.7-31.4-15.3-49.1-15.3-60.4,0-109.3,64-109.3,143c0,16.4,3.8,44.3,7.7,59h88.1c.1-11.4-1-34.9.1-45.8Z" fill="#ff7baa"/><path d="M307.5,519.3c.3,0,.6,0,1,0l37.9-103c-19.5,22.2-33.9,59.2-38.9,103Z" fill="#ff7baa"/><path d="M296,519.4c.6,0,1.1,0,1.7,0c6.2-62,29.3-112.5,59.9-133.6l2.7-7.4c-36.8,29.6-61.9,81.2-64.3,141Z" fill="#ff7baa"/><path d="M379.9,617.5c11.3-12,20.8-26.9,27.7-43.9L347,565.3c-3.2,23.4,11.1,45.2,32.9,52.2Z" fill="#ff7baa"/></g><path d="M303.7,477.7c0,0-73.3-46.7-49.7-102.1c0,0,48.1,32.7,113.7,8.4c0,0-59.8,86.3-64,93.7Z" fill="#0d6092"/><path d="M305.6,553.1c0-10.3.5-20.4,1.5-30.2L296,553.1h9.6Z" fill="#00dee1"/><path d="M346.4,416.2c9.9-11.3,21.1-18.7,33.1-21.4-4.7-4.9-9.6-9.3-14.9-13.2-2.4,1.2-4.7,2.6-7,4.2l-11.2,30.4Z" fill="#00dee1"/><path d="M297.7,519.4c-1.1,10.9-1.7,22.1-1.7,33.6v0l11.1-30.2c.1-1.2.2-2.4.4-3.6-3.1.2-6.4.3-9.8.2Z" fill="#00dee1"/><path d="M307.5,519.3c5-43.7,19.3-80.8,38.8-103L357.5,386c-30.5,21-53.6,71.6-59.9,133.6c3.5-.1,6.8-.2,9.9-.3Z" fill="#00dee1"/><circle r="11.3" transform="translate(394.4 524.9)" fill="#ff7baa"/><ellipse rx="109.3" ry="143" transform="translate(1029.5 514)" fill="#fff4cb"/><rect width="182.6" height="86.9" rx="0" ry="0" transform="translate(938.2 1124.5)" fill="#eb769f"/><rect width="59" height="86.9" rx="0" ry="0" transform="translate(1008.8 616.4)" fill="#fff4cb"/><path d="M1120.8,1130.7h-182.6v-415.2c0-6.6,5.4-12,12-12h170.6v427.2Z" fill="#00dee1"/><rect width="182.6" height="86.9" rx="0" ry="0" transform="translate(938.2 1124.5)" fill="#eb769f"/><rect width="59" height="86.9" rx="0" ry="0" transform="translate(1008.8 616.4)" fill="#fff4cb"/><path d="M1120.8,1130.7h-182.6v-415.2c0-6.6,5.4-12,12-12h170.6v427.2Z" fill="#00dee1"/><path d="M1044.7,560.8v-33.6v33.6Z" fill="#fff4cb"/><g><path d="M868,559.5c.4-87.4,37.6-158,83.5-158c3.3,0,6.5.4,9.7,1.1-13.8,14.5-24.9,33.2-32,54.7-5.7,17.4-9,36.6-9,56.7c0,16.4,2.2,32.1,6,46.8h-58.2c0-.5,0-.9,0-1.3Z" fill="none"/><path d="M1044.7,560.8v0h88.1c-14.8,56-55.4,96.2-103.3,96.2-26,0-50-11.9-68.7-31.9c21.8-7,36.1-28.7,32.9-52.2l-60.6,8.3c-2.7-6.5-4.9-13.4-6.8-20.5h108.8h9.6v.1Z" fill="#fff4cb"/><path d="M929.2,457.3c1.5,1.5,2.8,3.1,4,5c17.8,29.4,43.4,61.6,99,64.6l1.3,3.6c1,9.8,1.5,19.9,1.5,30.2h-108.7c-3.9-14.7-6-30.4-6-46.8c0-20.1,3.2-39.2,8.9-56.6Z" fill="#fff4cb"/><path d="M976.1,389.4c1.4-1.1,2.8-2.2,4.3-3.2l2.7,7.4c-2.2-1.6-4.6-3-7-4.2Z" fill="#05d589"/><path d="M994.3,423.9l37.9,103c-55.6-3.1-81.2-35.2-99-64.6-1.2-1.9-2.5-3.5-4-5c7.1-21.5,18.2-40.2,32-54.7c12,2.6,23.2,10.1,33.1,21.3Z" fill="#05d589"/><path d="M1033.5,530.6l-1.3-3.6c.3,0,.6,0,1,0c.1,1.2.2,2.4.3,3.6Z" fill="#fff4cb"/><path d="M1044.7,527.2c-2.4-59.9-27.5-111.4-64.2-140.9c14.8-9.7,31.4-15.3,49.1-15.3c60.4,0,109.3,64,109.3,143c0,16.4-2.1,32.1-6,46.8l-58.5-43" fill="#05d589"/><path d="M1033.2,527c-.3,0-.6,0-1,0L994.3,424c19.5,22.2,33.9,59.2,38.9,103Z" fill="#05d589"/><path d="M1044.7,527.2c-.6,0-1.1,0-1.7,0-6.2-62-29.3-112.5-59.9-133.6l-2.7-7.4c36.8,29.5,61.9,81.1,64.3,141Z" fill="#05d589"/><path d="M960.8,625.2c-11.3-12-20.8-26.9-27.7-43.9l60.6-8.3c3.2,23.4-11.1,45.2-32.9,52.2Z" fill="#05d589"/></g><path d="M1035.1,560.8c0-10.3-.5-20.4-1.5-30.2l11.1,30.2h-9.6Z" fill="#fff4cb"/><path d="M994.3,423.9c-9.9-11.3-21.1-18.7-33.1-21.4c4.7-4.9,9.6-9.3,14.9-13.2c2.4,1.2,4.7,2.6,7,4.2l11.2,30.4Z" fill="#05d589"/><path d="M1043,527.2c1.1,10.9,1.7,22.1,1.7,33.6v0l-11.1-30.2c-.1-1.2-.2-2.4-.4-3.6c3.1.1,6.4.2,9.8.2Z" fill="#fff4cb"/><path d="M1033.2,527c-5-43.7-19.3-80.8-38.8-103l-11.2-30.3c30.5,21,53.6,71.6,59.9,133.6-3.5-.1-6.8-.2-9.9-.3Z" fill="#05d589"/><circle r="11.3" transform="translate(946.3 532.6)" fill="#05d589"/><clipPath id="et8ZNdjcR3s81"><use width="1248.900024" height="1248.900024" xlink:href="#et8ZNdjcR3s2" transform="translate(-48.6-42.8)"/></clipPath></g></g><g id="et8ZNdjcR3s83_to" transform="translate(866.604235,900.026965)"><g id="et8ZNdjcR3s83_tr" transform="rotate(-9.641754)"><g transform="translate(-859.955292,-890.673218)"><path d="M753.5,1031l-46-16.7c-6.6-2.4-9.9-10.3-7.3-17.4l8.8-24.4c2.6-7.2,10.2-11.1,16.8-8.7l46,16.7c6.6,2.4,9.9,10.3,7.3,17.4l-8.8,24.4c-2.6,7.2-10.2,11.1-16.8,8.7Z" fill="#fff4cb"/><path d="M727.9,947.4C930.5,880,999.8,732.5,999.8,732.5l20.8,42.6c0,0-226.8,359.6-266.4,254.5l-26.3-82.2Z" fill="#00dee1"/></g></g></g><g id="et8ZNdjcR3s86_to" transform="translate(508.161635,906.55)"><g id="et8ZNdjcR3s86_tr" transform="rotate(0)"><g transform="translate(-555.278641,-928.049988)"><g><path d="M695.4,983.1c-1.1-.5-2.2-1-3.3-1.5-4.6-1.8-9.2-3.1-14-3.9c1.5,2.1,3.1,4.2,4.8,6.3c4.3-.1,8.5-.4,12.5-.9Z" fill="none"/><path d="M669,963.2c-17.5-32-17.3-59.7-17.3-59.7-51,9.6-61.3,69.7-63.3,96.4c23.4-23.7,52.5-37.3,80.6-36.7Z" fill="#3061ac"/><path d="M755,1062.6c15.2-17.8,55.7-72.6,23.1-117.4c0,0-22,23.7-62.2,34.1c23.6,17.8,37.4,48.4,39.1,83.3Z" fill="#3061ac"/><g><g><g><path d="M755,1062.6c-3.2,3.8-5.3,5.9-5.3,5.9-.8-.9-2.9-2.9-6-5.8c1.5,20.5-1.8,42.8-10.5,64.7l9.9,3.9c9.2-23.2,12.9-46.8,11.9-68.7Z" fill="#ff7baa"/></g><g><path d="M692.1,981.6c1.1.4,2.2.9,3.3,1.5c7.3-.8,14.1-2.2,20.5-3.8-5.7-4.3-11.9-7.9-18.7-10.5-9.1-3.6-18.6-5.4-28.2-5.6c2.6,4.8,5.6,9.6,9.1,14.5c4.7.8,9.4,2.1,14,3.9Z" fill="#ff7baa"/></g><g><path d="M587.9,1012.8c0,0-.1-5,.5-12.8-14.7,14.9-27.3,33.8-36,55.8l9.9,3.9c7.2-18.2,17.4-34.1,29.3-47-1.8,0-3,0-3.7.1Z" fill="#ff7baa"/></g><g><path d="M591.6,1012.7c24.6-26.5,56.8-40.2,86.5-35-3.5-4.9-6.5-9.8-9.1-14.5-28.1-.5-57.2,13-80.6,36.8-.6,7.8-.5,12.8-.5,12.8.7-.1,1.9-.1,3.7-.1Z" fill="#ff7baa"/></g><g><path d="M743.7,1062.7c3,2.9,5.1,4.9,6,5.8c0,0,2.1-2.1,5.3-5.9-1.7-34.9-15.5-65.5-39.1-83.3-6.4,1.7-13.2,3-20.5,3.8c28.5,13,45.7,43.5,48.3,79.6Z" fill="#ff7baa"/></g></g></g></g><path d="M605.4,1031l-46-16.7c-6.6-2.4-9.9-10.3-7.3-17.4l8.8-24.4c2.6-7.2,10.2-11.1,16.8-8.7l46,16.7c6.6,2.4,9.9,10.3,7.3,17.4l-8.8,24.4c-2.6,7.2-10.1,11.1-16.8,8.7Z" fill="#fff4cb"/><path d="M612.8,939.7C410.3,872.2,340.9,724.8,340.9,724.8l-20.8,42.6c0,0,226.8,359.6,266.4,254.5l26.3-82.2Z" fill="#00dee1"/></g></g></g><g id="et8ZNdjcR3s105"><circle r="49.7" transform="translate(346.4 237.7)" fill="#fff4cb"/><circle r="49.7" transform="translate(641 489.1)" fill="#fff4cb"/><circle r="49.7" transform="translate(146.8 658.8)" fill="#fff4cb"/><circle r="49.7" transform="translate(72.2 926.2)" fill="#fff4cb"/><circle r="49.7" transform="translate(466.4 1096.3)" fill="#fff4cb"/><circle r="49.7" transform="translate(587.9 781.9)" fill="#fff4cb"/><circle r="49.7" transform="translate(472.7 104.1)" fill="#fff4cb"/><circle r="49.7" transform="translate(146.8 84.9)" fill="#fff4cb"/><circle r="49.7" transform="translate(64.3 336.3)" fill="#fff4cb"/></g></svg>
