<svg cache-id="8b03b79b8abc4de6ae470a50b22cd4b4" id="eqn5ZPG9o721" xmlns="http://www.w3.org/2000/svg" xmlns:xlink="http://www.w3.org/1999/xlink" viewBox="0 0 1920 1444" shape-rendering="geometricPrecision" text-rendering="geometricPrecision">
<style><![CDATA[
#eqn5ZPG9o722_to {animation: eqn5ZPG9o722_to__to 3000ms linear infinite normal forwards}@keyframes eqn5ZPG9o722_to__to { 0% {transform: translate(1672.714661px,953.712982px)} 6.666667% {transform: translate(1661.714661px,953.712982px)} 13.333333% {transform: translate(1650.714661px,953.712982px)} 20% {transform: translate(1638.714661px,953.712982px)} 26.666667% {transform: translate(1628.714661px,953.712982px)} 33.333333% {transform: translate(1617.714661px,953.712982px)} 40% {transform: translate(1606.714661px,953.712982px)} 46.666667% {transform: translate(1596.714661px,953.712982px)} 53.333333% {transform: translate(1606.714661px,953.712982px)} 60% {transform: translate(1616.714661px,953.712982px)} 66.666667% {transform: translate(1628.714661px,953.712982px)} 73.333333% {transform: translate(1638.714661px,953.712982px)} 80% {transform: translate(1649.714661px,953.712982px)} 86.666667% {transform: translate(1662.714661px,953.712982px)} 93.333333% {transform: translate(1674.714661px,953.712982px)} 100% {transform: translate(1685.714661px,953.712982px)}} #eqn5ZPG9o723_to {animation: eqn5ZPG9o723_to__to 3000ms linear infinite normal forwards}@keyframes eqn5ZPG9o723_to__to { 0% {transform: translate(839.513px,80.50008px)} 6.666667% {transform: translate(828.513px,80.50008px)} 13.333333% {transform: translate(817.513px,80.50008px)} 20% {transform: translate(805.513px,80.50008px)} 26.666667% {transform: translate(795.513px,80.50008px)} 33.333333% {transform: translate(784.513px,80.50008px)} 40% {transform: translate(773.513px,80.50008px)} 46.666667% {transform: translate(763.513px,80.50008px)} 53.333333% {transform: translate(773.513px,80.50008px)} 60% {transform: translate(783.513px,80.50008px)} 66.666667% {transform: translate(795.513px,80.50008px)} 73.333333% {transform: translate(805.513px,80.50008px)} 80% {transform: translate(816.513px,80.50008px)} 86.666667% {transform: translate(829.513px,80.50008px)} 93.333333% {transform: translate(841.513px,80.50008px)} 100% {transform: translate(852.513px,80.50008px)}} #eqn5ZPG9o724_to {animation: eqn5ZPG9o724_to__to 3000ms linear infinite normal forwards}@keyframes eqn5ZPG9o724_to__to { 0% {transform: translate(267.000023px,1329.998291px)} 6.666667% {transform: translate(280.000023px,1329.998291px)} 13.333333% {transform: translate(292.000023px,1329.998291px)} 20% {transform: translate(303.000023px,1329.998291px)} 26.666667% {transform: translate(313.000023px,1329.998291px)} 33.333333% {transform: translate(326.000023px,1329.998291px)} 40% {transform: translate(338.000023px,1329.998291px)} 46.666667% {transform: translate(328.000023px,1329.998291px)} 53.333333% {transform: translate(317.000023px,1329.998291px)} 60% {transform: translate(305.000023px,1329.998291px)} 66.666667% {transform: translate(293.000023px,1329.998291px)} 73.333333% {transform: translate(279.000023px,1329.998291px)} 80% {transform: translate(268.000023px,1329.998291px)} 86.666667% {transform: translate(256.000023px,1329.998291px)} 93.333333% {transform: translate(245.000023px,1329.998291px)} 100% {transform: translate(245.000023px,1329.998291px)}} #eqn5ZPG9o725_to {animation: eqn5ZPG9o725_to__to 3000ms linear infinite normal forwards}@keyframes eqn5ZPG9o725_to__to { 0% {transform: translate(402.38974px,466.769211px)} 6.666667% {transform: translate(391.38974px,466.769211px)} 13.333333% {transform: translate(380.38974px,466.769211px)} 20% {transform: translate(368.38974px,466.769211px)} 26.666667% {transform: translate(358.38974px,466.769211px)} 33.333333% {transform: translate(347.38974px,466.769211px)} 40% {transform: translate(336.38974px,466.769211px)} 46.666667% {transform: translate(326.38974px,466.769211px)} 53.333333% {transform: translate(336.38974px,466.769211px)} 60% {transform: translate(346.38974px,466.769211px)} 66.666667% {transform: translate(358.38974px,466.769211px)} 73.333333% {transform: translate(368.38974px,466.769211px)} 80% {transform: translate(379.38974px,466.769211px)} 86.666667% {transform: translate(392.38974px,466.769211px)} 93.333333% {transform: translate(404.38974px,466.769211px)} 100% {transform: translate(415.38974px,466.769211px)}} #eqn5ZPG9o726_to {animation: eqn5ZPG9o726_to__to 3000ms linear infinite normal forwards}@keyframes eqn5ZPG9o726_to__to { 0% {transform: translate(315.389789px,924.769684px)} 6.666667% {transform: translate(304.389789px,924.769684px)} 13.333333% {transform: translate(293.389789px,924.769684px)} 20% {transform: translate(281.389789px,924.769684px)} 26.666667% {transform: translate(271.389789px,924.769684px)} 33.333333% {transform: translate(260.389789px,924.769684px)} 40% {transform: translate(249.389789px,924.769684px)} 46.666667% {transform: translate(239.389789px,924.769684px)} 53.333333% {transform: translate(249.389789px,924.769684px)} 60% {transform: translate(259.389789px,924.769684px)} 66.666667% {transform: translate(271.389789px,924.769684px)} 73.333333% {transform: translate(281.389789px,924.769684px)} 80% {transform: translate(292.389789px,924.769684px)} 86.666667% {transform: translate(305.389789px,924.769684px)} 93.333333% {transform: translate(317.389789px,924.769684px)} 100% {transform: translate(328.389789px,924.769684px)}} #eqn5ZPG9o727_to {animation: eqn5ZPG9o727_to__to 3000ms linear infinite normal forwards}@keyframes eqn5ZPG9o727_to__to { 0% {transform: translate(1112.999542px,1087.000824px)} 6.666667% {transform: translate(1125.999542px,1087.000824px)} 13.333333% {transform: translate(1137.999542px,1087.000824px)} 20% {transform: translate(1148.999542px,1087.000824px)} 26.666667% {transform: translate(1158.999542px,1087.000824px)} 33.333333% {transform: translate(1171.999542px,1087.000824px)} 40% {transform: translate(1183.999542px,1087.000824px)} 46.666667% {transform: translate(1173.999542px,1087.000824px)} 53.333333% {transform: translate(1162.999542px,1087.000824px)} 60% {transform: translate(1150.999542px,1087.000824px)} 66.666667% {transform: translate(1138.999542px,1087.000824px)} 73.333333% {transform: translate(1124.999542px,1087.000824px)} 80% {transform: translate(1113.999542px,1087.000824px)} 86.666667% {transform: translate(1101.999542px,1087.000824px)} 93.333333% {transform: translate(1090.999542px,1087.000824px)} 100% {transform: translate(1090.999542px,1087.000824px)}} #eqn5ZPG9o728_to {animation: eqn5ZPG9o728_to__to 3000ms linear infinite normal forwards}@keyframes eqn5ZPG9o728_to__to { 0% {transform: translate(1413.004272px,134.494102px)} 6.666667% {transform: translate(1426.004272px,134.494102px)} 13.333333% {transform: translate(1438.004272px,134.494102px)} 20% {transform: translate(1449.004272px,134.494102px)} 26.666667% {transform: translate(1459.004272px,134.494102px)} 33.333333% {transform: translate(1472.004272px,134.494102px)} 40% {transform: translate(1484.004272px,134.494102px)} 46.666667% {transform: translate(1474.004272px,134.494102px)} 53.333333% {transform: translate(1463.004272px,134.494102px)} 60% {transform: translate(1451.004272px,134.494102px)} 66.666667% {transform: translate(1439.004272px,134.494102px)} 73.333333% {transform: translate(1425.004272px,134.494102px)} 80% {transform: translate(1414.004272px,134.494102px)} 86.666667% {transform: translate(1402.004272px,134.494102px)} 93.333333% {transform: translate(1391.004272px,134.494102px)} 100% {transform: translate(1391.004272px,134.494102px)}} #eqn5ZPG9o7213_to {animation: eqn5ZPG9o7213_to__to 3000ms linear infinite normal forwards}@keyframes eqn5ZPG9o7213_to__to { 0% {transform: translate(214.714756px,178.704475px)} 6.666667% {transform: translate(227.714756px,178.704475px)} 13.333333% {transform: translate(239.714756px,178.704475px)} 20% {transform: translate(250.714756px,178.704475px)} 26.666667% {transform: translate(260.714756px,178.704475px)} 33.333333% {transform: translate(273.714756px,178.704475px)} 40% {transform: translate(285.714756px,178.704475px)} 46.666667% {transform: translate(275.714756px,178.704475px)} 53.333333% {transform: translate(264.714756px,178.704475px)} 60% {transform: translate(252.714756px,178.704475px)} 66.666667% {transform: translate(240.714756px,178.704475px)} 73.333333% {transform: translate(226.714756px,178.704475px)} 80% {transform: translate(215.714756px,178.704475px)} 86.666667% {transform: translate(203.714756px,178.704475px)} 93.333333% {transform: translate(192.714756px,178.704475px)} 100% {transform: translate(192.714756px,178.704475px)}} #eqn5ZPG9o7218_to {animation: eqn5ZPG9o7218_to__to 3000ms linear infinite normal forwards}@keyframes eqn5ZPG9o7218_to__to { 0% {transform: translate(432.727462px,232.704475px)} 6.666667% {transform: translate(421.727462px,232.704475px)} 13.333333% {transform: translate(410.727462px,232.704475px)} 20% {transform: translate(398.727462px,232.704475px)} 26.666667% {transform: translate(388.727462px,232.704475px)} 33.333333% {transform: translate(377.727462px,232.704475px)} 40% {transform: translate(366.727462px,232.704475px)} 46.666667% {transform: translate(356.727462px,232.704475px)} 53.333333% {transform: translate(366.727462px,232.704475px)} 60% {transform: translate(376.727462px,232.704475px)} 66.666667% {transform: translate(388.727462px,232.704475px)} 73.333333% {transform: translate(398.727462px,232.704475px)} 80% {transform: translate(409.727462px,232.704475px)} 86.666667% {transform: translate(422.727462px,232.704475px)} 93.333333% {transform: translate(434.727462px,232.704475px)} 100% {transform: translate(445.727462px,232.704475px)}} #eqn5ZPG9o7223_to {animation: eqn5ZPG9o7223_to__to 3000ms linear infinite normal forwards}@keyframes eqn5ZPG9o7223_to__to { 0% {transform: translate(1874.022034px,648.893799px)} 6.666667% {transform: translate(1863.022034px,648.893799px)} 13.333333% {transform: translate(1852.022034px,648.893799px)} 20% {transform: translate(1840.022034px,648.893799px)} 26.666667% {transform: translate(1830.022034px,648.893799px)} 33.333333% {transform: translate(1819.022034px,648.893799px)} 40% {transform: translate(1808.022034px,648.893799px)} 46.666667% {transform: translate(1798.022034px,648.893799px)} 53.333333% {transform: translate(1808.022034px,648.893799px)} 60% {transform: translate(1818.022034px,648.893799px)} 66.666667% {transform: translate(1830.022034px,648.893799px)} 73.333333% {transform: translate(1840.022034px,648.893799px)} 80% {transform: translate(1851.022034px,648.893799px)} 86.666667% {transform: translate(1864.022034px,648.893799px)} 93.333333% {transform: translate(1876.022034px,648.893799px)} 100% {transform: translate(1887.022034px,648.893799px)}} #eqn5ZPG9o7224_to {animation: eqn5ZPG9o7224_to__to 3000ms linear infinite normal forwards}@keyframes eqn5ZPG9o7224_to__to { 0% {transform: translate(1680.714661px,125.711628px)} 6.666667% {transform: translate(1693.714661px,125.711628px)} 13.333333% {transform: translate(1705.714661px,125.711628px)} 20% {transform: translate(1716.714661px,125.711628px)} 26.666667% {transform: translate(1726.714661px,125.711628px)} 33.333333% {transform: translate(1739.714661px,125.711628px)} 40% {transform: translate(1751.714661px,125.711628px)} 46.666667% {transform: translate(1741.714661px,125.711628px)} 53.333333% {transform: translate(1730.714661px,125.711628px)} 60% {transform: translate(1718.714661px,125.711628px)} 66.666667% {transform: translate(1706.714661px,125.711628px)} 73.333333% {transform: translate(1692.714661px,125.711628px)} 80% {transform: translate(1681.714661px,125.711628px)} 86.666667% {transform: translate(1669.714661px,125.711628px)} 93.333333% {transform: translate(1658.714661px,125.711628px)} 100% {transform: translate(1658.714661px,125.711628px)}} #eqn5ZPG9o7225_to {animation: eqn5ZPG9o7225_to__to 3000ms linear infinite normal forwards}@keyframes eqn5ZPG9o7225_to__to { 0% {transform: translate(1439.004395px,647.495544px)} 6.666667% {transform: translate(1428.004395px,647.495544px)} 13.333333% {transform: translate(1417.004395px,647.495544px)} 20% {transform: translate(1405.004395px,647.495544px)} 26.666667% {transform: translate(1395.004395px,647.495544px)} 33.333333% {transform: translate(1384.004395px,647.495544px)} 40% {transform: translate(1373.004395px,647.495544px)} 46.666667% {transform: translate(1363.004395px,647.495544px)} 53.333333% {transform: translate(1373.004395px,647.495544px)} 60% {transform: translate(1383.004395px,647.495544px)} 66.666667% {transform: translate(1395.004395px,647.495544px)} 73.333333% {transform: translate(1405.004395px,647.495544px)} 80% {transform: translate(1416.004395px,647.495544px)} 86.666667% {transform: translate(1429.004395px,647.495544px)} 93.333333% {transform: translate(1441.004395px,647.495544px)} 100% {transform: translate(1452.004395px,647.495544px)}} #eqn5ZPG9o7230_to {animation: eqn5ZPG9o7230_to__to 3000ms linear infinite normal forwards}@keyframes eqn5ZPG9o7230_to__to { 0% {transform: translate(1658.517273px,385.995453px)} 6.666667% {transform: translate(1647.517273px,385.995453px)} 13.333333% {transform: translate(1636.517273px,385.995453px)} 20% {transform: translate(1624.517273px,385.995453px)} 26.666667% {transform: translate(1614.517273px,385.995453px)} 33.333333% {transform: translate(1603.517273px,385.995453px)} 40% {transform: translate(1592.517273px,385.995453px)} 46.666667% {transform: translate(1582.517273px,385.995453px)} 53.333333% {transform: translate(1592.517273px,385.995453px)} 60% {transform: translate(1602.517273px,385.995453px)} 66.666667% {transform: translate(1614.517273px,385.995453px)} 73.333333% {transform: translate(1624.517273px,385.995453px)} 80% {transform: translate(1635.517273px,385.995453px)} 86.666667% {transform: translate(1648.517273px,385.995453px)} 93.333333% {transform: translate(1660.517273px,385.995453px)} 100% {transform: translate(1671.517273px,385.995453px)}} #eqn5ZPG9o7231_to {animation: eqn5ZPG9o7231_to__to 3000ms linear infinite normal forwards}@keyframes eqn5ZPG9o7231_to__to { 0% {transform: translate(276.503689px,728.995422px)} 6.666667% {transform: translate(265.503689px,728.995422px)} 13.333333% {transform: translate(254.503689px,728.995422px)} 20% {transform: translate(242.503689px,728.995422px)} 26.666667% {transform: translate(232.503689px,728.995422px)} 33.333333% {transform: translate(221.503689px,728.995422px)} 40% {transform: translate(210.503689px,728.995422px)} 46.666667% {transform: translate(200.503689px,728.995422px)} 53.333333% {transform: translate(210.503689px,728.995422px)} 60% {transform: translate(220.503689px,728.995422px)} 66.666667% {transform: translate(232.503689px,728.995422px)} 73.333333% {transform: translate(242.503689px,728.995422px)} 80% {transform: translate(253.503689px,728.995422px)} 86.666667% {transform: translate(266.503689px,728.995422px)} 93.333333% {transform: translate(278.503689px,728.995422px)} 100% {transform: translate(289.503689px,728.995422px)}} #eqn5ZPG9o7232_to {animation: eqn5ZPG9o7232_to__to 3000ms linear infinite normal forwards}@keyframes eqn5ZPG9o7232_to__to { 0% {transform: translate(1775.377991px,502.769211px)} 6.666667% {transform: translate(1788.377991px,502.769211px)} 13.333333% {transform: translate(1800.377991px,502.769211px)} 20% {transform: translate(1811.377991px,502.769211px)} 26.666667% {transform: translate(1821.377991px,502.769211px)} 33.333333% {transform: translate(1834.377991px,502.769211px)} 40% {transform: translate(1846.377991px,502.769211px)} 46.666667% {transform: translate(1836.377991px,502.769211px)} 53.333333% {transform: translate(1825.377991px,502.769211px)} 60% {transform: translate(1813.377991px,502.769211px)} 66.666667% {transform: translate(1801.377991px,502.769211px)} 73.333333% {transform: translate(1787.377991px,502.769211px)} 80% {transform: translate(1776.377991px,502.769211px)} 86.666667% {transform: translate(1764.377991px,502.769211px)} 93.333333% {transform: translate(1753.377991px,502.769211px)} 100% {transform: translate(1753.377991px,502.769211px)}} #eqn5ZPG9o7233_to {animation: eqn5ZPG9o7233_to__to 3000ms linear infinite normal forwards}@keyframes eqn5ZPG9o7233_to__to { 0% {transform: translate(243.072189px,745.059662px)} 6.666667% {transform: translate(256.072189px,745.059662px)} 13.333333% {transform: translate(268.072189px,745.059662px)} 20% {transform: translate(279.072189px,745.059662px)} 26.666667% {transform: translate(289.072189px,745.059662px)} 33.333333% {transform: translate(302.072189px,745.059662px)} 40% {transform: translate(314.072189px,745.059662px)} 46.666667% {transform: translate(304.072189px,745.059662px)} 53.333333% {transform: translate(293.072189px,745.059662px)} 60% {transform: translate(281.072189px,745.059662px)} 66.666667% {transform: translate(269.072189px,745.059662px)} 73.333333% {transform: translate(255.072189px,745.059662px)} 80% {transform: translate(244.072189px,745.059662px)} 86.666667% {transform: translate(232.072189px,745.059662px)} 93.333333% {transform: translate(221.072189px,745.059662px)} 100% {transform: translate(221.072189px,745.059662px)}}
]]></style>
<g id="eqn5ZPG9o722_to" transform="translate(1672.714661,953.712982)"><path d="M1455.76,1065.12c58.22.95,116.45-2.75,174.66.07c31.89,1.55,63.9-5.15,95.37-2.08c55.05,5.37,110.02-3.33,164.24,2.16c16.75-.52,33.67,1.43,43.29-16.34c10.55-19.48,8.98-38.42-2.25-56.883-13.73-22.56-34.32-31.68-60.25-30.24-24.78,1.39-30.05-3.33-32.18-28.12-3.92-45.65-47.13-81.34-88.79-69.77-21.59,6-36.82,4.83-57.56-6.34-64.47-34.69-142.32-9.27-178.97,54.72-6.28,10.97-13.73,16.09-26.35,17.8-42.86,5.8-75.08,37.31-80.68,77.113-5.83,41.38,7.74,57.23,49.47,57.91Z" transform="translate(-1672.714661,-953.712982)" fill="#fff" fill-opacity="0.81"/></g><g id="eqn5ZPG9o723_to" transform="translate(839.513,80.50008)"><path d="M635.976,178.73c52.737.838,105.484-2.425,158.212.062c28.887,1.366,57.883-4.541,86.389-1.834c49.866,4.735,99.66-2.937,148.773,1.904c15.17-.458,30.5,1.261,39.21-14.407c9.56-17.176,8.14-33.877-2.03-50.153-12.44-19.8922-31.09-27.9336-54.58-26.6639-22.447,1.2256-27.221-2.9362-29.15-24.7943-3.551-40.2512-42.692-71.72023-80.429-61.51858-19.556,5.2904-33.352,4.25877-52.139-5.59019-58.399-30.58733-128.918-8.17363-162.116,48.24847-5.689,9.6726-12.437,14.1871-23.869,15.6948-38.824,5.1141-68.01,32.8975-73.082,67.9907-5.281,36.486,7.011,50.461,44.811,51.061Z" transform="translate(-832.500244,-80.50008)" fill="#fff" fill-opacity="0.81"/></g><g id="eqn5ZPG9o724_to" transform="translate(267.000023,1329.998291)"><path d="M501.817,1402.27c-16.331.57-20.218-6.13-21.176-20.9-2.422-37.28-38.184-64.29-75.25-57.46-11.917,2.2-18.613.23-25.891-10.04-25.793-36.44-65.636-49.57-107.04-34.83-14.813,5.27-22.176,1.55-29.992-10.13-13.931-20.84-32.835-37.28-57.014-45.35-47.088-15.74-89.8799-7.11-125.115,27.82-34.5031,34.21-43.1477,75.13-28.2592,120.67c2.7775,8.51,11.2391,17.9,9.1936,24.6-2.5944,8.47-16.5141,3.63-24.7711,7.68-11.86348,5.82-27.764,9.68-25.23409,26.01c2.66982,17.2,19.37769,13.25,31.39189,13.3c79.6639.36,159.3279.19,239.0029.19c79.082,0,158.165,0,237.258,0c11.056,0,22.231.3,32.748-3.64c12.456-4.67,14.792-14.06,6.266-24.03-9.398-10.99-22.704-14.38-36.118-13.91v.02Z" transform="translate(-267.000023,-1329.998291)" fill="#fff"/></g><g id="eqn5ZPG9o725_to" transform="translate(402.38974,466.769211)"><path d="M613.499,535.719c-15.17.55-18.78-5.84-19.67-19.94-2.25-35.57-35.47-61.34-69.9-54.82-11.07,2.1-17.29.22-24.05-9.58-23.96-34.77-60.97-47.3-99.43-33.23-13.76,5.03-20.6,1.48-27.86-9.67-12.94-19.88-30.5-35.57-52.96-43.27-43.74-15.01-83.49-6.78-116.22,26.55-32.05,32.64-40.08,71.68-26.25,115.13c2.58,8.12,10.44,17.08,8.54,23.47-2.41,8.08-15.34,3.47-23.01,7.33-11.02,5.55-25.79,9.24-23.44,24.82c2.48,16.41,18,12.64,29.16,12.69c74,.34,148,.18,222.01.18c73.46,0,146.92,0,220.39,0c10.27,0,20.65.28,30.42-3.48c11.57-4.45,13.74-13.41,5.82-22.92-8.73-10.49-21.09-13.72-33.55-13.27v.01Z" transform="translate(-395.376984,-466.769211)" fill="#fff"/></g><g id="eqn5ZPG9o726_to" transform="translate(315.389789,924.769684)"><path d="M526.499,993.719c-15.17.55-18.78-5.84-19.67-19.94-2.25-35.57-35.47-61.34-69.9-54.82-11.07,2.1-17.29.22-24.05-9.58-23.96-34.77-60.97-47.3-99.43-33.23-13.76,5.03-20.6,1.48-27.86-9.67-12.94-19.88-30.5-35.57-52.96-43.27-43.74-15.01-83.49-6.78-116.22,26.55-32.0499,32.64-40.0799,71.68-26.2499,115.13c2.58,8.12,10.4399,17.08,8.54,23.47-2.41,8.08-15.34,3.47-23.01,7.33-11.02,5.551-25.79,9.241-23.44,24.821c2.48,16.41,18,12.64,29.16,12.69c73.9999.34,147.9999.18,222.0099.18c73.46,0,146.92,0,220.39,0c10.27,0,20.65.28,30.42-3.48c11.57-4.45,13.74-13.41,5.82-22.92-8.73-10.491-21.09-13.721-33.55-13.271v.01Z" transform="translate(-308.377033,-924.769684)" fill="#fff"/></g><g id="eqn5ZPG9o727_to" transform="translate(1112.999542,1087.000824)"><path d="M1268.69,1138.98c-10.82.41-13.4-4.4-14.04-15.03-1.6-26.82-25.31-46.25-49.89-41.33-7.9,1.58-12.34.17-17.17-7.22-17.1-26.22-43.52-35.66-70.97-25.05-9.82,3.79-14.7,1.11-19.89-7.29-9.23-14.99-21.77-26.82-37.8-32.62-31.22-11.321-59.593-5.12-82.955,20.01-22.877,24.61-28.609,54.04-18.737,86.8c1.841,6.12,7.452,12.87,6.095,17.69-1.72,6.09-10.949,2.62-16.424,5.53-7.866,4.18-18.409,6.96-16.731,18.71c1.77,12.37,12.848,9.53,20.814,9.56c52.818.26,105.638.14,158.468.14c52.44,0,104.87,0,157.31,0c7.33,0,14.74.21,21.72-2.62c8.26-3.36,9.8-10.11,4.15-17.28-6.23-7.91-15.05-10.35-23.95-10.01v.01Z" transform="translate(-1112.999542,-1087.000824)" fill="#fff"/></g><g id="eqn5ZPG9o728_to" transform="translate(1413.004272,134.494102)"><g transform="translate(-1413.004272,-134.494102)" clip-path="url(#eqn5ZPG9o7211)"><g><path d="M1410.25,236.44c102.8,0,205.61,0,308.42-.023c6.18,0,12.42.291,18.55-.606c15.26-2.263,21.22-17.901,13.25-35.23-8.44-18.344-21.36-29.049-37.22-31.498-11.87-1.843-15.78-8.747-16.29-24.327-1.9-57.8647-33.48-104.1147-75.08-111.7764-38.97-7.1719-78.01,25.434-92.04,78.1914-3.45,12.956-7.51,17.691-18.41,16.058-30.84-4.606-44.87,6.006-58.35,42.308-3.13,8.42-6.02,12.455-12.86,7.009-11.17-8.898-23.47-9.842-35.96-7.778-7.04,1.166-11.22-1.423-14.74-10.297-12.69-32.105-31.36-52.21-60.61-46.904-9.25,1.68-13.46-3.253-17.28-13.9469-9.25-25.8889-23.99-45.6554-44.1-56.5823-56.76-30.8334-118.13,23.6964-118.7,104.8962-.18,25.994-.19,26.146-18.84,22.717-15.42-2.834-29.44,1.563-41.7,14.111-10.1,10.332-19.65,22.81-15.14,41.27c4.33,17.703,17.48,12.117,27.26,12.152c103.28.385,206.56.233,309.85.256h-.01Z" fill="#fff"/></g><clipPath id="eqn5ZPG9o7211"><rect width="682" height="205" rx="0" ry="0" transform="translate(1072 32)" fill="#fff"/></clipPath></g></g><g id="eqn5ZPG9o7213_to" transform="translate(214.714756,178.704475)"><g transform="translate(-214.714756,-178.704475)" clip-path="url(#eqn5ZPG9o7216)"><g><path d="M-2.2399,290.11c58.22.95,116.4499-2.75,174.6599.07c31.89,1.55,63.9-5.15,95.37-2.08c55.05,5.37,110.02-3.33,164.24,2.16c16.75-.52,33.67,1.43,43.29-16.34c10.55-19.48,8.98-38.42-2.25-56.88-13.73-22.56-34.32-31.68-60.25-30.24-24.78,1.39-30.05-3.33-32.18-28.12-3.92-45.65-47.13-81.34-88.79-69.77-21.59,6-36.82,4.83-57.56-6.34C169.82,47.88,91.9701,73.3,55.3201,137.29c-6.28,10.97-13.73,16.09-26.35,17.8-42.86,5.8-75.08,37.31-80.68,77.11-5.83,41.38,7.74,57.23,49.47,57.91Z" fill="#fff"/></g><clipPath id="eqn5ZPG9o7216"><rect width="535.42" height="223.42" rx="0" ry="0" transform="translate(-53 67)" fill="#fff"/></clipPath></g></g><g id="eqn5ZPG9o7218_to" transform="translate(432.727462,232.704475)"><g transform="translate(-425.714706,-232.704475)" clip-path="url(#eqn5ZPG9o7221)"><g><path d="M208.76,344.11c58.22.95,116.45-2.75,174.66.07c31.89,1.55,63.9-5.15,95.37-2.08c55.05,5.37,110.02-3.33,164.24,2.16c16.75-.52,33.67,1.43,43.29-16.34c10.55-19.48,8.98-38.42-2.25-56.88-13.73-22.56-34.32-31.68-60.25-30.24-24.78,1.39-30.05-3.33-32.18-28.12-3.92-45.65-47.13-81.34-88.79-69.77-21.59,6-36.82,4.83-57.56-6.34-64.47-34.69-142.32-9.27-178.97,54.72-6.28,10.97-13.73,16.09-26.35,17.8-42.86,5.8-75.08,37.31-80.68,77.11-5.83,41.38,7.74,57.23,49.47,57.91Z" fill="#fff4cb"/></g><clipPath id="eqn5ZPG9o7221"><rect width="535.42" height="223.42" rx="0" ry="0" transform="translate(158 121)" fill="#fff"/></clipPath></g></g><g id="eqn5ZPG9o7223_to" transform="translate(1874.022034,648.893799)"><path d="M1870.89,736.314c116.68,0,233.36,0,350.05-.02c7.02,0,14.1.25,21.05-.52c17.33-1.94,24.09-15.35,15.04-30.21-9.58-15.73-24.24-24.91-42.24-27.01-13.47-1.58-17.91-7.5-18.49-20.86-2.15-49.62-38-89.28-85.21-95.85-44.23-6.15-88.54,21.81-104.47,67.05-3.91,11.11-8.52,15.17-20.89,13.77-35-3.95-50.93,5.15-66.23,36.28-3.55,7.22-6.83,10.68-14.59,6.01-12.68-7.63-26.64-8.44-40.81-6.67-8,1-12.74-1.22-16.73-8.83-14.41-27.53-35.6-44.77-68.8-40.22-10.49,1.44-15.27-2.79-19.61-11.96-10.5-22.2-27.22-39.15-50.05-48.52-64.42-26.44-134.07,20.32-134.72,89.95-.21,22.29-.22,22.42-21.38,19.48-17.5-2.43-33.42,1.34-47.33,12.1-11.46,8.86-22.3,19.56-17.18,35.39c4.91,15.18,19.84,10.39,30.93,10.42c117.22.33,234.44.2,351.67.22h-.01Z" transform="translate(-1874.022034,-648.893799)" fill="#fff4cb"/></g><g id="eqn5ZPG9o7224_to" transform="translate(1680.714661,125.711628)"><path d="M1463.76,237.117c58.22.95,116.45-2.75,174.66.07c31.89,1.55,63.9-5.15,95.37-2.08c55.05,5.37,110.02-3.33,164.24,2.16c16.75-.52,33.67,1.43,43.29-16.34c10.55-19.48,8.98-38.42-2.25-56.88-13.73-22.56-34.32-31.68-60.25-30.24-24.78,1.39-30.05-3.33-32.18-28.12-3.92-45.6497-47.13-81.3397-88.79-69.7697-21.59,6-36.82,4.83-57.56-6.34-64.47-34.68999-142.32-9.27-178.97,54.72-6.28,10.97-13.73,16.0897-26.35,17.7997-42.86,5.8-75.08,37.31-80.68,77.11-5.83,41.38,7.74,57.23,49.47,57.91Z" transform="translate(-1680.714661,-125.711628)" fill="#fff"/></g><g id="eqn5ZPG9o7225_to" transform="translate(1439.004395,647.495544)"><g transform="translate(-1439.004395,-647.495544)" clip-path="url(#eqn5ZPG9o7228)"><g><path d="M1264.77,736.752c46.75.761,93.52-2.204,140.27.056c25.61,1.242,51.32-4.126,76.59-1.667c44.21,4.303,88.36-2.668,131.9,1.731c13.45-.417,27.04,1.145,34.77-13.092c8.47-15.607,7.21-30.781-1.81-45.571-11.03-18.074-27.56-25.381-48.39-24.227-19.9,1.113-24.13-2.668-25.84-22.53-3.15-36.574-37.85-65.168-71.31-55.898-17.34,4.807-29.57,3.87-46.23-5.08-51.77-27.793-114.29-7.427-143.73,43.841-5.04,8.789-11.02,12.891-21.16,14.261-34.42,4.647-60.3,29.892-64.79,61.779-4.69,33.153,6.21,45.852,39.73,46.397Z" fill="#fff4cb"/></g><clipPath id="eqn5ZPG9o7228"><rect width="430" height="179" rx="0" ry="0" transform="translate(1224 558)" fill="#fff"/></clipPath></g></g><g id="eqn5ZPG9o7230_to" transform="translate(1658.517273,385.995453)"><path d="M1476.86,477.745c46.87.782,93.74-2.265,140.6.057c25.67,1.277,51.44-4.241,76.77-1.713c44.31,4.423,88.56-2.742,132.21,1.779c13.48-.428,27.1,1.178,34.84-13.457c8.5-16.043,7.23-31.641-1.81-46.844-11.05-18.579-27.62-26.09-48.5-24.904-19.94,1.144-24.19-2.743-25.9-23.159-3.16-37.595-37.94-66.988-71.47-57.46-17.38,4.942-29.64,3.978-46.34-5.221-51.9-28.569-114.56-7.635-144.07,45.065-5.05,9.035-11.05,13.251-21.21,14.659-34.5,4.777-60.43,30.728-64.94,63.505-4.69,34.079,6.23,47.133,39.82,47.693Z" transform="translate(-1651.504517,-385.995453)" fill="#fff4cb"/></g><g id="eqn5ZPG9o7231_to" transform="translate(276.503689,728.995422)"><path d="M101.861,820.745c46.865.782,93.739-2.265,140.597.057c25.67,1.277,51.437-4.241,76.77-1.713c44.314,4.423,88.563-2.742,132.209,1.779c13.484-.428,27.104,1.178,34.848-13.457c8.492-16.043,7.228-31.641-1.812-46.844-11.052-18.579-27.626-26.09-48.499-24.904-19.948,1.144-24.19-2.743-25.904-23.159-3.156-37.595-37.939-66.988-71.474-57.46-17.38,4.942-29.639,3.978-46.335-5.221-51.896-28.569-114.564-7.635-144.066,45.065-5.055,9.035-11.052,13.251-21.211,14.66-34.5014,4.776-60.4378,30.727-64.9456,63.504-4.693,34.079,6.2305,47.133,39.8226,47.693Z" transform="translate(-276.503689,-728.995422)" fill="#fff4cb"/></g><g id="eqn5ZPG9o7232_to" transform="translate(1775.377991,502.769211)"><path d="M1993.5,571.719c-15.17.55-18.78-5.84-19.67-19.94-2.25-35.57-35.47-61.34-69.9-54.82-11.07,2.1-17.29.22-24.05-9.58-23.96-34.77-60.97-47.3-99.43-33.23-13.76,5.03-20.6,1.48-27.86-9.67-12.94-19.88-30.5-35.57-52.96-43.27-43.74-15.01-83.49-6.78-116.22,26.55-32.05,32.64-40.08,71.68-26.25,115.13c2.58,8.12,10.44,17.08,8.54,23.47-2.41,8.08-15.34,3.47-23.01,7.33-11.02,5.55-25.79,9.24-23.44,24.82c2.48,16.41,18,12.64,29.16,12.69c74,.34,148,.18,222.01.18c73.46,0,146.92,0,220.39,0c10.27,0,20.65.28,30.42-3.48c11.57-4.45,13.74-13.41,5.82-22.92-8.73-10.49-21.09-13.72-33.55-13.27v.01Z" transform="translate(-1775.377991,-502.769211)" fill="#fff"/></g><g id="eqn5ZPG9o7233_to" transform="translate(243.072189,745.059662)"><path d="M239.294,882.255c138.379.307,276.758.614,415.148.889c8.326.019,16.721.43,24.967-.761c20.559-3,28.623-24.037,17.942-47.391-11.307-24.723-28.661-39.174-50.002-42.519-15.969-2.516-21.214-11.822-21.856-32.8-2.377-77.911-44.755-140.274-100.722-150.713-52.434-9.772-105.081,34.01-124.131,104.997-4.676,17.433-10.158,23.795-24.823,21.565-41.495-6.294-60.419,7.952-78.673,56.787-4.235,11.327-8.137,16.75-17.324,9.398-15.012-12.013-31.565-13.321-48.376-10.58-9.492,1.549-15.105-1.949-19.811-13.907-16.994-43.262-42.064-70.385-81.454-63.329-12.446,2.234-18.1-4.42-23.216-18.829-12.3749-34.883-32.1453-61.539-59.1883-76.311-76.308-41.681-159.0737,31.551-160.0867,140.872-.327,34.996-.339,35.2-25.424,30.529-20.746-3.862-39.639,2.016-56.174,18.873-13.622,13.88-26.515,30.651-20.498,55.519c5.77,23.846,23.494,16.365,36.646,16.441c139.0178.826,278.037.931,417.068,1.27h-.012Z" transform="translate(-243.072189,-745.059662)" fill="#fff"/></g></svg>
