<svg id="e1yq2jDe4NR1" xmlns="http://www.w3.org/2000/svg" xmlns:xlink="http://www.w3.org/1999/xlink" viewBox="0 0 1920 1694" shape-rendering="geometricPrecision" text-rendering="geometricPrecision">
<style><![CDATA[
#e1yq2jDe4NR2_to {animation: e1yq2jDe4NR2_to__to 6400ms linear infinite normal forwards}@keyframes e1yq2jDe4NR2_to__to { 0% {transform: translate(393.262512px,255.599518px)} 15.625% {transform: translate(393.262512px,255.599518px)} 40.625% {transform: translate(393.262512px,190.205657px)} 65.625% {transform: translate(393.262512px,255.599518px)} 67.1875% {transform: translate(393.262512px,255.599518px)} 84.375% {transform: translate(393.262512px,190.205657px)} 100% {transform: translate(393.262512px,255.599518px)}} #e1yq2jDe4NR37_to {animation: e1yq2jDe4NR37_to__to 6400ms linear infinite normal forwards}@keyframes e1yq2jDe4NR37_to__to { 0% {transform: translate(870px,407.599488px)} 12.5% {transform: translate(870px,407.599488px)} 37.5% {transform: translate(870px,342.205627px)} 64.0625% {transform: translate(870px,407.599488px)} 65.625% {transform: translate(870px,407.599488px)} 82.8125% {transform: translate(870px,342.205627px)} 100% {transform: translate(870px,407.599488px)}} #e1yq2jDe4NR93_to {animation: e1yq2jDe4NR93_to__to 6400ms linear infinite normal forwards}@keyframes e1yq2jDe4NR93_to__to { 0% {transform: translate(948.5px,642.148011px)} 9.375% {transform: translate(948.5px,642.148011px)} 32.8125% {transform: translate(948.5px,576.75415px)} 59.375% {transform: translate(948.5px,642.148011px)} 81.25% {transform: translate(948.5px,576.75415px)} 100% {transform: translate(948.5px,642.148011px)}} #e1yq2jDe4NR149_to {animation: e1yq2jDe4NR149_to__to 6400ms linear infinite normal forwards}@keyframes e1yq2jDe4NR149_to__to { 0% {transform: translate(750px,885.599976px)} 6.25% {transform: translate(750px,885.599976px)} 29.6875% {transform: translate(750px,820.206115px)} 56.25% {transform: translate(750px,885.599976px)} 78.125% {transform: translate(750px,820.206115px)} 100% {transform: translate(750px,885.599976px)}} #e1yq2jDe4NR200_to {animation: e1yq2jDe4NR200_to__to 6400ms linear infinite normal forwards}@keyframes e1yq2jDe4NR200_to__to { 0% {transform: translate(1002px,1135.400025px)} 3.125% {transform: translate(1002px,1135.400025px)} 26.5625% {transform: translate(1002px,1070.006164px)} 51.5625% {transform: translate(1002px,1135.400025px)} 75% {transform: translate(1002px,1070.006164px)} 100% {transform: translate(1002px,1135.400025px)}} #e1yq2jDe4NR255_to {animation: e1yq2jDe4NR255_to__to 6400ms linear infinite normal forwards}@keyframes e1yq2jDe4NR255_to__to { 0% {transform: translate(777.560059px,1397px)} 21.875% {transform: translate(777.560059px,1331.606139px)} 46.875% {transform: translate(777.560059px,1397px)} 71.875% {transform: translate(777.560059px,1331.606139px)} 100% {transform: translate(777.560059px,1397px)}}
]]></style>
<g id="e1yq2jDe4NR2_to" transform="translate(393.262512,255.599518)"><g transform="translate(-393.262512,-255.599518)"><path d="M1060.05,511.199c158.48,0,286.95-114.436,286.95-255.599C1347,114.436,1218.53,0,1060.05,0C901.571,0,773.099,114.436,773.099,255.6c0,141.163,128.472,255.599,286.951,255.599Z" fill="#f1f1f1"/><path d="M1060.05,488.195c144.21,0,261.12-104.136,261.12-232.596c0-128.459-116.91-232.5957-261.12-232.5957-144.212,0-261.118,104.1367-261.118,232.5957c0,128.46,116.906,232.596,261.118,232.596Z" fill="#ffc4e1"/><path d="M1060.05,465.192c129.95,0,235.3-93.837,235.3-209.592s-105.35-209.5928-235.3-209.5928c-129.953,0-235.3,93.8378-235.3,209.5928s105.347,209.592,235.3,209.592Z" fill="#f1f1f1"/><path d="M1060.05,442.188c115.68,0,209.46-83.538,209.46-186.589c0-103.05-93.78-186.5887-209.46-186.5887-115.686,0-209.467,83.5387-209.467,186.5887c0,103.051,93.781,186.589,209.467,186.589Z" fill="#ffc4e1"/><path d="M1060.05,419.185c101.43,0,183.65-73.239,183.65-163.585s-82.22-163.5857-183.65-163.5857c-101.427,0-183.649,73.2397-183.649,163.5857s82.222,163.585,183.649,163.585Z" fill="#f1f1f1"/><path d="M1060.05,396.182c87.16,0,157.81-62.941,157.81-140.583c0-77.641-70.65-140.582-157.81-140.582s-157.816,62.941-157.816,140.582c0,77.642,70.656,140.583,157.816,140.583Z" fill="#ffc4e1"/><path d="M1060.05,373.178c72.9,0,132-52.642,132-117.579s-59.1-117.578-132-117.578c-72.901,0-131.998,52.641-131.998,117.578s59.097,117.579,131.998,117.579Z" fill="#f1f1f1"/><path d="M1060.05,350.175c58.63,0,106.16-42.343,106.16-94.575c0-52.233-47.53-94.576-106.16-94.576s-106.165,42.343-106.165,94.576c0,52.232,47.535,94.575,106.165,94.575Z" fill="#ffc4e1"/><path d="M1060.05,327.171c44.37,0,80.35-32.044,80.35-71.572c0-39.527-35.98-71.571-80.35-71.571-44.38,0-80.347,32.044-80.347,71.571c0,39.528,35.967,71.572,80.347,71.572Z" fill="#f1f1f1"/><path d="M1060.05,304.168c30.11,0,54.51-21.745,54.51-48.568c0-26.824-24.4-48.568-54.51-48.568s-54.51,21.744-54.51,48.568c0,26.823,24.4,48.568,54.51,48.568Z" fill="#ffc4e1"/><path d="M1060.05,281.164c15.85,0,28.69-11.446,28.69-25.565s-12.84-25.564-28.69-25.564-28.7,11.445-28.7,25.564s12.85,25.565,28.7,25.565Z" fill="#f1f1f1"/><path d="M615.525,511.199c158.478,0,286.951-114.436,286.951-255.599C902.476,114.436,774.003,0,615.525,0C457.046,0,328.574,114.436,328.574,255.6c0,141.163,128.472,255.599,286.951,255.599Z" fill="#f1f1f1"/><path d="M615.524,488.195c144.211,0,261.118-104.136,261.118-232.596c0-128.459-116.907-232.5957-261.118-232.5957s-261.117,104.1367-261.117,232.5957c0,128.46,116.906,232.596,261.117,232.596Z" fill="#ffc4e1"/><path d="M615.525,465.192c129.952,0,235.299-93.837,235.299-209.592s-105.347-209.5928-235.299-209.5928-235.3,93.8378-235.3,209.5928s105.348,209.592,235.3,209.592Z" fill="#f1f1f1"/><path d="M615.525,442.188c115.685,0,209.466-83.538,209.466-186.589c0-103.05-93.781-186.5887-209.466-186.5887s-209.466,83.5387-209.466,186.5887c0,103.051,93.781,186.589,209.466,186.589Z" fill="#ffc4e1"/><path d="M615.525,419.185c101.426,0,183.648-73.239,183.648-163.585s-82.222-163.5857-183.648-163.5857-183.649,73.2397-183.649,163.5857s82.223,163.585,183.649,163.585Z" fill="#f1f1f1"/><path d="M615.524,396.182c87.159,0,157.815-62.941,157.815-140.583c0-77.641-70.656-140.582-157.815-140.582-87.158,0-157.815,62.941-157.815,140.582c0,77.642,70.657,140.583,157.815,140.583Z" fill="#ffc4e1"/><path d="M615.525,373.178c72.9,0,131.997-52.642,131.997-117.579s-59.097-117.578-131.997-117.578-131.998,52.641-131.998,117.578s59.098,117.579,131.998,117.579Z" fill="#f1f1f1"/><path d="M615.524,350.175c58.633,0,106.164-42.343,106.164-94.575c0-52.233-47.531-94.576-106.164-94.576-58.632,0-106.163,42.343-106.163,94.576c0,52.232,47.531,94.575,106.163,94.575Z" fill="#ffc4e1"/><path d="M615.524,327.171c44.374,0,80.346-32.044,80.346-71.572c0-39.527-35.972-71.571-80.346-71.571s-80.346,32.044-80.346,71.571c0,39.528,35.972,71.572,80.346,71.572Z" fill="#f1f1f1"/><path d="M615.524,304.168c30.107,0,54.513-21.745,54.513-48.568c0-26.824-24.406-48.568-54.513-48.568-30.106,0-54.512,21.744-54.512,48.568c0,26.823,24.406,48.568,54.512,48.568Z" fill="#ffc4e1"/><path d="M615.524,281.164c15.848,0,28.695-11.446,28.695-25.565s-12.847-25.564-28.695-25.564-28.695,11.445-28.695,25.564s12.847,25.565,28.695,25.565Z" fill="#f1f1f1"/><path d="M171,511.199c158.478,0,286.951-114.436,286.951-255.599C457.951,114.436,329.478,0,171,0C12.5215,0,-115.951,114.436,-115.951,255.6c0,141.163,128.4725,255.599,286.951,255.599Z" fill="#f1f1f1"/><path d="M171,488.195c144.211,0,261.117-104.136,261.117-232.596C432.117,127.14,315.211,23.0033,171,23.0033c-144.2115,0-261.1177,104.1367-261.1177,232.5957c0,128.46,116.9062,232.596,261.1177,232.596Z" fill="#ffc4e1"/><path d="M171,465.192c129.952,0,235.299-93.837,235.299-209.592s-105.347-209.5928-235.299-209.5928c-129.9524,0-235.2996,93.8378-235.2996,209.5928s105.3472,209.592,235.2996,209.592Z" fill="#f1f1f1"/><path d="M171,442.188c115.684,0,209.466-83.538,209.466-186.589c0-103.05-93.782-186.5887-209.466-186.5887-115.6854,0-209.4666,83.5387-209.4666,186.5887c0,103.051,93.7812,186.589,209.4666,186.589Z" fill="#ffc4e1"/><path d="M171,419.185c101.426,0,183.648-73.239,183.648-163.585s-82.222-163.5857-183.648-163.5857c-101.4265,0-183.6487,73.2397-183.6487,163.5857s82.2222,163.585,183.6487,163.585Z" fill="#f1f1f1"/><path d="M171,396.182c87.158,0,157.815-62.941,157.815-140.583c0-77.641-70.657-140.582-157.815-140.582-87.1593,0-157.8154,62.941-157.8154,140.582c0,77.642,70.6561,140.583,157.8154,140.583Z" fill="#ffc4e1"/><path d="M170.999,373.178c72.901,0,131.998-52.642,131.998-117.579s-59.097-117.578-131.998-117.578c-72.8996,0-131.9968,52.641-131.9968,117.578s59.0972,117.579,131.9968,117.579Z" fill="#f1f1f1"/><path d="M171,350.175c58.632,0,106.163-42.343,106.163-94.575c0-52.233-47.531-94.576-106.163-94.576-58.633,0-106.1643,42.343-106.1643,94.576c0,52.232,47.5313,94.575,106.1643,94.575Z" fill="#ffc4e1"/><path d="M171,327.171c44.373,0,80.346-32.044,80.346-71.572c0-39.527-35.973-71.571-80.346-71.571-44.374,0-80.3467,32.044-80.3467,71.571c0,39.528,35.9727,71.572,80.3467,71.572Z" fill="#f1f1f1"/><path d="M170.999,304.168c30.107,0,54.513-21.745,54.513-48.568c0-26.824-24.406-48.568-54.513-48.568-30.106,0-54.512,21.744-54.512,48.568c0,26.823,24.406,48.568,54.512,48.568Z" fill="#ffc4e1"/><path d="M170.999,281.164c15.848,0,28.695-11.446,28.695-25.565s-12.847-25.564-28.695-25.564-28.695,11.445-28.695,25.564s12.847,25.565,28.695,25.565Z" fill="#f1f1f1"/><path d="M-273.525,511.199c158.479,0,286.951-114.436,286.951-255.599C13.426,114.436,-115.046,0,-273.525,0c-158.478,0-286.95,114.436-286.95,255.6c0,141.163,128.472,255.599,286.95,255.599Z" fill="#f1f1f1"/></g></g><g id="e1yq2jDe4NR37_to" transform="translate(870,407.599488)"><g transform="translate(-870,-407.599487)"><path d="M1759.05,663.199c158.48,0,286.95-114.436,286.95-255.599c0-141.164-128.47-255.6-286.95-255.6s-286.95,114.436-286.95,255.6c0,141.163,128.47,255.599,286.95,255.599Z" fill="#f1f1f1"/><path d="M1759.05,640.195c144.21,0,261.12-104.137,261.12-232.596s-116.91-232.596-261.12-232.596-261.12,104.137-261.12,232.596s116.91,232.596,261.12,232.596Z" fill="#ffc4e1"/><path d="M1759.05,617.192c129.95,0,235.3-93.838,235.3-209.592c0-115.755-105.35-209.593-235.3-209.593s-235.3,93.838-235.3,209.593c0,115.754,105.35,209.592,235.3,209.592Z" fill="#f1f1f1"/><path d="M1759.05,594.188c115.68,0,209.47-83.538,209.47-186.589c0-103.05-93.79-186.589-209.47-186.589-115.69,0-209.47,83.539-209.47,186.589c0,103.051,93.78,186.589,209.47,186.589Z" fill="#ffc4e1"/><path d="M1759.05,571.186c101.43,0,183.65-73.24,183.65-163.586s-82.22-163.586-183.65-163.586-183.65,73.24-183.65,163.586s82.22,163.586,183.65,163.586Z" fill="#f1f1f1"/><path d="M1759.05,548.182c87.16,0,157.81-62.941,157.81-140.583c0-77.641-70.65-140.582-157.81-140.582s-157.82,62.941-157.82,140.582c0,77.642,70.66,140.583,157.82,140.583Z" fill="#ffc4e1"/><path d="M1759.05,525.178c72.9,0,132-52.642,132-117.579s-59.1-117.578-132-117.578-132,52.641-132,117.578s59.1,117.579,132,117.579Z" fill="#f1f1f1"/><path d="M1759.05,502.175c58.63,0,106.16-42.343,106.16-94.575c0-52.233-47.53-94.576-106.16-94.576s-106.17,42.343-106.17,94.576c0,52.232,47.54,94.575,106.17,94.575Z" fill="#ffc4e1"/><path d="M1759.05,479.171c44.37,0,80.35-32.044,80.35-71.572c0-39.527-35.98-71.571-80.35-71.571-44.38,0-80.35,32.044-80.35,71.571c0,39.528,35.97,71.572,80.35,71.572Z" fill="#f1f1f1"/><path d="M1759.05,456.168c30.11,0,54.51-21.745,54.51-48.568c0-26.824-24.4-48.568-54.51-48.568s-54.51,21.744-54.51,48.568c0,26.823,24.4,48.568,54.51,48.568Z" fill="#ffc4e1"/><path d="M1759.05,433.164c15.85,0,28.69-11.446,28.69-25.565s-12.84-25.564-28.69-25.564-28.7,11.445-28.7,25.564s12.85,25.565,28.7,25.565Z" fill="#f1f1f1"/><path d="M1314.52,663.199c158.48,0,286.96-114.436,286.96-255.599c0-141.164-128.48-255.6-286.96-255.6-158.47,0-286.95,114.436-286.95,255.6c0,141.163,128.48,255.599,286.95,255.599Z" fill="#f1f1f1"/><path d="M1314.52,640.195c144.22,0,261.12-104.137,261.12-232.596s-116.9-232.596-261.12-232.596c-144.21,0-261.11,104.137-261.11,232.596s116.9,232.596,261.11,232.596Z" fill="#ffc4e1"/><path d="M1314.52,617.192c129.96,0,235.3-93.838,235.3-209.592c0-115.755-105.34-209.593-235.3-209.593-129.95,0-235.29,93.838-235.29,209.593c0,115.754,105.34,209.592,235.29,209.592Z" fill="#f1f1f1"/><path d="M1314.52,594.188c115.69,0,209.47-83.538,209.47-186.589c0-103.05-93.78-186.589-209.47-186.589-115.68,0-209.46,83.539-209.46,186.589c0,103.051,93.78,186.589,209.46,186.589Z" fill="#ffc4e1"/><path d="M1314.52,571.186c101.43,0,183.65-73.24,183.65-163.586s-82.22-163.586-183.65-163.586c-101.42,0-183.64,73.24-183.64,163.586s82.22,163.586,183.64,163.586Z" fill="#f1f1f1"/><path d="M1314.52,548.182c87.16,0,157.82-62.941,157.82-140.583c0-77.641-70.66-140.582-157.82-140.582-87.15,0-157.81,62.941-157.81,140.582c0,77.642,70.66,140.583,157.81,140.583Z" fill="#ffc4e1"/><path d="M1314.52,525.178c72.9,0,132-52.642,132-117.579s-59.1-117.578-132-117.578-131.99,52.641-131.99,117.578s59.09,117.579,131.99,117.579Z" fill="#f1f1f1"/><path d="M1314.52,502.175c58.64,0,106.17-42.343,106.17-94.575c0-52.233-47.53-94.576-106.17-94.576-58.63,0-106.16,42.343-106.16,94.576c0,52.232,47.53,94.575,106.16,94.575Z" fill="#ffc4e1"/><path d="M1314.52,479.171c44.38,0,80.35-32.044,80.35-71.572c0-39.527-35.97-71.571-80.35-71.571-44.37,0-80.34,32.044-80.34,71.571c0,39.528,35.97,71.572,80.34,71.572Z" fill="#f1f1f1"/><path d="M1314.52,456.168c30.11,0,54.52-21.745,54.52-48.568c0-26.824-24.41-48.568-54.52-48.568-30.1,0-54.51,21.744-54.51,48.568c0,26.823,24.41,48.568,54.51,48.568Z" fill="#ffc4e1"/><path d="M1314.52,433.164c15.85,0,28.7-11.446,28.7-25.565s-12.85-25.564-28.7-25.564c-15.84,0-28.69,11.445-28.69,25.564s12.85,25.565,28.69,25.565Z" fill="#f1f1f1"/><path d="M870,663.199c158.48,0,286.95-114.436,286.95-255.599C1156.95,266.436,1028.48,152,870,152c-158.479,0-286.951,114.436-286.951,255.6c0,141.163,128.472,255.599,286.951,255.599Z" fill="#f1f1f1"/><path d="M870,640.195c144.21,0,261.12-104.137,261.12-232.596s-116.91-232.596-261.12-232.596c-144.212,0-261.118,104.137-261.118,232.596s116.906,232.596,261.118,232.596Z" fill="#ffc4e1"/><path d="M870,617.192c129.952,0,235.3-93.838,235.3-209.592c0-115.755-105.348-209.593-235.3-209.593s-235.3,93.838-235.3,209.593c0,115.754,105.348,209.592,235.3,209.592Z" fill="#f1f1f1"/><path d="M870,594.188c115.684,0,209.47-83.538,209.47-186.589c0-103.05-93.786-186.589-209.47-186.589-115.685,0-209.467,83.539-209.467,186.589c0,103.051,93.782,186.589,209.467,186.589Z" fill="#ffc4e1"/><path d="M870,571.186c101.426,0,183.65-73.24,183.65-163.586s-82.224-163.586-183.65-163.586-183.649,73.24-183.649,163.586s82.223,163.586,183.649,163.586Z" fill="#f1f1f1"/><path d="M870,548.182c87.158,0,157.81-62.941,157.81-140.583c0-77.641-70.652-140.582-157.81-140.582-87.159,0-157.815,62.941-157.815,140.582c0,77.642,70.656,140.583,157.815,140.583Z" fill="#ffc4e1"/><path d="M869.999,525.178C942.9,525.178,1002,472.536,1002,407.599s-59.1-117.578-132.001-117.578c-72.9,0-131.997,52.641-131.997,117.578s59.097,117.579,131.997,117.579Z" fill="#f1f1f1"/><path d="M870,502.175c58.632,0,106.163-42.343,106.163-94.575c0-52.233-47.531-94.576-106.163-94.576-58.633,0-106.164,42.343-106.164,94.576c0,52.232,47.531,94.575,106.164,94.575Z" fill="#ffc4e1"/><path d="M870,479.171c44.373,0,80.346-32.044,80.346-71.572c0-39.527-35.973-71.571-80.346-71.571-44.374,0-80.347,32.044-80.347,71.571c0,39.528,35.973,71.572,80.347,71.572Z" fill="#f1f1f1"/><path d="M869.999,456.168c30.107,0,54.513-21.745,54.513-48.568c0-26.824-24.406-48.568-54.513-48.568-30.106,0-54.512,21.744-54.512,48.568c0,26.823,24.406,48.568,54.512,48.568Z" fill="#ffc4e1"/><path d="M869.999,433.164c15.848,0,28.695-11.446,28.695-25.565s-12.847-25.564-28.695-25.564-28.695,11.445-28.695,25.564s12.847,25.565,28.695,25.565Z" fill="#f1f1f1"/><path d="M425.475,663.199c158.479,0,286.951-114.436,286.951-255.599c0-141.164-128.472-255.6-286.951-255.6-158.478,0-286.95,114.436-286.95,255.6c0,141.163,128.472,255.599,286.95,255.599Z" fill="#f1f1f1"/><path d="M425.475,640.195c144.211,0,261.117-104.137,261.117-232.596s-116.906-232.596-261.117-232.596-261.117,104.137-261.117,232.596s116.906,232.596,261.117,232.596Z" fill="#ffc4e1"/><path d="M425.475,617.192c129.953,0,235.3-93.838,235.3-209.592c0-115.755-105.347-209.593-235.3-209.593-129.952,0-235.299,93.838-235.299,209.593c0,115.754,105.347,209.592,235.299,209.592Z" fill="#f1f1f1"/><path d="M425.475,594.188c115.685,0,209.466-83.538,209.466-186.589c0-103.05-93.781-186.589-209.466-186.589s-209.466,83.539-209.466,186.589c0,103.051,93.781,186.589,209.466,186.589Z" fill="#ffc4e1"/><path d="M425.475,571.186c101.426,0,183.648-73.24,183.648-163.586s-82.222-163.586-183.648-163.586-183.649,73.24-183.649,163.586s82.223,163.586,183.649,163.586Z" fill="#f1f1f1"/><path d="M425.475,548.182c87.158,0,157.815-62.941,157.815-140.583c0-77.641-70.657-140.582-157.815-140.582-87.159,0-157.815,62.941-157.815,140.582c0,77.642,70.656,140.583,157.815,140.583Z" fill="#ffc4e1"/><path d="M425.475,525.178c72.9,0,131.997-52.642,131.997-117.579s-59.097-117.578-131.997-117.578-131.997,52.641-131.997,117.578s59.097,117.579,131.997,117.579Z" fill="#f1f1f1"/><path d="M425.475,502.175c58.633,0,106.164-42.343,106.164-94.575c0-52.233-47.531-94.576-106.164-94.576s-106.164,42.343-106.164,94.576c0,52.232,47.531,94.575,106.164,94.575Z" fill="#ffc4e1"/><path d="M425.475,479.171c44.374,0,80.346-32.044,80.346-71.572c0-39.527-35.972-71.571-80.346-71.571s-80.346,32.044-80.346,71.571c0,39.528,35.972,71.572,80.346,71.572Z" fill="#f1f1f1"/><path d="M425.475,456.168c30.106,0,54.512-21.745,54.512-48.568c0-26.824-24.406-48.568-54.512-48.568-30.107,0-54.513,21.744-54.513,48.568c0,26.823,24.406,48.568,54.513,48.568Z" fill="#ffc4e1"/><path d="M425.474,433.164c15.848,0,28.695-11.446,28.695-25.565s-12.847-25.564-28.695-25.564c-15.847,0-28.695,11.445-28.695,25.564s12.848,25.565,28.695,25.565Z" fill="#f1f1f1"/><path d="M-19.0493,663.199c158.4783,0,286.9503-114.436,286.9503-255.599c0-141.164-128.472-255.6-286.9503-255.6C-177.528,152,-306,266.436,-306,407.6c0,141.163,128.472,255.599,286.9507,255.599Z" fill="#f1f1f1"/><path d="M-19.0498,640.195c144.2108,0,261.1168-104.137,261.1168-232.596s-116.906-232.596-261.1168-232.596c-144.2112,0-261.1172,104.137-261.1172,232.596s116.906,232.596,261.1172,232.596Z" fill="#ffc4e1"/><path d="M-19.0494,617.192C110.903,617.192,216.25,523.354,216.25,407.6c0-115.755-105.347-209.593-235.2994-209.593-129.9526,0-235.2996,93.838-235.2996,209.593c0,115.754,105.347,209.592,235.2996,209.592Z" fill="#f1f1f1"/><path d="M-19.0498,594.188c115.6849,0,209.4658-83.538,209.4658-186.589c0-103.05-93.7809-186.589-209.4658-186.589-115.6852,0-209.4662,83.539-209.4662,186.589c0,103.051,93.781,186.589,209.4662,186.589Z" fill="#ffc4e1"/><path d="M-19.0498,571.186c101.4262,0,183.6488-73.24,183.6488-163.586s-82.2226-163.586-183.6488-163.586-183.6482,73.24-183.6482,163.586s82.222,163.586,183.6482,163.586Z" fill="#f1f1f1"/><path d="M-19.05,548.182c87.1588,0,157.815-62.941,157.815-140.583c0-77.641-70.6562-140.582-157.815-140.582-87.159,0-157.815,62.941-157.815,140.582c0,77.642,70.656,140.583,157.815,140.583Z" fill="#ffc4e1"/><path d="M-19.0498,525.178c72.9001,0,131.9968-52.642,131.9968-117.579s-59.0967-117.578-131.9968-117.578-131.9972,52.641-131.9972,117.578s59.0971,117.579,131.9972,117.579Z" fill="#f1f1f1"/><path d="M-19.0498,502.175c58.6327,0,106.1638-42.343,106.1638-94.575c0-52.233-47.5311-94.576-106.1638-94.576s-106.1642,42.343-106.1642,94.576c0,52.232,47.5315,94.575,106.1642,94.575Z" fill="#ffc4e1"/><path d="M-19.0498,479.171c44.374,0,80.3462-32.044,80.3462-71.572c0-39.527-35.9722-71.571-80.3462-71.571s-80.3462,32.044-80.3462,71.571c0,39.528,35.9722,71.572,80.3462,71.572Z" fill="#f1f1f1"/><path d="M-19.0503,456.168c30.1066,0,54.5127-21.745,54.5127-48.568c0-26.824-24.4061-48.568-54.5127-48.568-30.1065,0-54.5127,21.744-54.5127,48.568c0,26.823,24.4062,48.568,54.5127,48.568Z" fill="#ffc4e1"/><path d="M-19.0503,433.164c15.84783,0,28.69504-11.446,28.69504-25.565s-12.84721-25.564-28.69504-25.564-28.6951,11.445-28.6951,25.564s12.8472,25.565,28.6951,25.565Z" fill="#f1f1f1"/></g></g><g id="e1yq2jDe4NR93_to" transform="translate(948.5,642.148011)"><g transform="translate(-948.5,-642.14801)"><path d="M1752.5,873.296c143.32,0,259.5-103.488,259.5-231.148s-116.18-231.148-259.5-231.148-259.5,103.488-259.5,231.148s116.18,231.148,259.5,231.148Z" fill="#f1f1f1"/><path d="M1752.5,852.493c130.42,0,236.14-94.175,236.14-210.345c0-116.171-105.72-210.345-236.14-210.345s-236.14,94.174-236.14,210.345c0,116.17,105.72,210.345,236.14,210.345Z" fill="#ffc4e1"/><path d="M1752.5,831.69c117.52,0,212.79-84.861,212.79-189.542s-95.27-189.542-212.79-189.542-212.79,84.861-212.79,189.542s95.27,189.542,212.79,189.542Z" fill="#f1f1f1"/><path d="M1752.5,810.887c104.62,0,189.43-75.547,189.43-168.739s-84.81-168.74-189.43-168.74-189.43,75.548-189.43,168.74s84.81,168.739,189.43,168.739Z" fill="#ffc4e1"/><path d="M1752.5,790.085c91.72,0,166.08-66.234,166.08-147.937s-74.36-147.936-166.08-147.936-166.08,66.233-166.08,147.936s74.36,147.937,166.08,147.937Z" fill="#f1f1f1"/><path d="M1752.5,769.282c78.82,0,142.72-56.92,142.72-127.134s-63.9-127.134-142.72-127.134-142.72,56.92-142.72,127.134s63.9,127.134,142.72,127.134Z" fill="#ffc4e1"/><path d="M1752.5,748.478c65.93,0,119.37-47.605,119.37-106.33s-53.44-106.331-119.37-106.331-119.37,47.606-119.37,106.331s53.44,106.33,119.37,106.33Z" fill="#f1f1f1"/><path d="M1752.5,727.676c53.02,0,96.01-38.292,96.01-85.528s-42.99-85.528-96.01-85.528-96.01,38.292-96.01,85.528s42.99,85.528,96.01,85.528Z" fill="#ffc4e1"/><path d="M1752.5,706.873c40.13,0,72.66-28.978,72.66-64.725s-32.53-64.725-72.66-64.725-72.66,28.978-72.66,64.725s32.53,64.725,72.66,64.725Z" fill="#f1f1f1"/><path d="M1752.5,686.07c27.23,0,49.3-19.664,49.3-43.922c0-24.257-22.07-43.922-49.3-43.922s-49.3,19.665-49.3,43.922c0,24.258,22.07,43.922,49.3,43.922Z" fill="#ffc4e1"/><path d="M1752.5,665.267c14.33,0,25.95-10.351,25.95-23.119s-11.62-23.119-25.95-23.119-25.95,10.351-25.95,23.119s11.62,23.119,25.95,23.119Z" fill="#f1f1f1"/><path d="M1350.5,873.296c143.32,0,259.5-103.488,259.5-231.148s-116.18-231.148-259.5-231.148-259.5,103.488-259.5,231.148s116.18,231.148,259.5,231.148Z" fill="#f1f1f1"/><path d="M1350.5,852.493c130.42,0,236.14-94.175,236.14-210.345c0-116.171-105.72-210.345-236.14-210.345s-236.14,94.174-236.14,210.345c0,116.17,105.72,210.345,236.14,210.345Z" fill="#ffc4e1"/><path d="M1350.5,831.69c117.52,0,212.79-84.861,212.79-189.542s-95.27-189.542-212.79-189.542-212.79,84.861-212.79,189.542s95.27,189.542,212.79,189.542Z" fill="#f1f1f1"/><path d="M1350.5,810.887c104.62,0,189.43-75.547,189.43-168.739s-84.81-168.74-189.43-168.74-189.43,75.548-189.43,168.74s84.81,168.739,189.43,168.739Z" fill="#ffc4e1"/><path d="M1350.5,790.085c91.72,0,166.08-66.234,166.08-147.937s-74.36-147.936-166.08-147.936-166.08,66.233-166.08,147.936s74.36,147.937,166.08,147.937Z" fill="#f1f1f1"/><path d="M1350.5,769.282c78.82,0,142.72-56.92,142.72-127.134s-63.9-127.134-142.72-127.134-142.72,56.92-142.72,127.134s63.9,127.134,142.72,127.134Z" fill="#ffc4e1"/><path d="M1350.5,748.478c65.93,0,119.37-47.605,119.37-106.33s-53.44-106.331-119.37-106.331-119.37,47.606-119.37,106.331s53.44,106.33,119.37,106.33Z" fill="#f1f1f1"/><path d="M1350.5,727.676c53.02,0,96.01-38.292,96.01-85.528s-42.99-85.528-96.01-85.528-96.01,38.292-96.01,85.528s42.99,85.528,96.01,85.528Z" fill="#ffc4e1"/><path d="M1350.5,706.873c40.13,0,72.66-28.978,72.66-64.725s-32.53-64.725-72.66-64.725-72.66,28.978-72.66,64.725s32.53,64.725,72.66,64.725Z" fill="#f1f1f1"/><path d="M1350.5,686.07c27.23,0,49.3-19.664,49.3-43.922c0-24.257-22.07-43.922-49.3-43.922s-49.3,19.665-49.3,43.922c0,24.258,22.07,43.922,49.3,43.922Z" fill="#ffc4e1"/><path d="M1350.5,665.267c14.33,0,25.95-10.351,25.95-23.119s-11.62-23.119-25.95-23.119-25.95,10.351-25.95,23.119s11.62,23.119,25.95,23.119Z" fill="#f1f1f1"/><path d="M948.5,873.296c143.32,0,259.5-103.488,259.5-231.148s-116.18-231.148-259.5-231.148C805.182,411,689,514.488,689,642.148s116.182,231.148,259.5,231.148Z" fill="#f1f1f1"/><path d="M948.5,852.493c130.42,0,236.14-94.175,236.14-210.345c0-116.171-105.72-210.345-236.14-210.345-130.416,0-236.138,94.174-236.138,210.345c0,116.17,105.722,210.345,236.138,210.345Z" fill="#ffc4e1"/><path d="M948.5,831.69c117.52,0,212.79-84.861,212.79-189.542s-95.27-189.542-212.79-189.542c-117.521,0-212.79,84.861-212.79,189.542s95.269,189.542,212.79,189.542Z" fill="#f1f1f1"/><path d="M948.5,810.887c104.62,0,189.43-75.547,189.43-168.739s-84.81-168.74-189.43-168.74c-104.618,0-189.428,75.548-189.428,168.74s84.81,168.739,189.428,168.739Z" fill="#ffc4e1"/><path d="M948.5,790.085c91.72,0,166.08-66.234,166.08-147.937s-74.36-147.936-166.08-147.936c-91.724,0-166.08,66.233-166.08,147.936s74.356,147.937,166.08,147.937Z" fill="#f1f1f1"/><path d="M948.5,769.282c78.82,0,142.72-56.92,142.72-127.134s-63.9-127.134-142.72-127.134c-78.821,0-142.718,56.92-142.718,127.134s63.897,127.134,142.718,127.134Z" fill="#ffc4e1"/><path d="M948.5,748.478c65.93,0,119.37-47.605,119.37-106.33s-53.44-106.331-119.37-106.331c-65.927,0-119.37,47.606-119.37,106.331s53.443,106.33,119.37,106.33Z" fill="#f1f1f1"/><path d="M948.5,727.676c53.02,0,96.01-38.292,96.01-85.528s-42.99-85.528-96.01-85.528c-53.024,0-96.008,38.292-96.008,85.528s42.984,85.528,96.008,85.528Z" fill="#ffc4e1"/><path d="M948.5,706.873c40.129,0,72.66-28.978,72.66-64.725s-32.531-64.725-72.66-64.725-72.66,28.978-72.66,64.725s32.531,64.725,72.66,64.725Z" fill="#f1f1f1"/><path d="M948.499,686.07c27.227,0,49.298-19.664,49.298-43.922c0-24.257-22.071-43.922-49.298-43.922-27.226,0-49.298,19.665-49.298,43.922c0,24.258,22.072,43.922,49.298,43.922Z" fill="#ffc4e1"/><path d="M948.499,665.267c14.332,0,25.95-10.351,25.95-23.119s-11.618-23.119-25.95-23.119c-14.331,0-25.95,10.351-25.95,23.119s11.619,23.119,25.95,23.119Z" fill="#f1f1f1"/><path d="M546.5,873.296c143.318,0,259.5-103.488,259.5-231.148s-116.182-231.148-259.5-231.148-259.5,103.488-259.5,231.148s116.182,231.148,259.5,231.148Z" fill="#f1f1f1"/><path d="M546.5,852.493c130.415,0,236.138-94.175,236.138-210.345c0-116.171-105.723-210.345-236.138-210.345-130.416,0-236.138,94.174-236.138,210.345c0,116.17,105.722,210.345,236.138,210.345Z" fill="#ffc4e1"/><path d="M546.5,831.69c117.521,0,212.79-84.861,212.79-189.542s-95.269-189.542-212.79-189.542-212.79,84.861-212.79,189.542s95.269,189.542,212.79,189.542Z" fill="#f1f1f1"/><path d="M546.5,810.887c104.618,0,189.427-75.547,189.427-168.739s-84.809-168.74-189.427-168.74-189.428,75.548-189.428,168.74s84.81,168.739,189.428,168.739Z" fill="#ffc4e1"/><path d="M546.5,790.085c91.723,0,166.08-66.234,166.08-147.937s-74.357-147.936-166.08-147.936c-91.724,0-166.08,66.233-166.08,147.936s74.356,147.937,166.08,147.937Z" fill="#f1f1f1"/><path d="M546.5,769.282c78.82,0,142.717-56.92,142.717-127.134s-63.897-127.134-142.717-127.134c-78.821,0-142.718,56.92-142.718,127.134s63.897,127.134,142.718,127.134Z" fill="#ffc4e1"/><path d="M546.5,748.478c65.926,0,119.37-47.605,119.37-106.33s-53.444-106.331-119.37-106.331c-65.927,0-119.37,47.606-119.37,106.331s53.443,106.33,119.37,106.33Z" fill="#f1f1f1"/><path d="M546.5,727.676c53.023,0,96.007-38.292,96.007-85.528s-42.984-85.528-96.007-85.528c-53.024,0-96.008,38.292-96.008,85.528s42.984,85.528,96.008,85.528Z" fill="#ffc4e1"/><path d="M546.5,706.873c40.129,0,72.66-28.978,72.66-64.725s-32.531-64.725-72.66-64.725-72.66,28.978-72.66,64.725s32.531,64.725,72.66,64.725Z" fill="#f1f1f1"/><path d="M546.499,686.07c27.227,0,49.298-19.664,49.298-43.922c0-24.257-22.071-43.922-49.298-43.922-27.226,0-49.298,19.665-49.298,43.922c0,24.258,22.072,43.922,49.298,43.922Z" fill="#ffc4e1"/><path d="M546.499,665.267c14.332,0,25.95-10.351,25.95-23.119s-11.618-23.119-25.95-23.119c-14.331,0-25.95,10.351-25.95,23.119s11.619,23.119,25.95,23.119Z" fill="#f1f1f1"/><path d="M144.5,873.296c143.318,0,259.5-103.488,259.5-231.148s-116.182-231.148-259.5-231.148C1.18211,411,-115,514.488,-115,642.148s116.18211,231.148,259.5,231.148Z" fill="#f1f1f1"/><path d="M144.5,852.493c130.415,0,236.138-94.175,236.138-210.345c0-116.171-105.723-210.345-236.138-210.345-130.4157,0-236.1382,94.174-236.1382,210.345c0,116.17,105.7225,210.345,236.1382,210.345Z" fill="#ffc4e1"/><path d="M144.5,831.69c117.521,0,212.79-84.861,212.79-189.542s-95.269-189.542-212.79-189.542c-117.5207,0-212.79,84.861-212.79,189.542s95.2693,189.542,212.79,189.542Z" fill="#f1f1f1"/><path d="M144.5,810.887c104.618,0,189.427-75.547,189.427-168.739s-84.809-168.74-189.427-168.74c-104.6185,0-189.4282,75.548-189.4282,168.74s84.8097,168.739,189.4282,168.739Z" fill="#ffc4e1"/><path d="M144.5,790.085c91.723,0,166.08-66.234,166.08-147.937s-74.357-147.936-166.08-147.936c-91.7238,0-166.0803,66.233-166.0803,147.936s74.3565,147.937,166.0803,147.937Z" fill="#f1f1f1"/><path d="M144.5,769.282c78.82,0,142.717-56.92,142.717-127.134s-63.897-127.134-142.717-127.134c-78.8213,0-142.71826,56.92-142.71826,127.134s63.89696,127.134,142.71826,127.134Z" fill="#ffc4e1"/><path d="M144.5,748.478c65.926,0,119.37-47.605,119.37-106.33s-53.444-106.331-119.37-106.331c-65.9266,0-119.3704,47.606-119.3704,106.331s53.4438,106.33,119.3704,106.33Z" fill="#f1f1f1"/><path d="M144.5,727.676c53.023,0,96.007-38.292,96.007-85.528s-42.984-85.528-96.007-85.528c-53.0241,0-96.0083,38.292-96.0083,85.528s42.9842,85.528,96.0083,85.528Z" fill="#ffc4e1"/><path d="M144.5,706.873c40.129,0,72.66-28.978,72.66-64.725s-32.531-64.725-72.66-64.725-72.6604,28.978-72.6604,64.725s32.5314,64.725,72.6604,64.725Z" fill="#f1f1f1"/><path d="M144.499,686.07c27.227,0,49.298-19.664,49.298-43.922c0-24.257-22.071-43.922-49.298-43.922-27.226,0-49.2976,19.665-49.2976,43.922c0,24.258,22.0716,43.922,49.2976,43.922Z" fill="#ffc4e1"/><path d="M144.499,665.267c14.332,0,25.95-10.351,25.95-23.119s-11.618-23.119-25.95-23.119c-14.331,0-25.95,10.351-25.95,23.119s11.619,23.119,25.95,23.119Z" fill="#f1f1f1"/></g></g><g id="e1yq2jDe4NR149_to" transform="translate(750,885.599976)"><g transform="translate(-750,-885.599975)"><path d="M1639.05,1141.2c158.48,0,286.95-114.44,286.95-255.6c0-141.164-128.47-255.6-286.95-255.6s-286.95,114.436-286.95,255.6c0,141.16,128.47,255.6,286.95,255.6Z" fill="#f1f1f1"/><path d="M1639.05,1118.2c144.21,0,261.12-104.14,261.12-232.601c0-128.459-116.91-232.596-261.12-232.596s-261.12,104.137-261.12,232.596c0,128.461,116.91,232.601,261.12,232.601Z" fill="#ffc4e1"/><path d="M1639.05,1095.19c129.95,0,235.3-93.84,235.3-209.59c0-115.755-105.35-209.593-235.3-209.593s-235.3,93.838-235.3,209.593c0,115.75,105.35,209.59,235.3,209.59Z" fill="#f1f1f1"/><path d="M1639.05,1072.19c115.68,0,209.47-83.54,209.47-186.591c0-103.05-93.79-186.589-209.47-186.589-115.69,0-209.47,83.539-209.47,186.589c0,103.051,93.78,186.591,209.47,186.591Z" fill="#ffc4e1"/><path d="M1639.05,1049.19c101.43,0,183.65-73.244,183.65-163.59s-82.22-163.586-183.65-163.586-183.65,73.24-183.65,163.586s82.22,163.59,183.65,163.59Z" fill="#f1f1f1"/><path d="M1639.05,1026.18c87.16,0,157.81-62.939,157.81-140.581c0-77.641-70.65-140.582-157.81-140.582s-157.82,62.941-157.82,140.582c0,77.642,70.66,140.581,157.82,140.581Z" fill="#ffc4e1"/><path d="M1639.05,1003.18c72.9,0,132-52.644,132-117.581s-59.1-117.578-132-117.578-132,52.641-132,117.578s59.1,117.581,132,117.581Z" fill="#f1f1f1"/><path d="M1639.05,980.175c58.63,0,106.16-42.343,106.16-94.575c0-52.233-47.53-94.576-106.16-94.576s-106.17,42.343-106.17,94.576c0,52.232,47.54,94.575,106.17,94.575Z" fill="#ffc4e1"/><path d="M1639.05,957.171c44.37,0,80.35-32.044,80.35-71.572c0-39.527-35.98-71.571-80.35-71.571-44.38,0-80.35,32.044-80.35,71.571c0,39.528,35.97,71.572,80.35,71.572Z" fill="#f1f1f1"/><path d="M1639.05,934.168c30.11,0,54.51-21.745,54.51-48.568c0-26.824-24.4-48.568-54.51-48.568s-54.51,21.744-54.51,48.568c0,26.823,24.4,48.568,54.51,48.568Z" fill="#ffc4e1"/><path d="M1639.05,911.164c15.85,0,28.69-11.446,28.69-25.565s-12.84-25.564-28.69-25.564-28.7,11.445-28.7,25.564s12.85,25.565,28.7,25.565Z" fill="#f1f1f1"/><path d="M1194.52,1141.2c158.48,0,286.96-114.44,286.96-255.6c0-141.164-128.48-255.6-286.96-255.6-158.47,0-286.946,114.436-286.946,255.6c0,141.16,128.476,255.6,286.946,255.6Z" fill="#f1f1f1"/><path d="M1194.52,1118.2c144.22,0,261.12-104.14,261.12-232.601c0-128.459-116.9-232.596-261.12-232.596-144.21,0-261.113,104.137-261.113,232.596c0,128.461,116.903,232.601,261.113,232.601Z" fill="#ffc4e1"/><path d="M1194.52,1095.19c129.96,0,235.3-93.84,235.3-209.59c0-115.755-105.34-209.593-235.3-209.593-129.95,0-235.295,93.838-235.295,209.593c0,115.75,105.345,209.59,235.295,209.59Z" fill="#f1f1f1"/><path d="M1194.52,1072.19c115.69,0,209.47-83.54,209.47-186.591c0-103.05-93.78-186.589-209.47-186.589-115.68,0-209.461,83.539-209.461,186.589c0,103.051,93.781,186.591,209.461,186.591Z" fill="#ffc4e1"/><path d="M1194.52,1049.19c101.43,0,183.65-73.244,183.65-163.59s-82.22-163.586-183.65-163.586c-101.42,0-183.64,73.24-183.64,163.586s82.22,163.59,183.64,163.59Z" fill="#f1f1f1"/><path d="M1194.52,1026.18c87.16,0,157.82-62.939,157.82-140.581c0-77.641-70.66-140.582-157.82-140.582-87.15,0-157.81,62.941-157.81,140.582c0,77.642,70.66,140.581,157.81,140.581Z" fill="#ffc4e1"/><path d="M1194.52,1003.18c72.9,0,132-52.644,132-117.581s-59.1-117.578-132-117.578-131.99,52.641-131.99,117.578s59.09,117.581,131.99,117.581Z" fill="#f1f1f1"/><path d="M1194.52,980.175c58.64,0,106.17-42.343,106.17-94.575c0-52.233-47.53-94.576-106.17-94.576-58.63,0-106.16,42.343-106.16,94.576c0,52.232,47.53,94.575,106.16,94.575Z" fill="#ffc4e1"/><path d="M1194.52,957.171c44.38,0,80.35-32.044,80.35-71.572c0-39.527-35.97-71.571-80.35-71.571-44.37,0-80.34,32.044-80.34,71.571c0,39.528,35.97,71.572,80.34,71.572Z" fill="#f1f1f1"/><path d="M1194.52,934.168c30.11,0,54.52-21.745,54.52-48.568c0-26.824-24.41-48.568-54.52-48.568-30.1,0-54.51,21.744-54.51,48.568c0,26.823,24.41,48.568,54.51,48.568Z" fill="#ffc4e1"/><path d="M1194.52,911.164c15.85,0,28.7-11.446,28.7-25.565s-12.85-25.564-28.7-25.564c-15.84,0-28.69,11.445-28.69,25.564s12.85,25.565,28.69,25.565Z" fill="#f1f1f1"/><path d="M750,1141.2c158.478,0,286.95-114.44,286.95-255.6C1036.95,744.436,908.478,630,750,630c-158.479,0-286.951,114.436-286.951,255.6c0,141.16,128.472,255.6,286.951,255.6Z" fill="#f1f1f1"/><path d="M750,1118.2c144.211,0,261.12-104.14,261.12-232.601c0-128.459-116.909-232.596-261.12-232.596-144.212,0-261.118,104.137-261.118,232.596C488.882,1014.06,605.788,1118.2,750,1118.2Z" fill="#ffc4e1"/><path d="M750,1095.19c129.952,0,235.299-93.84,235.299-209.59c0-115.755-105.347-209.593-235.299-209.593s-235.3,93.838-235.3,209.593c0,115.75,105.348,209.59,235.3,209.59Z" fill="#f1f1f1"/><path d="M750,1072.19c115.684,0,209.466-83.54,209.466-186.591c0-103.05-93.782-186.589-209.466-186.589-115.685,0-209.467,83.539-209.467,186.589c0,103.051,93.782,186.591,209.467,186.591Z" fill="#ffc4e1"/><path d="M750,1049.19c101.426,0,183.648-73.244,183.648-163.59s-82.222-163.586-183.648-163.586-183.649,73.24-183.649,163.586s82.223,163.59,183.649,163.59Z" fill="#f1f1f1"/><path d="M750,1026.18c87.158,0,157.815-62.939,157.815-140.581c0-77.641-70.657-140.582-157.815-140.582-87.159,0-157.815,62.941-157.815,140.582c0,77.642,70.656,140.581,157.815,140.581Z" fill="#ffc4e1"/><path d="M749.999,1003.18c72.901,0,131.998-52.644,131.998-117.581s-59.097-117.578-131.998-117.578c-72.9,0-131.997,52.641-131.997,117.578s59.097,117.581,131.997,117.581Z" fill="#f1f1f1"/><path d="M750,980.175c58.632,0,106.163-42.343,106.163-94.575c0-52.233-47.531-94.576-106.163-94.576-58.633,0-106.164,42.343-106.164,94.576c0,52.232,47.531,94.575,106.164,94.575Z" fill="#ffc4e1"/><path d="M750,957.171c44.373,0,80.346-32.044,80.346-71.572c0-39.527-35.973-71.571-80.346-71.571-44.374,0-80.347,32.044-80.347,71.571c0,39.528,35.973,71.572,80.347,71.572Z" fill="#f1f1f1"/><path d="M749.999,934.168c30.107,0,54.513-21.745,54.513-48.568c0-26.824-24.406-48.568-54.513-48.568-30.106,0-54.512,21.744-54.512,48.568c0,26.823,24.406,48.568,54.512,48.568Z" fill="#ffc4e1"/><path d="M749.999,911.164c15.848,0,28.695-11.446,28.695-25.565s-12.847-25.564-28.695-25.564-28.695,11.445-28.695,25.564s12.847,25.565,28.695,25.565Z" fill="#f1f1f1"/><path d="M305.475,1141.2c158.479,0,286.951-114.44,286.951-255.6c0-141.164-128.472-255.6-286.951-255.6C146.997,630,18.5247,744.436,18.5247,885.6c0,141.16,128.4723,255.6,286.9503,255.6Z" fill="#f1f1f1"/><path d="M305.475,1118.2c144.211,0,261.117-104.14,261.117-232.601c0-128.459-116.906-232.596-261.117-232.596s-261.1173,104.137-261.1173,232.596c0,128.461,116.9063,232.601,261.1173,232.601Z" fill="#ffc4e1"/><path d="M305.475,1095.19c129.953,0,235.3-93.84,235.3-209.59c0-115.755-105.347-209.593-235.3-209.593-129.952,0-235.2992,93.838-235.2992,209.593c0,115.75,105.3472,209.59,235.2992,209.59Z" fill="#f1f1f1"/><path d="M305.475,1072.19c115.685,0,209.466-83.54,209.466-186.591c0-103.05-93.781-186.589-209.466-186.589s-209.4662,83.539-209.4662,186.589c0,103.051,93.7812,186.591,209.4662,186.591Z" fill="#ffc4e1"/><path d="M305.475,1049.19c101.426,0,183.648-73.244,183.648-163.59s-82.222-163.586-183.648-163.586-183.649,73.24-183.649,163.586s82.223,163.59,183.649,163.59Z" fill="#f1f1f1"/><path d="M305.475,1026.18c87.158,0,157.815-62.939,157.815-140.581c0-77.641-70.657-140.582-157.815-140.582-87.159,0-157.815,62.941-157.815,140.582c0,77.642,70.656,140.581,157.815,140.581Z" fill="#ffc4e1"/><path d="M305.475,1003.18c72.9,0,131.997-52.644,131.997-117.581s-59.097-117.578-131.997-117.578-131.997,52.641-131.997,117.578s59.097,117.581,131.997,117.581Z" fill="#f1f1f1"/><path d="M305.475,980.175c58.633,0,106.164-42.343,106.164-94.575c0-52.233-47.531-94.576-106.164-94.576s-106.164,42.343-106.164,94.576c0,52.232,47.531,94.575,106.164,94.575Z" fill="#ffc4e1"/><path d="M305.475,957.171c44.374,0,80.346-32.044,80.346-71.572c0-39.527-35.972-71.571-80.346-71.571s-80.346,32.044-80.346,71.571c0,39.528,35.972,71.572,80.346,71.572Z" fill="#f1f1f1"/><path d="M305.475,934.168c30.106,0,54.512-21.745,54.512-48.568c0-26.824-24.406-48.568-54.512-48.568-30.107,0-54.513,21.744-54.513,48.568c0,26.823,24.406,48.568,54.513,48.568Z" fill="#ffc4e1"/><path d="M305.474,911.164c15.848,0,28.695-11.446,28.695-25.565s-12.847-25.564-28.695-25.564c-15.847,0-28.695,11.445-28.695,25.564s12.848,25.565,28.695,25.565Z" fill="#f1f1f1"/><path d="M-139.049,1141.2c158.4781,0,286.95-114.44,286.95-255.6c0-141.164-128.4719-255.6-286.95-255.6C-297.528,630,-426,744.436,-426,885.6c0,141.16,128.472,255.6,286.951,255.6Z" fill="#f1f1f1"/><path d="M-139.05,1118.2c144.21122,0,261.117-104.14,261.117-232.601c0-128.459-116.90578-232.596-261.117-232.596-144.211,0-261.117,104.137-261.117,232.596c0,128.461,116.906,232.601,261.117,232.601Z" fill="#ffc4e1"/><path d="M-139.049,1095.19c129.95198,0,235.2991-93.84,235.2991-209.59c0-115.755-105.34712-209.593-235.2991-209.593-129.953,0-235.3,93.838-235.3,209.593c0,115.75,105.347,209.59,235.3,209.59Z" fill="#f1f1f1"/><path d="M-139.05,1072.19c115.6851,0,209.4663-83.54,209.4663-186.591c0-103.05-93.7812-186.589-209.4663-186.589-115.685,0-209.466,83.539-209.466,186.589c0,103.051,93.781,186.591,209.466,186.591Z" fill="#ffc4e1"/><path d="M-139.05,1049.19c101.4264,0,183.6486-73.244,183.6486-163.59s-82.2222-163.586-183.6486-163.586c-101.426,0-183.648,73.24-183.648,163.586s82.222,163.59,183.648,163.59Z" fill="#f1f1f1"/><path d="M-139.05,1026.18c87.1588,0,157.815-62.939,157.815-140.581c0-77.641-70.6562-140.582-157.815-140.582-87.159,0-157.815,62.941-157.815,140.582c0,77.642,70.656,140.581,157.815,140.581Z" fill="#ffc4e1"/></g></g><g id="e1yq2jDe4NR200_to" transform="translate(1002,1135.400025)"><g transform="translate(-1002,-1135.400024)"><path d="M1959.85,1414.8c170.74,0,309.15-125.09,309.15-279.4c0-154.308-138.41-279.4-309.15-279.4-170.75,0-309.16,125.092-309.16,279.4c0,154.31,138.41,279.4,309.16,279.4Z" fill="#f1f1f1"/><path d="M1959.84,1389.66c155.37,0,281.33-113.84,281.33-254.26c0-140.421-125.96-254.255-281.33-254.255s-281.32,113.834-281.32,254.255c0,140.42,125.95,254.26,281.32,254.26Z" fill="#ffc4e1"/><path d="M1959.84,1364.51c140.01,0,253.51-102.58,253.51-229.11s-113.5-229.109-253.51-229.109c-140,0-253.5,102.579-253.5,229.109s113.5,229.11,253.5,229.11Z" fill="#f1f1f1"/><path d="M1959.84,1339.36c124.64,0,225.68-91.31,225.68-203.96s-101.04-203.964-225.68-203.964c-124.63,0-225.67,91.314-225.67,203.964s101.04,203.96,225.67,203.96Z" fill="#ffc4e1"/><path d="M1959.85,1314.22c109.27,0,197.85-80.06,197.85-178.82s-88.58-178.817-197.85-178.817c-109.28,0-197.86,80.057-197.86,178.817s88.58,178.82,197.86,178.82Z" fill="#f1f1f1"/><path d="M1959.84,1289.07c93.91,0,170.03-68.8,170.03-153.67s-76.12-153.672-170.03-153.672c-93.9,0-170.02,68.802-170.02,153.672s76.12,153.67,170.02,153.67Z" fill="#ffc4e1"/><path d="M1959.85,1263.93c78.54,0,142.21-57.55,142.21-128.53s-63.67-128.53-142.21-128.53c-78.55,0-142.22,57.55-142.22,128.53s63.67,128.53,142.22,128.53Z" fill="#f1f1f1"/><path d="M1959.84,1238.78c63.17,0,114.38-46.28,114.38-103.38s-51.21-103.38-114.38-103.38-114.37,46.28-114.37,103.38s51.2,103.38,114.37,103.38Z" fill="#ffc4e1"/><path d="M1959.84,1213.64c47.81,0,86.57-35.03,86.57-78.24s-38.76-78.24-86.57-78.24c-47.8,0-86.56,35.03-86.56,78.24s38.76,78.24,86.56,78.24Z" fill="#f1f1f1"/><path d="M1959.84,1188.49c32.44,0,58.74-23.77,58.74-53.09s-26.3-53.09-58.74-53.09c-32.43,0-58.73,23.77-58.73,53.09s26.3,53.09,58.73,53.09Z" fill="#ffc4e1"/><path d="M1480.92,1414.8c170.74,0,309.16-125.09,309.16-279.4c0-154.308-138.42-279.4-309.16-279.4s-309.15,125.092-309.15,279.4c0,154.31,138.41,279.4,309.15,279.4Z" fill="#f1f1f1"/><path d="M1480.92,1389.66c155.37,0,281.33-113.84,281.33-254.26c0-140.421-125.96-254.255-281.33-254.255s-281.32,113.834-281.32,254.255c0,140.42,125.95,254.26,281.32,254.26Z" fill="#ffc4e1"/><path d="M1480.92,1364.51c140.01,0,253.51-102.58,253.51-229.11s-113.5-229.109-253.51-229.109-253.5,102.579-253.5,229.109s113.49,229.11,253.5,229.11Z" fill="#f1f1f1"/><path d="M1480.92,1339.36c124.64,0,225.68-91.31,225.68-203.96s-101.04-203.963-225.68-203.963c-124.63,0-225.67,91.313-225.67,203.963s101.04,203.96,225.67,203.96Z" fill="#ffc4e1"/><path d="M1480.92,1314.22c109.28,0,197.86-80.06,197.86-178.82s-88.58-178.817-197.86-178.817c-109.27,0-197.86,80.057-197.86,178.817s88.59,178.82,197.86,178.82Z" fill="#f1f1f1"/><path d="M1480.92,1289.07c93.91,0,170.03-68.8,170.03-153.67s-76.12-153.672-170.03-153.672c-93.9,0-170.02,68.802-170.02,153.672s76.12,153.67,170.02,153.67Z" fill="#ffc4e1"/><path d="M1480.92,1263.93c78.54,0,142.21-57.55,142.21-128.53s-63.67-128.53-142.21-128.53-142.21,57.55-142.21,128.53s63.67,128.53,142.21,128.53Z" fill="#f1f1f1"/><path d="M1480.92,1238.78c63.17,0,114.38-46.28,114.38-103.38s-51.21-103.38-114.38-103.38-114.38,46.28-114.38,103.38s51.21,103.38,114.38,103.38Z" fill="#ffc4e1"/><path d="M1480.92,1213.64c47.81,0,86.57-35.03,86.57-78.24s-38.76-78.24-86.57-78.24-86.56,35.03-86.56,78.24s38.75,78.24,86.56,78.24Z" fill="#f1f1f1"/><path d="M1480.92,1188.49c32.44,0,58.73-23.77,58.73-53.09s-26.29-53.09-58.73-53.09c-32.43,0-58.73,23.77-58.73,53.09s26.3,53.09,58.73,53.09Z" fill="#ffc4e1"/><path d="M1480.92,1163.35c17.08,0,30.92-12.52,30.92-27.95s-13.84-27.94-30.92-27.94c-17.07,0-30.91,12.51-30.91,27.94s13.84,27.95,30.91,27.95Z" fill="#f1f1f1"/><path d="M1002,1414.8c170.74,0,309.16-125.09,309.16-279.4c0-154.308-138.42-279.4-309.16-279.4-170.742,0-309.155,125.092-309.155,279.4c0,154.31,138.413,279.4,309.155,279.4Z" fill="#f1f1f1"/><path d="M1002,1389.66c155.37,0,281.32-113.84,281.32-254.26c0-140.421-125.95-254.255-281.32-254.255s-281.323,113.834-281.323,254.255c0,140.42,125.953,254.26,281.323,254.26Z" fill="#ffc4e1"/><path d="M1002,1364.51c140.01,0,253.51-102.58,253.51-229.11s-113.5-229.109-253.51-229.109c-140.008,0-253.507,102.579-253.507,229.109s113.499,229.11,253.507,229.11Z" fill="#f1f1f1"/><path d="M1002,1339.36c124.64,0,225.67-91.31,225.67-203.96s-101.03-203.963-225.67-203.963c-124.637,0-225.675,91.313-225.675,203.963s101.038,203.96,225.675,203.96Z" fill="#ffc4e1"/><path d="M1002,1314.22c109.27,0,197.86-80.06,197.86-178.82s-88.59-178.817-197.86-178.817c-109.275,0-197.859,80.057-197.859,178.817s88.584,178.82,197.859,178.82Z" fill="#f1f1f1"/><path d="M1002,1289.07c93.9,0,170.03-68.8,170.03-153.67s-76.13-153.672-170.03-153.672c-93.903,0-170.027,68.802-170.027,153.672s76.124,153.67,170.027,153.67Z" fill="#ffc4e1"/><path d="M1002,1263.93c78.54,0,142.21-57.55,142.21-128.53s-63.67-128.53-142.21-128.53c-78.541,0-142.212,57.55-142.212,128.53s63.671,128.53,142.212,128.53Z" fill="#f1f1f1"/><path d="M1002,1238.78c63.17,0,114.38-46.28,114.38-103.38s-51.21-103.38-114.38-103.38-114.379,46.28-114.379,103.38s51.209,103.38,114.379,103.38Z" fill="#ffc4e1"/><path d="M1002,1213.64c47.81,0,86.56-35.03,86.56-78.24s-38.75-78.24-86.56-78.24c-47.808,0-86.564,35.03-86.564,78.24s38.756,78.24,86.564,78.24Z" fill="#f1f1f1"/><path d="M1002,1188.49c32.44,0,58.73-23.77,58.73-53.09s-26.29-53.09-58.73-53.09c-32.437,0-58.731,23.77-58.731,53.09s26.294,53.09,58.731,53.09Z" fill="#ffc4e1"/><path d="M1002,1163.35c17.07,0,30.92-12.52,30.92-27.95s-13.85-27.94-30.92-27.94c-17.075,0-30.916,12.51-30.916,27.94s13.841,27.95,30.916,27.95Z" fill="#f1f1f1"/><path d="M523.078,1414.8c170.741,0,309.155-125.09,309.155-279.4c0-154.308-138.414-279.4-309.155-279.4-170.742,0-309.156,125.092-309.156,279.4c0,154.31,138.414,279.4,309.156,279.4Z" fill="#f1f1f1"/><path d="M523.077,1389.66c155.37,0,281.323-113.84,281.323-254.26c0-140.421-125.953-254.255-281.323-254.255s-281.323,113.834-281.323,254.255c0,140.42,125.953,254.26,281.323,254.26Z" fill="#ffc4e1"/><path d="M523.078,1364.51c140.008,0,253.507-102.58,253.507-229.11s-113.499-229.109-253.507-229.109c-140.009,0-253.508,102.579-253.508,229.109s113.499,229.11,253.508,229.11Z" fill="#f1f1f1"/><path d="M523.077,1339.36c124.637,0,225.675-91.31,225.675-203.96s-101.038-203.963-225.675-203.963-225.675,91.313-225.675,203.963s101.038,203.96,225.675,203.96Z" fill="#ffc4e1"/><path d="M523.077,1314.22c109.275,0,197.859-80.06,197.859-178.82s-88.584-178.817-197.859-178.817-197.859,80.057-197.859,178.817s88.584,178.82,197.859,178.82Z" fill="#f1f1f1"/><path d="M523.077,1289.07c93.903,0,170.027-68.8,170.027-153.67s-76.124-153.672-170.027-153.672c-93.904,0-170.027,68.802-170.027,153.672s76.123,153.67,170.027,153.67Z" fill="#ffc4e1"/><path d="M523.077,1263.93c78.541,0,142.211-57.55,142.211-128.53s-63.67-128.53-142.211-128.53-142.212,57.55-142.212,128.53s63.671,128.53,142.212,128.53Z" fill="#f1f1f1"/><path d="M523.077,1238.78c63.17,0,114.379-46.28,114.379-103.38s-51.209-103.38-114.379-103.38-114.379,46.28-114.379,103.38s51.209,103.38,114.379,103.38Z" fill="#ffc4e1"/><path d="M523.077,1213.64c47.808,0,86.563-35.03,86.563-78.24s-38.755-78.24-86.563-78.24-86.564,35.03-86.564,78.24s38.756,78.24,86.564,78.24Z" fill="#f1f1f1"/><path d="M523.077,1188.49c32.436,0,58.731-23.77,58.731-53.09s-26.295-53.09-58.731-53.09c-32.437,0-58.731,23.77-58.731,53.09s26.294,53.09,58.731,53.09Z" fill="#ffc4e1"/><path d="M523.076,1163.35c17.075,0,30.916-12.52,30.916-27.95s-13.841-27.94-30.916-27.94c-17.074,0-30.915,12.51-30.915,27.94s13.841,27.95,30.915,27.95Z" fill="#f1f1f1"/><path d="M44.1552,1414.8c170.7418,0,309.1548-125.09,309.1548-279.4C353.31,981.092,214.897,856,44.1552,856C-126.586,856,-265,981.092,-265,1135.4c0,154.31,138.414,279.4,309.1552,279.4Z" fill="#f1f1f1"/><path d="M44.1548,1389.66c155.3702,0,281.3232-113.84,281.3232-254.26c0-140.421-125.953-254.255-281.3232-254.255-155.3698,0-281.3228,113.834-281.3228,254.255c0,140.42,125.953,254.26,281.3228,254.26Z" fill="#ffc4e1"/><path d="M44.1552,1364.51c140.0078,0,253.5068-102.58,253.5068-229.11s-113.499-229.109-253.5068-229.109c-140.0082,0-253.5072,102.579-253.5072,229.109s113.499,229.11,253.5072,229.11Z" fill="#f1f1f1"/><path d="M44.1548,1339.36c124.6372,0,225.6752-91.31,225.6752-203.96s-101.038-203.963-225.6752-203.963c-124.6367,0-225.6748,91.313-225.6748,203.963s101.0381,203.96,225.6748,203.96Z" fill="#ffc4e1"/><path d="M44.1547,1314.22c109.2743,0,197.8593-80.06,197.8593-178.82s-88.585-178.817-197.8593-178.817c-109.2746,0-197.8597,80.057-197.8597,178.817s88.5851,178.82,197.8597,178.82Z" fill="#f1f1f1"/><path d="M44.1546,1289.07c93.9034,0,170.0264-68.8,170.0264-153.67s-76.123-153.672-170.0264-153.672-170.0266,68.802-170.0266,153.672s76.1233,153.67,170.0266,153.67Z" fill="#ffc4e1"/><path d="M44.1548,1263.93c78.5412,0,142.2112-57.55,142.2112-128.53s-63.67-128.53-142.2112-128.53-142.2114,57.55-142.2114,128.53s63.6702,128.53,142.2114,128.53Z" fill="#f1f1f1"/><path d="M44.1548,1238.78c63.1702,0,114.3792-46.28,114.3792-103.38s-51.209-103.38-114.3792-103.38c-63.1697,0-114.3789,46.28-114.3789,103.38s51.2092,103.38,114.3789,103.38Z" fill="#ffc4e1"/><path d="M44.1548,1213.64c47.8077,0,86.5632-35.03,86.5632-78.24s-38.7555-78.24-86.5632-78.24-86.5635,35.03-86.5635,78.24s38.75581,78.24,86.5635,78.24Z" fill="#f1f1f1"/><path d="M44.1543,1188.49c32.4362,0,58.7307-23.77,58.7307-53.09s-26.2945-53.09-58.7307-53.09-58.731,23.77-58.731,53.09s26.2948,53.09,58.731,53.09Z" fill="#ffc4e1"/><path d="M44.1543,1163.35c17.0742,0,30.9155-12.52,30.9155-27.95s-13.8413-27.94-30.9155-27.94-30.9155,12.51-30.9155,27.94s13.8413,27.95,30.9155,27.95Z" fill="#f1f1f1"/></g></g><g id="e1yq2jDe4NR255_to" transform="translate(777.560059,1397)"><g transform="translate(-777.560058,-1397)"><path d="M1795.74,1694c181.5,0,328.63-132.97,328.63-297s-147.13-297-328.63-297-328.63,132.97-328.63,297s147.13,297,328.63,297Z" fill="#f1f1f1"/><path d="M1795.74,1667.27c165.16,0,299.04-121,299.04-270.27s-133.88-270.27-299.04-270.27-299.04,121-299.04,270.27s133.88,270.27,299.04,270.27Z" fill="#ffc4e1"/><path d="M1795.74,1640.54c148.83,0,269.47-109.04,269.47-243.54s-120.64-243.54-269.47-243.54-269.48,109.04-269.48,243.54s120.65,243.54,269.48,243.54Z" fill="#f1f1f1"/><path d="M1795.74,1613.81c132.49,0,239.89-97.07,239.89-216.81s-107.4-216.81-239.89-216.81-239.89,97.07-239.89,216.81s107.4,216.81,239.89,216.81Z" fill="#ffc4e1"/><path d="M1795.74,1587.08c116.16,0,210.32-85.1,210.32-190.08s-94.16-190.08-210.32-190.08-210.32,85.1-210.32,190.08s94.16,190.08,210.32,190.08Z" fill="#f1f1f1"/><path d="M1795.74,1560.35c99.82,0,180.74-73.13,180.74-163.35s-80.92-163.35-180.74-163.35-180.74,73.13-180.74,163.35s80.92,163.35,180.74,163.35Z" fill="#ffc4e1"/><path d="M1795.74,1533.62c83.49,0,151.17-61.17,151.17-136.62c0-75.46-67.68-136.62-151.17-136.62s-151.17,61.16-151.17,136.62c0,75.45,67.68,136.62,151.17,136.62Z" fill="#f1f1f1"/><path d="M1795.74,1506.89c67.15,0,121.58-49.2,121.58-109.89s-54.43-109.89-121.58-109.89-121.59,49.2-121.59,109.89s54.44,109.89,121.59,109.89Z" fill="#ffc4e1"/><path d="M1795.74,1480.16c50.82,0,92.01-37.23,92.01-83.16s-41.19-83.16-92.01-83.16-92.02,37.23-92.02,83.16s41.2,83.16,92.02,83.16Z" fill="#f1f1f1"/><path d="M1795.74,1453.44c34.48,0,62.43-25.27,62.43-56.44s-27.95-56.43-62.43-56.43-62.43,25.26-62.43,56.43s27.95,56.44,62.43,56.44Z" fill="#ffc4e1"/><path d="M1795.74,1426.71c18.15,0,32.86-13.3,32.86-29.71s-14.71-29.71-32.86-29.71-32.86,13.3-32.86,29.71s14.71,29.71,32.86,29.71Z" fill="#f1f1f1"/><path d="M1286.65,1694c181.5,0,328.63-132.97,328.63-297s-147.13-297-328.63-297-328.63,132.97-328.63,297s147.13,297,328.63,297Z" fill="#f1f1f1"/><path d="M1286.65,1667.27c165.16,0,299.04-121,299.04-270.27s-133.88-270.27-299.04-270.27-299.045,121-299.045,270.27s133.885,270.27,299.045,270.27Z" fill="#ffc4e1"/><path d="M1286.65,1640.54c148.83,0,269.47-109.04,269.47-243.54s-120.64-243.54-269.47-243.54-269.48,109.04-269.48,243.54s120.65,243.54,269.48,243.54Z" fill="#f1f1f1"/><path d="M1286.65,1613.81c132.49,0,239.89-97.07,239.89-216.81s-107.4-216.81-239.89-216.81-239.89,97.07-239.89,216.81s107.4,216.81,239.89,216.81Z" fill="#ffc4e1"/><path d="M1286.65,1587.08c116.16,0,210.32-85.1,210.32-190.08s-94.16-190.08-210.32-190.08-210.32,85.1-210.32,190.08s94.16,190.08,210.32,190.08Z" fill="#f1f1f1"/><path d="M1286.65,1560.35c99.82,0,180.74-73.13,180.74-163.35s-80.92-163.35-180.74-163.35-180.74,73.13-180.74,163.35s80.92,163.35,180.74,163.35Z" fill="#ffc4e1"/><path d="M1286.65,1533.62c83.49,0,151.17-61.17,151.17-136.62c0-75.46-67.68-136.62-151.17-136.62s-151.17,61.16-151.17,136.62c0,75.45,67.68,136.62,151.17,136.62Z" fill="#f1f1f1"/><path d="M1286.65,1506.89c67.15,0,121.58-49.2,121.58-109.89s-54.43-109.89-121.58-109.89-121.59,49.2-121.59,109.89s54.44,109.89,121.59,109.89Z" fill="#ffc4e1"/><path d="M1286.65,1480.16c50.82,0,92.01-37.23,92.01-83.16s-41.19-83.16-92.01-83.16-92.02,37.23-92.02,83.16s41.2,83.16,92.02,83.16Z" fill="#f1f1f1"/><path d="M1286.65,1453.44c34.48,0,62.43-25.27,62.43-56.44s-27.95-56.43-62.43-56.43-62.43,25.26-62.43,56.43s27.95,56.44,62.43,56.44Z" fill="#ffc4e1"/><path d="M1286.65,1426.71c18.15,0,32.86-13.3,32.86-29.71s-14.71-29.71-32.86-29.71-32.86,13.3-32.86,29.71s14.71,29.71,32.86,29.71Z" fill="#f1f1f1"/><path d="M777.559,1694c181.497,0,328.631-132.97,328.631-297s-147.134-297-328.631-297-328.629,132.97-328.629,297s147.132,297,328.629,297Z" fill="#f1f1f1"/><path d="M777.559,1667.27c165.157,0,299.041-121,299.041-270.27s-133.884-270.27-299.041-270.27-299.043,121-299.043,270.27s133.886,270.27,299.043,270.27Z" fill="#ffc4e1"/><path d="M777.559,1640.54c148.828,0,269.471-109.04,269.471-243.54s-120.643-243.54-269.471-243.54c-148.827,0-269.476,109.04-269.476,243.54s120.649,243.54,269.476,243.54Z" fill="#f1f1f1"/><path d="M777.559,1613.81c132.487,0,239.891-97.07,239.891-216.81s-107.404-216.81-239.891-216.81c-132.488,0-239.89,97.07-239.89,216.81s107.402,216.81,239.89,216.81Z" fill="#ffc4e1"/><path d="M777.559,1587.08c116.158,0,210.323-85.1,210.323-190.08s-94.165-190.08-210.323-190.08-210.322,85.1-210.322,190.08s94.164,190.08,210.322,190.08Z" fill="#f1f1f1"/><path d="M777.559,1560.35c99.818,0,180.737-73.13,180.737-163.35s-80.919-163.35-180.737-163.35-180.737,73.13-180.737,163.35s80.919,163.35,180.737,163.35Z" fill="#ffc4e1"/><path d="M777.559,1533.62c83.489,0,151.169-61.17,151.169-136.62c0-75.46-67.68-136.62-151.169-136.62s-151.169,61.16-151.169,136.62c0,75.45,67.68,136.62,151.169,136.62Z" fill="#f1f1f1"/><path d="M777.559,1506.89c67.149,0,121.583-49.2,121.583-109.89s-54.434-109.89-121.583-109.89-121.584,49.2-121.584,109.89s54.435,109.89,121.584,109.89Z" fill="#ffc4e1"/><path d="M777.559,1480.16c50.819,0,92.016-37.23,92.016-83.16s-41.197-83.16-92.016-83.16-92.016,37.23-92.016,83.16s41.197,83.16,92.016,83.16Z" fill="#f1f1f1"/><path d="M777.559,1453.44c34.479,0,62.43-25.27,62.43-56.44s-27.951-56.43-62.43-56.43c-34.48,0-62.431,25.26-62.431,56.43s27.951,56.44,62.431,56.44Z" fill="#ffc4e1"/><path d="M777.559,1426.71c18.149,0,32.863-13.3,32.863-29.71s-14.714-29.71-32.863-29.71c-18.15,0-32.863,13.3-32.863,29.71s14.713,29.71,32.863,29.71Z" fill="#f1f1f1"/><path d="M268.469,1694c181.497,0,328.629-132.97,328.629-297s-147.132-297-328.629-297c-181.4967,0-328.6289,132.97-328.6289,297s147.1322,297,328.6289,297Z" fill="#f1f1f1"/><path d="M268.468,1667.27c165.157,0,299.044-121,299.044-270.27s-133.887-270.27-299.044-270.27-299.043,121-299.043,270.27s133.886,270.27,299.043,270.27Z" fill="#ffc4e1"/><path d="M268.469,1640.54c148.828,0,269.476-109.04,269.476-243.54s-120.648-243.54-269.476-243.54c-148.827,0-269.47559,109.04-269.47559,243.54s120.64859,243.54,269.47559,243.54Z" fill="#f1f1f1"/><path d="M268.468,1613.81c132.488,0,239.891-97.07,239.891-216.81s-107.403-216.81-239.891-216.81c-132.487,0-239.8896,97.07-239.8896,216.81s107.4026,216.81,239.8896,216.81Z" fill="#ffc4e1"/><path d="M268.468,1587.08c116.158,0,210.323-85.1,210.323-190.08s-94.165-190.08-210.323-190.08-210.3222,85.1-210.3222,190.08s94.1642,190.08,210.3222,190.08Z" fill="#f1f1f1"/><path d="M268.468,1560.35c99.818,0,180.737-73.13,180.737-163.35s-80.919-163.35-180.737-163.35-180.7368,73.13-180.7368,163.35s80.9188,163.35,180.7368,163.35Z" fill="#ffc4e1"/><path d="M268.468,1533.62c83.489,0,151.169-61.17,151.169-136.62c0-75.46-67.68-136.62-151.169-136.62-83.488,0-151.169,61.16-151.169,136.62c0,75.45,67.681,136.62,151.169,136.62Z" fill="#f1f1f1"/><path d="M268.468,1506.89c67.149,0,121.584-49.2,121.584-109.89s-54.435-109.89-121.584-109.89c-67.148,0-121.583,49.2-121.583,109.89s54.435,109.89,121.583,109.89Z" fill="#ffc4e1"/><path d="M268.468,1480.16c50.819,0,92.016-37.23,92.016-83.16s-41.197-83.16-92.016-83.16-92.016,37.23-92.016,83.16s41.197,83.16,92.016,83.16Z" fill="#f1f1f1"/><path d="M268.468,1453.44c34.479,0,62.43-25.27,62.43-56.44s-27.951-56.43-62.43-56.43-62.43,25.26-62.43,56.43s27.951,56.44,62.43,56.44Z" fill="#ffc4e1"/><path d="M268.468,1426.71c18.149,0,32.863-13.3,32.863-29.71s-14.714-29.71-32.863-29.71c-18.15,0-32.863,13.3-32.863,29.71s14.713,29.71,32.863,29.71Z" fill="#f1f1f1"/><path d="M-240.621,1694c181.4972,0,328.6294-132.97,328.6294-297s-147.1322-297-328.6294-297c-181.496,0-328.629,132.97-328.629,297s147.133,297,328.629,297Z" fill="#f1f1f1"/><path d="M-240.621,1667.27c165.1571,0,299.0434-121,299.0434-270.27s-133.8863-270.27-299.0434-270.27-299.043,121-299.043,270.27s133.886,270.27,299.043,270.27Z" fill="#ffc4e1"/><path d="M-240.62,1640.54c148.8269,0,269.4753-109.04,269.4753-243.54s-120.6484-243.54-269.4753-243.54c-148.828,0-269.476,109.04-269.476,243.54s120.648,243.54,269.476,243.54Z" fill="#f1f1f1"/></g></g></svg>
