<svg id="eG864Zq9Ysn1" xmlns="http://www.w3.org/2000/svg" xmlns:xlink="http://www.w3.org/1999/xlink" viewBox="0 0 84 84" shape-rendering="geometricPrecision" text-rendering="geometricPrecision">
<style><![CDATA[
#eG864Zq9Ysn2 {animation: eG864Zq9Ysn2_c_o 3000ms linear infinite normal forwards}@keyframes eG864Zq9Ysn2_c_o { 0% {opacity: 1} 16.666667% {opacity: 0.5} 33.333333% {opacity: 0} 50% {opacity: 0.5} 66.666667% {opacity: 1} 83.333333% {opacity: 0.5} 100% {opacity: 0}} #eG864Zq9Ysn7 {animation: eG864Zq9Ysn7_c_o 3000ms linear infinite normal forwards}@keyframes eG864Zq9Ysn7_c_o { 0% {opacity: 1} 16.666667% {opacity: 0.5} 33.333333% {opacity: 0} 50% {opacity: 0.5} 66.666667% {opacity: 1} 83.333333% {opacity: 0.5} 100% {opacity: 0}}
]]></style>
<g id="eG864Zq9Ysn2" mask="url(#eG864Zq9Ysn5)"><g><path d="M42,74L21,52.9189L25.9,48L42,64.1622L58.1,48L63,52.9189L42,74Z" fill="#fbfaff"/></g><mask id="eG864Zq9Ysn5" mask-type="alpha" x="-150%" y="-150%" height="400%" width="400%"><rect width="84" height="84" rx="0" ry="0" fill="#d9d9d9"/></mask></g><path id="eG864Zq9Ysn7" d="M19.1925,33.368c1.008,0,1.784-.216,2.328-.648.544-.448.816-1.096.816-1.944c0-.704-.192-1.296-.576-1.776-.368-.48-.976-.848-1.824-1.104l-1.944-.576c-1.216-.368-2.112-.92-2.688-1.656-.576-.752-.864-1.672-.864-2.76c0-.832.16-1.584.48-2.256.336-.672.864-1.208,1.584-1.608.736-.4,1.696-.6,2.88-.6.72,0,1.464.088,2.232.264.768.16,1.544.424,2.328.792l-.672,1.8c-.768-.336-1.464-.576-2.088-.72-.608-.16-1.192-.24-1.752-.24-.912,0-1.624.192-2.136.576-.496.368-.744.984-.744,1.848c0,.624.168,1.152.504,1.584.336.416.936.76,1.8,1.032l1.944.576c2.432.72,3.648,2.272,3.648,4.656c0,1.376-.416,2.496-1.248,3.36-.832.848-2.168,1.272-4.008,1.272-.752,0-1.552-.088-2.4-.264-.832-.192-1.696-.488-2.592-.888l.648-1.776c.848.384,1.608.656,2.28.816.688.16,1.376.24,2.064.24Zm9.7646-5.016v1.416c0,1.216.224,2.136.672,2.76.448.608,1.16.912,2.136.912.96,0,1.992-.248,3.096-.744l.6,1.656c-1.312.592-2.584.888-3.816.888-1.536,0-2.704-.488-3.504-1.464s-1.2-2.312-1.2-4.008v-1.416c0-1.696.4-3.032,1.2-4.008s1.968-1.464,3.504-1.464c.576,0,1.168.08,1.776.24.624.144,1.248.352,1.872.624l-.6,1.68c-.528-.224-1.04-.4-1.536-.528-.48-.128-.944-.192-1.392-.192-.976,0-1.688.312-2.136.936-.448.608-.672,1.512-.672,2.712Zm15.6293-3.504c-.72,0-1.424.128-2.112.384-.672.256-1.392.744-2.16,1.464v8.304h-1.968v-11.88h1.872v1.92c.816-.8,1.56-1.36,2.232-1.68.688-.32,1.4-.48,2.136-.48v1.968Zm11.9805,3.48v1.44c0,1.696-.44,3.032-1.32,4.008-.864.976-2.104,1.464-3.72,1.464-1.6,0-2.84-.488-3.72-1.464s-1.32-2.312-1.32-4.008v-1.44c0-1.664.432-2.984,1.296-3.96.88-.992,2.128-1.488,3.744-1.488s2.856.496,3.72,1.488c.88.976,1.32,2.296,1.32,3.96Zm-2.04,0c0-1.136-.256-2.024-.768-2.664-.512-.656-1.256-.984-2.232-.984-.96,0-1.704.328-2.232.984-.512.64-.768,1.528-.768,2.664v1.44c0,1.184.256,2.096.768,2.736.528.64,1.272.96,2.232.96.976,0,1.72-.32,2.232-.96s.768-1.552.768-2.736v-1.44Zm5.5924,3.792v-14.88h1.968v14.784c0,.432.064.76.192.984.144.208.424.312.84.312h.384v1.8h-.552c-1.056,0-1.792-.28-2.208-.84s-.624-1.28-.624-2.16Zm6.3281,0v-14.88h1.968v14.784c0,.432.064.76.192.984.144.208.424.312.84.312h.384v1.8h-.552c-1.056,0-1.792-.28-2.208-.84s-.624-1.28-.624-2.16Z" fill="#fbfaff"/></svg>
